<?xml version="1.0" encoding="utf-8"?>
<!-- Generator: Adobe Illustrator 23.0.1, SVG Export Plug-In . SVG Version: 6.00 Build 0)  -->
<svg version="1.1" id="Layer_1" xmlns="http://www.w3.org/2000/svg" xmlns:xlink="http://www.w3.org/1999/xlink" x="0px" y="0px"
	 viewBox="0 0 665.77 294.29" enable-background="new 0 0 665.77 294.29" xml:space="preserve">
<g>
	<g>
		<ellipse cx="139.12" cy="125.87" rx="125.31" ry="124.62"/>
		<path fill="#FAF8FA" d="M139.12,251.74c-69.78,0-126.56-56.47-126.56-125.87C12.56,56.47,69.33,0,139.12,0
			s126.56,56.47,126.56,125.87C265.67,195.28,208.9,251.74,139.12,251.74z M139.12,2.5c-68.4,0-124.05,55.34-124.05,123.37
			c0,68.02,55.65,123.37,124.05,123.37s124.05-55.34,124.05-123.37C263.17,57.85,207.52,2.5,139.12,2.5z"/>
	</g>
	<g>
		<path d="M189.85,28.06H88.89c-1.96,21.88-18.58,39.55-40.03,43.23l0.4,75.62l90.57,90.07l89.32-88.83V65.14
			C209.65,61.89,194.11,47.09,189.85,28.06z"/>
		<path fill="#FAF8FA" d="M139.82,238.75L48,147.44l-0.4-77.2l1.05-0.18c21.06-3.62,37.1-20.93,38.99-42.11l0.1-1.14h103.11
			l0.22,0.98c4.13,18.47,19.51,32.99,38.27,36.12l1.05,0.17v84.59l-0.37,0.37L139.82,238.75z M50.5,146.39l89.32,88.83l88.07-87.59
			V66.19c-19.24-3.62-34.4-17.95-39.03-36.88H90.02c-2.42,21.43-18.61,38.9-39.9,43.02L50.5,146.39z"/>
	</g>
	<g>
		<path fill="#FFFFFF" d="M49.44,95.37c17.73-7.95,51.13-20.13,94.45-19.28c38.7,0.76,68.67,11.58,85.83,19.28
			c0,17.35,0,34.69,0,52.04l-90.34,89.84l-90.19-89.7L49.44,95.37z"/>
	</g>
	<g>
		<path fill="#FFFFFF" d="M103.03,64.08h9.37v5.41H96.83V42.42h6.2V64.08z"/>
		<path fill="#FFFFFF" d="M135.29,62.24l2.64,5.25c0,0-3.04,2.49-8.94,2.49c-7.69,0-14.75-6.23-14.75-13.98
			c0-7.78,7.03-14.07,14.75-14.07c5.91,0,8.94,2.49,8.94,2.49l-2.64,5.25c0,0-2.18-1.67-5.34-1.67c-6.24,0-8.97,4.33-8.97,7.94
			c0,3.64,2.74,7.97,8.97,7.97C133.12,63.91,135.29,62.24,135.29,62.24z"/>
		<path fill="#FFFFFF" d="M160.13,62.24l2.64,5.25c0,0-3.04,2.49-8.94,2.49c-7.69,0-14.75-6.23-14.75-13.98
			c0-7.78,7.03-14.07,14.75-14.07c5.91,0,8.94,2.49,8.94,2.49l-2.64,5.25c0,0-2.18-1.67-5.34-1.67c-6.24,0-8.97,4.33-8.97,7.94
			c0,3.64,2.74,7.97,8.97,7.97C157.95,63.91,160.13,62.24,160.13,62.24z"/>
		<path fill="#FFFFFF" d="M183.61,44.49l-2.51,4.92c0,0-2.71-1.87-5.51-1.87c-2.11,0-3.23,0.95-3.23,2.43c0,1.51,2.57,2.59,5.67,3.9
			c3.03,1.28,6.37,3.84,6.37,7.38c0,6.46-4.95,8.73-10.26,8.73c-6.37,0-10.23-3.58-10.23-3.58l3.1-5.18c0,0,3.63,3.05,6.66,3.05
			c1.35,0,3.93-0.13,3.93-2.66c0-1.97-2.9-2.85-6.14-4.46c-3.27-1.61-5.18-4.13-5.18-6.96c0-5.05,4.49-8.27,8.87-8.27
			C180.12,41.93,183.61,44.49,183.61,44.49z"/>
	</g>
	<g>
		<path fill="#FFFFFF" d="M145.53,110.73c-1.35-0.55-2.7-1.1-4.25-1.73c0,0.88,0,1.6,0,2.92c-1.88-1.59-3.41-2.89-5.25-4.46
			c0.25,1.74,0.44,3.02,0.71,4.89c-1.6-1.79-2.85-3.19-4.34-4.85c-0.65,1.96-1.21,3.67-1.94,5.88c-0.65-1.79-1.14-3.13-1.76-4.85
			c-1.46,1.97-2.75,3.72-4.04,5.47c-0.16-0.06-0.32-0.12-0.47-0.18c0.45-1.85,0.91-3.71,1.47-5.99c-1.75,1.1-3.1,1.96-4.63,2.92
			c0.82-3.22,6.86-9.75,9.77-10.14c1.63-0.22,3.75,0.11,5.03,1.04c3.56,2.59,6.8,5.61,10.17,8.47
			C145.85,110.32,145.69,110.52,145.53,110.73z"/>
	</g>
	<g>
		<g>
			<path d="M77.54,123.26c2.46-1.2,4.92-2.4,7.38-3.61c5.03-2.48,8.42-6.78,12.05-10.82c0.86-0.95,1.75-1.88,2.72-2.72
				c3.14-2.72,6.08-2.85,9.17-0.12c3.2,2.83,6.39,5.71,9.19,8.91c3.59,4.1,6.94,8.36,12.33,10.35c-0.07,0.14-0.14,0.28-0.21,0.42
				c-2.85-0.4-5.71-0.81-8.56-1.2c-9.31-1.29-18.59-1.48-27.91,0.26C88.32,125.74,82.91,125.01,77.54,123.26z M114.65,112.63
				c0.12-0.16,0.25-0.33,0.37-0.49c-2.63-2.24-5.17-4.63-7.96-6.66c-1-0.73-2.66-0.99-3.94-0.82c-2.27,0.31-7,5.45-7.64,7.98
				c1.19-0.76,2.25-1.43,3.62-2.3c-0.44,1.8-0.79,3.25-1.15,4.71c0.12,0.05,0.25,0.09,0.37,0.14c1.01-1.38,2.02-2.75,3.16-4.3
				c0.49,1.36,0.87,2.41,1.38,3.82c0.57-1.74,1.01-3.08,1.51-4.63c1.16,1.31,2.14,2.41,3.39,3.82c-0.21-1.47-0.36-2.48-0.56-3.84
				c1.44,1.23,2.64,2.25,4.11,3.51c0-1.04,0-1.6,0-2.3C112.54,111.76,113.59,112.19,114.65,112.63z"/>
		</g>
	</g>
	<g>
		<path fill="#FFFFFF" d="M114.65,112.63c-1.06-0.43-2.11-0.87-3.32-1.36c0,0.7,0,1.26,0,2.3c-1.47-1.25-2.67-2.28-4.11-3.51
			c0.2,1.37,0.34,2.37,0.56,3.84c-1.25-1.41-2.23-2.51-3.39-3.82c-0.51,1.54-0.95,2.89-1.51,4.63c-0.51-1.41-0.89-2.46-1.38-3.82
			c-1.14,1.55-2.15,2.92-3.16,4.3c-0.12-0.05-0.25-0.09-0.37-0.14c0.35-1.46,0.71-2.91,1.15-4.71c-1.37,0.87-2.43,1.54-3.62,2.3
			c0.64-2.53,5.37-7.66,7.64-7.98c1.27-0.18,2.93,0.09,3.94,0.82c2.79,2.03,5.32,4.42,7.96,6.66
			C114.89,112.3,114.77,112.46,114.65,112.63z"/>
	</g>
	<g>
		<g>
			<path d="M182.71,116.44c-4.36-4.95-9.33-9.41-14.3-13.79c-4.81-4.23-9.38-4.02-14.27,0.18c-1.5,1.29-2.89,2.73-4.23,4.21
				c-1.01,1.12-2.02,2.25-3.02,3.38c-2.79-2.83-5.77-5.5-8.76-8.13c-3.95-3.48-7.71-3.31-11.73,0.15c-1.24,1.06-2.38,2.25-3.47,3.46
				c-4.65,5.13-8.98,10.6-15.41,13.75c-3.14,1.54-6.29,3.06-9.44,4.6c6.87,2.22,13.79,3.14,20.67,1.87
				c3.45-0.64,6.89-1.07,10.33-1.32c-3.13,1.53-6.27,3.05-9.4,4.58c8.35,2.7,16.78,3.83,25.15,2.27c14.5-2.69,28.93-2.4,43.42-0.4
				c4.44,0.61,8.88,1.24,13.32,1.86c0.11-0.22,0.22-0.43,0.33-0.65C193.51,129.39,188.3,122.78,182.71,116.44z M124.66,113.99
				c-0.16-0.06-0.32-0.12-0.47-0.18c0.45-1.85,0.91-3.71,1.47-5.99c-1.75,1.1-3.1,1.96-4.63,2.92c0.82-3.22,6.86-9.75,9.77-10.14
				c1.63-0.22,3.75,0.11,5.03,1.04c3.56,2.59,6.8,5.61,10.17,8.47c-0.16,0.21-0.31,0.42-0.47,0.63c-1.35-0.55-2.7-1.1-4.25-1.73
				c0,0.88,0,1.6,0,2.92c-1.88-1.59-3.41-2.89-5.25-4.46c0.25,1.74,0.44,3.02,0.71,4.89c-1.6-1.79-2.85-3.19-4.34-4.85
				c-0.65,1.96-1.21,3.67-1.94,5.88c-0.65-1.79-1.14-3.13-1.76-4.85C127.25,110.5,125.96,112.24,124.66,113.99z M177.42,112.92
				c-1.64-0.67-3.29-1.34-5.17-2.11c0,1.08,0,1.95,0,3.56c-2.28-1.94-4.15-3.52-6.39-5.43c0.31,2.11,0.54,3.67,0.87,5.95
				c-1.95-2.18-3.47-3.88-5.28-5.9c-0.79,2.39-1.47,4.47-2.36,7.16c-0.79-2.17-1.38-3.81-2.15-5.91c-1.65,2.23-3.13,4.23-4.59,6.21
				c-0.22-0.25-0.44-0.5-0.66-0.76c0.47-1.94,0.96-3.93,1.55-6.31c-1.72,1.08-3.12,1.97-4.58,2.89c-0.19-0.21-0.38-0.41-0.58-0.61
				c1.94-4.14,8.23-10.63,11.41-11.07c1.98-0.27,4.57,0.14,6.12,1.27c4.34,3.15,8.28,6.83,12.38,10.3
				C177.8,112.41,177.61,112.67,177.42,112.92z"/>
		</g>
	</g>
	<g>
		<path fill="#FEFEFE" d="M128.83,124.99c1.09-1.08,2.21-2.12,3.32-3.18l3.38-3.11c1.14-1.02,2.16-2.19,3.44-3.03
			c1.28-0.85,2.6-1.64,4.14-2.16l0.13,0.16c-0.84,1.39-1.9,2.51-3,3.58c-1.1,1.07-2.45,1.82-3.7,2.71l-3.76,2.63
			c-1.28,0.85-2.53,1.72-3.82,2.56L128.83,124.99z"/>
	</g>
	<g>
		<g>
			<path d="M76.94,135.26c3.59-3.64,8.22-5.11,13.13-5.98c-2.41,1.04-4.89,1.93-7.2,3.15c-4,2.12-4.58,5.58-1.56,9.09
				c3.3,3.84,7.81,5.77,12.58,6.75c10.21,2.1,20.5,3.82,30.76,5.7c1.38,0.25,2.76,0.51,4.06,1.29c-4.83-0.66-9.71-1.12-14.49-2.03
				c-7.45-1.42-14.87-2.99-22.23-4.81c-6.07-1.5-11.54-4.2-15.05-9.75C76.94,137.54,76.94,136.4,76.94,135.26z"/>
		</g>
		<g>
			<path d="M175.1,185.23c-13.67-0.93-27.18-2.43-40.01-7.29c-2.69-1.02-5.35-2.59-7.47-4.51c-3.21-2.92-2.57-6.47,1.19-8.63
				c1.8-1.04,3.76-1.81,5.67-2.66c0.87-0.39,1.9-0.51,2.63-1.06c1.3-0.97,2.43-2.17,3.63-3.28c-1.31-0.95-2.5-2.45-3.94-2.74
				c-7.26-1.47-14.57-2.67-21.88-3.88c-9-1.5-18.12-2.62-26.43-6.69c-1.97-0.97-3.85-2.48-5.24-4.18c-2.49-3.06-1.9-5.95,1.8-7.2
				c5.82-1.96,11.79-3.69,17.84-4.75c9.06-1.58,18.24-2.5,27.37-3.7c0.05,0.22,0.09,0.45,0.14,0.67c-2.34,0.81-4.73,1.51-7.02,2.47
				c-1.74,0.73-3.49,1.58-4.96,2.72c-3.25,2.51-2.95,5.23,0.95,6.41c5.44,1.65,11.02,2.89,16.6,4.01
				c10.15,2.03,20.38,3.71,30.52,5.83c2.92,0.61,5.77,1.97,8.37,3.47c3.47,2,3.58,5.58,0.2,7.78c-2.42,1.58-5.21,2.68-7.94,3.7
				c-3.83,1.42-7.76,2.56-11.63,3.85c-0.81,0.27-1.6,0.63-2.32,1.07c-4.8,2.91-5.24,6.19-0.42,8.98c5.38,3.12,11.35,5.22,17.1,7.7
				C171.54,184.09,173.34,184.61,175.1,185.23z M150.64,152.86c0.02,0.25,0.05,0.49,0.07,0.74c7.47,1.87,7.85,1.81,7.92-1.26
				c2.73-0.51,5.42-1.02,8.1-1.53c-0.03-0.38-0.07-0.75-0.1-1.13c-3.17-1.99-6.74-1.59-10.24-1.06c-2.73,0.41-2.94,1.21-1.32,3.22
				C153.64,152.17,152.14,152.51,150.64,152.86z"/>
		</g>
		<g>
			<path d="M171.05,186.74c-9.34,0.1-18.54-1.25-27.58-3.57c-4.87-1.25-9.72-2.66-14.43-4.41c-5.61-2.09-8.59-5.77-8.13-9.78
				c0.58-5.08,4.81-6.33,8.81-7.69c1.21-0.41,2.45-0.73,3.76-0.74c-2.19,1.1-4.45,2.07-6.55,3.31c-4.61,2.73-5.1,7.11-1.05,10.76
				c4.43,3.99,10.03,5.74,15.67,7.13c4.88,1.21,9.85,2.12,14.82,2.96C161.24,185.52,166.15,186.07,171.05,186.74z"/>
		</g>
	</g>
	<g>
		<path fill="#FFFFFF" d="M177.42,112.92c-1.64-0.67-3.29-1.34-5.17-2.11c0,1.08,0,1.95,0,3.56c-2.28-1.94-4.15-3.52-6.39-5.43
			c0.31,2.11,0.54,3.67,0.87,5.95c-1.95-2.18-3.47-3.88-5.28-5.9c-0.79,2.39-1.47,4.47-2.36,7.16c-0.79-2.17-1.38-3.81-2.15-5.91
			c-1.77,2.4-3.35,4.52-4.92,6.65c-0.19-0.07-0.38-0.15-0.58-0.22c0.55-2.25,1.1-4.51,1.79-7.29c-2.13,1.34-3.78,2.38-5.63,3.55
			c0.99-3.91,8.35-11.86,11.89-12.34c1.98-0.27,4.57,0.14,6.12,1.27c4.34,3.15,8.28,6.83,12.38,10.3
			C177.8,112.41,177.61,112.67,177.42,112.92z"/>
	</g>
	<g>
		<path fill="#0D0C0C" d="M303.19,198.72c-1.95,0.68-3.32,0.93-5.34,0.93c-6.89,0-11.08-4.99-11.08-12.96
			c0-7.93,4.19-12.88,11.08-12.88c2.06,0,3.43,0.18,5.27,0.83l1.59,0.54c0.22,0.07,0.32,0.25,0.25,0.47l-0.94,2.76
			c-0.07,0.22-0.25,0.32-0.47,0.25l-1.62-0.54c-1.26-0.43-2.35-0.57-4.08-0.61c-4.37,0-6.93,3.41-6.93,9.19
			c0,5.85,2.56,9.22,6.93,9.22c1.55,0,2.63-0.14,4.11-0.65l1.59-0.54c0.22-0.07,0.4,0.04,0.5,0.25l0.97,2.69
			c0.11,0.25,0,0.43-0.25,0.5L303.19,198.72z"/>
		<path fill="#0D0C0C" d="M329.75,198.87c0,0.25-0.14,0.39-0.4,0.39h-3.32c-0.25,0-0.4-0.14-0.4-0.39v-10.7h-11.58v10.7
			c0,0.25-0.14,0.39-0.4,0.39h-3.28c-0.25,0-0.4-0.14-0.4-0.39v-24.3c0-0.25,0.14-0.39,0.4-0.39h3.28c0.25,0,0.4,0.14,0.4,0.39
			v10.01h11.58v-10.01c0-0.25,0.14-0.39,0.4-0.39h3.32c0.25,0,0.4,0.14,0.4,0.39V198.87z"/>
		<path fill="#0D0C0C" d="M345.46,174.18c5.27,0,8.37,2.73,8.37,7.25c0,3.27-2.02,5.46-4.8,6.46c-0.47,0.22-0.47,0.4-0.04,0.65
			c1.7,0.9,2.71,2.51,3.46,4.16l2.56,6.1c0.11,0.29-0.04,0.47-0.33,0.47h-3.5c-0.22,0-0.36-0.11-0.47-0.29l-1.95-4.63
			c-1.33-3.23-3-4.88-6.78-4.88h-2.6v9.4c0,0.25-0.14,0.39-0.4,0.39h-3.28c-0.25,0-0.4-0.14-0.4-0.39v-24.3
			c0-0.25,0.14-0.39,0.4-0.39H345.46z M343.98,185.88c3.72,0,5.7-1.47,5.7-4.2c0-2.37-1.62-3.88-4.22-3.88h-6.06v8.08H343.98z"/>
		<path fill="#0D0C0C" d="M363.58,198.87c0,0.25-0.14,0.39-0.4,0.39h-3.28c-0.25,0-0.4-0.14-0.4-0.39v-24.3
			c0-0.25,0.14-0.39,0.4-0.39h3.28c0.25,0,0.4,0.14,0.4,0.39V198.87z"/>
		<path fill="#0D0C0C" d="M374.69,187.6c-4.44-1.65-6.03-3.52-6.03-7c0-4.31,3.32-6.78,8.52-6.78c1.98,0,3.86,0.32,5.63,0.9
			l2.09,0.68c0.25,0.11,0.36,0.29,0.25,0.5l-0.97,2.73c-0.11,0.21-0.29,0.32-0.5,0.25l-1.91-0.61c-1.52-0.47-2.96-0.75-4.58-0.75
			c-2.6,0-4.37,1.22-4.37,3.09c0,1.47,0.9,2.51,3.5,3.48l4.01,1.47c4.22,1.58,6.13,3.34,6.13,6.93c0,4.63-3.46,7.18-9.06,7.18
			c-2.45,0-4.44-0.36-6.96-1.22l-1.88-0.61c-0.25-0.11-0.36-0.29-0.25-0.5l0.94-2.76c0.11-0.22,0.29-0.32,0.51-0.22l1.98,0.65
			c1.91,0.61,3.61,0.93,5.67,0.93c2.67,0,4.91-1,4.91-3.45c0-1.58-1.55-2.62-3.57-3.37L374.69,187.6z"/>
		<path fill="#0D0C0C" d="M409.23,177.41c0,0.25-0.14,0.39-0.4,0.39h-7.69v21.07c0,0.25-0.14,0.39-0.4,0.39h-3.32
			c-0.25,0-0.4-0.14-0.4-0.39V177.8h-7.65c-0.25,0-0.4-0.14-0.4-0.39v-2.83c0-0.25,0.14-0.39,0.4-0.39h19.45
			c0.25,0,0.4,0.14,0.4,0.39V177.41z"/>
		<path fill="#0D0C0C" d="M417.5,198.87c0,0.25-0.14,0.39-0.4,0.39h-3.28c-0.25,0-0.4-0.14-0.4-0.39v-24.3
			c0-0.25,0.14-0.39,0.4-0.39h3.28c0.25,0,0.4,0.14,0.4,0.39V198.87z"/>
		<path fill="#0D0C0C" d="M427.64,194.45l-1.77,4.49c-0.07,0.22-0.22,0.32-0.43,0.32h-3.46c-0.33,0-0.43-0.18-0.33-0.47l6.21-15.75
			c1.08-2.87,2.06-5.71,2.78-8.51c0.04-0.25,0.18-0.36,0.43-0.36h4.44c0.25,0,0.4,0.11,0.43,0.32c0.76,2.83,1.73,5.67,2.81,8.54
			l6.21,15.75c0.11,0.29,0,0.47-0.33,0.47h-3.46c-0.22,0-0.36-0.11-0.43-0.32l-1.77-4.49H427.64z M437.56,190.83l-1.91-4.7
			c-0.83-2.22-1.7-4.84-2.06-6.64c-0.11-0.39-0.51-0.39-0.58,0c-0.36,1.79-1.23,4.38-2.09,6.64l-1.88,4.7H437.56z"/>
		<path fill="#0D0C0C" d="M469.47,198.87c0,0.25-0.14,0.39-0.4,0.39h-4.33c-0.22,0-0.36-0.11-0.47-0.29
			c-0.51-1.22-1.23-2.58-1.88-3.7l-7.72-12.67c-0.47-0.83-0.9-1.65-1.26-2.4c-0.22-0.4-0.58-0.25-0.51,0.14
			c0.22,1.62,0.33,3.05,0.33,4.99v13.53c0,0.25-0.14,0.39-0.4,0.39h-3.32c-0.25,0-0.4-0.14-0.4-0.39v-24.3
			c0-0.25,0.14-0.39,0.4-0.39h4.33c0.22,0,0.36,0.11,0.47,0.29c0.54,1.22,1.26,2.58,1.91,3.7l7.72,12.67
			c0.47,0.86,0.9,1.69,1.26,2.4c0.18,0.47,0.54,0.29,0.47-0.14c-0.25-1.58-0.29-3.01-0.29-4.92v-13.6c0-0.25,0.14-0.39,0.4-0.39
			h3.28c0.25,0,0.4,0.14,0.4,0.39V198.87z"/>
		<path fill="#0D0C0C" d="M488.09,187.6c-4.44-1.65-6.03-3.52-6.03-7c0-4.31,3.32-6.78,8.52-6.78c1.98,0,3.86,0.32,5.63,0.9
			l2.09,0.68c0.25,0.11,0.36,0.29,0.25,0.5l-0.97,2.73c-0.11,0.21-0.29,0.32-0.51,0.25l-1.91-0.61c-1.52-0.47-2.96-0.75-4.58-0.75
			c-2.6,0-4.37,1.22-4.37,3.09c0,1.47,0.9,2.51,3.5,3.48l4.01,1.47c4.22,1.58,6.13,3.34,6.13,6.93c0,4.63-3.46,7.18-9.06,7.18
			c-2.45,0-4.44-0.36-6.96-1.22l-1.88-0.61c-0.25-0.11-0.36-0.29-0.25-0.5l0.94-2.76c0.11-0.22,0.29-0.32,0.51-0.22l1.98,0.65
			c1.91,0.61,3.61,0.93,5.67,0.93c2.67,0,4.91-1,4.91-3.45c0-1.58-1.55-2.62-3.57-3.37L488.09,187.6z"/>
		<path fill="#0D0C0C" d="M519.85,198.72c-1.95,0.68-3.32,0.93-5.34,0.93c-6.89,0-11.08-4.99-11.08-12.96
			c0-7.93,4.19-12.88,11.08-12.88c2.06,0,3.43,0.18,5.27,0.83l1.59,0.54c0.22,0.07,0.33,0.25,0.25,0.47l-0.94,2.76
			c-0.07,0.22-0.25,0.32-0.47,0.25l-1.62-0.54c-1.26-0.43-2.35-0.57-4.08-0.61c-4.37,0-6.93,3.41-6.93,9.19
			c0,5.85,2.56,9.22,6.93,9.22c1.55,0,2.63-0.14,4.11-0.65l1.59-0.54c0.22-0.07,0.4,0.04,0.5,0.25l0.97,2.69
			c0.11,0.25,0,0.43-0.25,0.5L519.85,198.72z"/>
		<path fill="#0D0C0C" d="M546.42,198.87c0,0.25-0.14,0.39-0.4,0.39h-3.32c-0.25,0-0.4-0.14-0.4-0.39v-10.7h-11.58v10.7
			c0,0.25-0.14,0.39-0.4,0.39h-3.28c-0.25,0-0.4-0.14-0.4-0.39v-24.3c0-0.25,0.14-0.39,0.4-0.39h3.28c0.25,0,0.4,0.14,0.4,0.39
			v10.01h11.58v-10.01c0-0.25,0.14-0.39,0.4-0.39h3.32c0.25,0,0.4,0.14,0.4,0.39V198.87z"/>
		<path fill="#0D0C0C" d="M572.98,186.7c0,7.97-4.19,12.96-10.97,12.96c-6.82,0-10.97-4.99-10.97-12.96
			c0-7.93,4.15-12.88,10.97-12.88C568.79,173.82,572.98,178.77,572.98,186.7z M555.19,186.7c0,5.74,2.53,9.22,6.82,9.22
			c4.26,0,6.79-3.48,6.79-9.22c0-5.78-2.53-9.19-6.79-9.19C557.72,177.51,555.19,180.92,555.19,186.7z"/>
		<path fill="#0D0C0C" d="M598.57,186.7c0,7.97-4.19,12.96-10.97,12.96c-6.82,0-10.97-4.99-10.97-12.96
			c0-7.93,4.15-12.88,10.97-12.88C594.38,173.82,598.57,178.77,598.57,186.7z M580.78,186.7c0,5.74,2.53,9.22,6.82,9.22
			c4.26,0,6.79-3.48,6.79-9.22c0-5.78-2.53-9.19-6.79-9.19C583.3,177.51,580.78,180.92,580.78,186.7z"/>
		<path fill="#0D0C0C" d="M618.67,195.64c0.25,0,0.4,0.14,0.4,0.4v2.83c0,0.25-0.14,0.39-0.4,0.39h-15.12c-0.25,0-0.4-0.14-0.4-0.39
			v-24.3c0-0.25,0.14-0.39,0.4-0.39h3.28c0.25,0,0.4,0.14,0.4,0.39v21.07H618.67z"/>
	</g>
	<g>
		<g>
			<path fill="#0D0C0C" d="M121.63,294.29c-2.17-0.33-4.33-0.87-6.51-0.96c-18.87-0.8-37.5-3.51-55.99-7.13
				c-8.74-1.71-17.28-4.39-26.22-6.71c0.4-1.17,0.56-2.06,0.98-2.83c5.32-9.8,10.72-19.57,15.98-29.4c1.13-2.12,2.24-2.51,4.68-1.98
				c8.05,1.77,16.17,3.24,24.32,4.52c17.37,2.74,34.84,4.25,52.44,4.27c18.28,0.02,36.52-0.61,54.61-3.41
				c11.59-1.79,23.13-3.94,34.66-6.1c7-1.31,6.93-1.43,10.47,4.92c4.7,8.42,9.48,16.79,14.21,25.2c0.39,0.69,0.66,1.45,1.21,2.69
				c-5.62,1.6-11.01,3.19-16.44,4.68c-21.94,6.01-44.33,9.25-66.98,10.94c-1.71,0.13-3.4,0.63-5.1,0.95
				C145.84,294.06,133.74,294.17,121.63,294.29z"/>
		</g>
		<g>
			<path fill="#0D0C0C" d="M25.93,216.96c3.53,1.81,6.93,4,10.63,5.34c10.35,3.73,20.84,7.11,31.74,10.79
				c-0.83,0.6-1.57,1.37-2.47,1.76c-4.37,1.9-8.84,3.58-13.14,5.62c-1.43,0.68-2.79,2.02-3.6,3.4c-3.56,6.13-6.83,12.43-10.41,18.54
				c-0.54,0.93-2.34,1.92-3.27,1.69c-11.92-2.87-23.47-6.71-33.33-14.38c-0.36-0.28-0.79-0.48-2.07-1.25
				c2.15-0.9,3.38-1.69,4.7-1.92c6.18-1.09,12.38-2.15,18.6-2.95c2.67-0.34,3.72-1.51,3.53-4.06c-0.47-6.25-0.93-12.5-1.39-18.76
				c-0.09-1.27-0.14-2.54-0.21-3.81C25.46,216.96,25.69,216.96,25.93,216.96z"/>
		</g>
		<g>
			<path fill="#0D0C0C" d="M210.65,232.22c14.04-5.26,27.74-10.38,41.8-15.65c-0.14,2.01-0.31,4.14-0.44,6.27
				c-0.27,4.51-0.43,9.03-0.81,13.53c-0.25,2.94,0.99,4.2,3.81,4.59c6.79,0.94,13.55,2.05,20.32,3.1c0.76,0.12,1.51,0.35,3.21,0.76
				c-2.68,2.21-4.66,4.09-6.88,5.63c-8.33,5.76-17.75,9.02-27.4,11.73c-2.01,0.56-3.2-0.19-4.22-2c-3.14-5.56-6.22-11.18-9.79-16.47
				c-1.51-2.23-3.96-4.1-6.37-5.39c-3.66-1.97-7.68-3.28-11.52-4.92C211.69,233.12,211.14,232.57,210.65,232.22z"/>
		</g>
		<g>
			<path fill="#0D0C0C" d="M222.62,241.4c-3.45,0.82-6.88,1.71-10.35,2.36c-0.58,0.11-1.67-0.7-2.01-1.35
				c-1.32-2.55-2.44-5.21-3.05-8.52c5.19,2.16,10.37,4.33,15.56,6.49C222.72,240.73,222.67,241.07,222.62,241.4z"/>
		</g>
		<g>
			<path fill="#0D0C0C" d="M55.74,242.13c4.78-2.25,9.55-4.51,14.33-6.76c0.34,0.29,0.68,0.57,1.02,0.86
				c-1.1,2.81-2.16,5.63-3.36,8.4c-0.15,0.34-1.03,0.6-1.51,0.52c-3.46-0.65-6.91-1.4-10.36-2.12
				C55.82,242.73,55.78,242.43,55.74,242.13z"/>
		</g>
	</g>
	<g>
		<g>
			<path fill="#FFFFFF" d="M63.55,257.11c2.7,0.77,4.02,2.47,3.45,4.6c-0.42,1.57-1.59,2.22-2.6,2.33c-0.28,0-0.35,0.17-0.09,0.32
				c1.02,0.63,1.96,1.91,1.47,3.75c-0.6,2.26-2.71,3.13-5.67,2.29c-2.31-0.66-3.47-1-5.77-1.7c-0.14-0.04-0.2-0.14-0.16-0.27
				c1.56-5.08,2.35-7.62,3.91-12.71c0.04-0.13,0.14-0.18,0.28-0.14C60.44,256.21,61.48,256.52,63.55,257.11z M58.7,261.63
				c1.09,0.32,1.63,0.48,2.72,0.8c1.81,0.52,2.94,0.07,3.27-1.12c0.29-1.04-0.35-1.91-1.68-2.29c-1.3-0.37-1.95-0.56-3.25-0.95
				C59.34,259.49,59.13,260.2,58.7,261.63z M56.97,267.42c1.46,0.44,2.2,0.65,3.66,1.07c1.47,0.42,2.55-0.02,2.87-1.2
				c0.38-1.38-0.44-2.36-2.47-2.94c-1.16-0.33-1.74-0.5-2.9-0.85C57.67,265.07,57.44,265.86,56.97,267.42z"/>
			<path fill="#FFFFFF" d="M74.31,273.03c-0.07-0.26-0.2-0.27-0.47-0.13c-0.99,0.66-2.1,0.74-3.1,0.5c-2.33-0.57-3.4-2.28-2.82-4.53
				c0.58-2.24,0.86-3.37,1.44-5.61c0.03-0.13,0.13-0.19,0.27-0.15c0.7,0.18,1.05,0.27,1.76,0.44c0.14,0.03,0.2,0.13,0.17,0.26
				c-0.54,2.16-0.8,3.24-1.34,5.39c-0.3,1.2,0.19,2.09,1.29,2.36c1.5,0.36,2.62-0.47,3.05-2.33c0.41-1.78,0.62-2.67,1.03-4.46
				c0.03-0.13,0.13-0.19,0.27-0.16c0.71,0.16,1.06,0.24,1.76,0.4c0.14,0.03,0.2,0.13,0.17,0.26c-0.79,3.55-1.19,5.32-1.98,8.87
				c-0.03,0.13-0.13,0.19-0.27,0.16c-0.41-0.09-0.62-0.14-1.03-0.23c-0.14-0.03-0.21-0.11-0.2-0.25
				C74.32,273.52,74.32,273.36,74.31,273.03z"/>
			<path fill="#FFFFFF" d="M81.58,275.38c-0.03,0.14-0.13,0.2-0.27,0.17c-0.73-0.15-1.1-0.22-1.83-0.38
				c-0.14-0.03-0.21-0.12-0.18-0.26c0.61-2.88,0.91-4.32,1.52-7.21c-0.39-0.08-0.59-0.12-0.98-0.21c-0.14-0.03-0.2-0.12-0.17-0.26
				c0.13-0.59,0.19-0.89,0.32-1.48c0.03-0.14,0.12-0.19,0.26-0.16c1.18,0.25,1.78,0.38,2.96,0.62c0.14,0.03,0.2,0.12,0.18,0.26
				C82.66,270.04,82.3,271.82,81.58,275.38z M84.07,262.93c-0.17,0.83-0.74,1.21-1.57,1.04c-0.83-0.17-1.22-0.76-1.04-1.58
				c0.17-0.81,0.76-1.18,1.58-1.01C83.86,261.54,84.23,262.12,84.07,262.93z"/>
			<path fill="#FFFFFF" d="M87,274.31c-0.06,0.33,0.05,0.55,0.31,0.6c0.06,0.01,0.1,0.02,0.14,0.03c0.15,0.01,0.23,0.02,0.27,0.17
				c0.15,0.59,0.22,0.89,0.37,1.48c0.04,0.15-0.02,0.24-0.16,0.27c-0.31,0.06-0.67,0.06-0.98,0c-1.69-0.31-2.53-1.41-2.23-2.97
				c0.87-4.54,1.31-6.82,2.18-11.36c0.03-0.13,0.12-0.2,0.26-0.17c0.7,0.13,1.05,0.2,1.75,0.33c0.14,0.03,0.2,0.12,0.18,0.25
				C88.25,267.48,87.83,269.76,87,274.31z"/>
			<path fill="#FFFFFF" d="M98.77,278.31c-0.02,0.14-0.11,0.2-0.26,0.18c-0.42-0.06-0.62-0.09-1.04-0.15
				c-0.15-0.02-0.22-0.09-0.22-0.21c-0.04-0.34-0.07-0.51-0.11-0.85c-0.04-0.18-0.18-0.24-0.41-0.06c-0.86,0.67-1.92,0.95-3.06,0.77
				c-2.72-0.43-4.02-2.61-3.5-5.63c0.52-3.02,2.52-4.58,5.32-4.14c0.68,0.11,1.21,0.27,1.73,0.6c0.22,0.14,0.33,0.2,0.54,0.34
				c0.28-1.87,0.41-2.81,0.69-4.68c0.02-0.14,0.11-0.2,0.25-0.18c0.7,0.1,1.05,0.15,1.76,0.25c0.14,0.02,0.21,0.11,0.19,0.24
				C99.89,270.2,99.52,272.9,98.77,278.31z M96.93,270.77c-0.45-0.29-0.98-0.49-1.6-0.58c-1.53-0.24-2.63,0.72-2.92,2.56
				c-0.29,1.83,0.42,3.12,1.94,3.35c1.54,0.24,2.55-0.87,2.79-2.5c0.15-0.99,0.22-1.48,0.36-2.47
				C97.27,270.98,97.16,270.91,96.93,270.77z"/>
			<path fill="#FFFFFF" d="M104.58,279.06c-0.02,0.14-0.11,0.2-0.25,0.19c-0.74-0.09-1.11-0.13-1.85-0.23
				c-0.15-0.02-0.22-0.11-0.2-0.24c0.37-2.92,0.55-4.38,0.92-7.31c-0.4-0.05-0.59-0.08-0.99-0.13c-0.14-0.02-0.21-0.11-0.19-0.24
				c0.08-0.6,0.12-0.9,0.2-1.5c0.02-0.14,0.11-0.2,0.25-0.19c1.2,0.16,1.8,0.23,2.99,0.37c0.14,0.02,0.21,0.1,0.2,0.24
				C105.22,273.64,105.01,275.45,104.58,279.06z M106.05,266.44c-0.1,0.84-0.64,1.27-1.47,1.17s-1.27-0.65-1.17-1.49
				c0.1-0.82,0.66-1.24,1.49-1.14C105.73,265.08,106.15,265.62,106.05,266.44z"/>
			<path fill="#FFFFFF" d="M109.92,271.27c0.1,0.25,0.22,0.24,0.46,0.07c0.87-0.78,1.91-1.02,2.9-0.93c2.3,0.21,3.58,1.7,3.4,4.01
				c-0.18,2.31-0.27,3.47-0.44,5.78c-0.01,0.14-0.1,0.21-0.25,0.2c-0.74-0.06-1.11-0.09-1.86-0.15c-0.15-0.01-0.22-0.1-0.21-0.23
				c0.19-2.22,0.28-3.32,0.47-5.54c0.1-1.23-0.5-2.03-1.6-2.13c-1.5-0.14-2.48,0.83-2.67,2.72c-0.18,1.82-0.27,2.73-0.45,4.55
				c-0.01,0.14-0.1,0.21-0.25,0.19c-0.74-0.07-1.11-0.11-1.85-0.19c-0.15-0.02-0.22-0.1-0.21-0.24c0.39-3.62,0.59-5.42,0.98-9.04
				c0.01-0.14,0.1-0.21,0.24-0.19c0.4,0.04,0.6,0.06,1.01,0.11c0.14,0.01,0.22,0.08,0.22,0.22
				C109.86,270.79,109.88,270.95,109.92,271.27z"/>
			<path fill="#FFFFFF" d="M120.84,282.97c0.43,0.14,1.19,0.29,1.8,0.32c1.45,0.08,2.81-0.39,3.25-1.95
				c0.1-0.86,0.13-0.81,0.16-1.21c0.01-0.13-0.09-0.24-0.29-0.07c-0.72,0.68-1.74,1.06-2.93,1c-2.76-0.15-4.3-2.19-4.09-5.19
				c0.22-3.15,2.1-4.87,5.04-4.71c0.83,0.04,1.69,0.22,2.46,0.57c0.71,0.32,1.06,0.48,1.77,0.8c0.12,0.04,0.18,0.12,0.17,0.24
				c-0.12,3.29-0.17,4.93-0.29,8.22c-0.1,2.9-2.01,4.44-5.25,4.27c-0.79-0.04-1.71-0.19-2.3-0.39c-0.41-0.14-0.61-0.2-1.02-0.34
				c-0.15-0.05-0.2-0.15-0.15-0.29c0.23-0.57,0.35-0.85,0.58-1.42c0.05-0.12,0.16-0.17,0.28-0.12
				C120.36,282.81,120.52,282.86,120.84,282.97z M125.29,273.53c-0.44-0.24-1.04-0.38-1.63-0.41c-1.56-0.08-2.55,0.96-2.66,2.84
				c-0.11,1.78,0.67,3.05,2.2,3.13c1.58,0.08,2.5-0.96,2.58-2.85c0.04-0.97,0.06-1.45,0.11-2.41
				C125.64,273.71,125.52,273.65,125.29,273.53z"/>
			<path fill="#FFFFFF" d="M144.09,280.88c-1.12,0.4-1.91,0.55-3.09,0.56c-4,0.04-6.39-2.73-6.34-7.09c0.05-4.34,2.39-7,6.19-7.05
				c1.13-0.01,1.89,0.07,2.91,0.41c0.35,0.11,0.53,0.17,0.88,0.28c0.12,0.04,0.18,0.13,0.15,0.25c-0.19,0.61-0.29,0.91-0.48,1.52
				c-0.04,0.12-0.14,0.18-0.26,0.14c-0.36-0.11-0.55-0.17-0.91-0.28c-0.71-0.22-1.32-0.3-2.27-0.3c-2.4,0-3.85,1.88-3.86,5.04
				c-0.01,3.2,1.46,5.06,3.97,5.03c0.89-0.01,1.52-0.1,2.36-0.39c0.36-0.12,0.54-0.19,0.91-0.31c0.12-0.04,0.23,0.01,0.29,0.13
				c0.24,0.58,0.36,0.88,0.6,1.46c0.07,0.14,0.01,0.24-0.14,0.28C144.63,280.69,144.45,280.75,144.09,280.88z"/>
			<path fill="#FFFFFF" d="M149.66,269.99c0.04,0.94-0.03,1.57-0.23,2.25c-0.07,0.22,0.06,0.35,0.29,0.16
				c0.66-0.75,1.51-1.21,2.66-1.27c2.3-0.12,3.78,1.17,3.93,3.49c0.15,2.31,0.23,3.47,0.38,5.78c0.01,0.14-0.07,0.22-0.22,0.23
				c-0.74,0.05-1.11,0.07-1.86,0.11c-0.15,0.01-0.23-0.06-0.24-0.2c-0.13-2.22-0.19-3.33-0.32-5.55c-0.07-1.25-0.78-1.94-1.88-1.88
				c-1.65,0.08-2.3,1.37-2.25,3.07c0.08,1.83,0.12,2.74,0.19,4.57c0.01,0.14-0.07,0.22-0.22,0.23c-0.74,0.03-1.12,0.05-1.86,0.07
				c-0.15,0.01-0.23-0.07-0.24-0.21c-0.19-5.46-0.28-8.18-0.47-13.64c0-0.14,0.07-0.22,0.21-0.22c0.71-0.02,1.06-0.04,1.77-0.07
				c0.14-0.01,0.22,0.07,0.23,0.21C149.59,268.27,149.61,268.85,149.66,269.99z"/>
			<path fill="#FFFFFF" d="M159.92,270.94c0.67-0.25,1.35-0.41,2.17-0.48c2.72-0.24,4.53,0.95,4.78,3.31
				c0.24,2.29,0.36,3.43,0.6,5.72c0.01,0.14-0.06,0.22-0.21,0.24c-0.42,0.04-0.62,0.06-1.04,0.11c-0.15,0.01-0.23-0.04-0.29-0.15
				c-0.09-0.24-0.14-0.35-0.23-0.59c-0.15-0.26-0.28-0.25-0.52,0.01c-0.58,0.73-1.48,1.19-2.76,1.3c-2.32,0.2-3.69-0.83-3.83-2.67
				c-0.13-1.84,1.09-3.11,3.5-3.31c1.02-0.09,1.53-0.13,2.55-0.23c0-0.05-0.01-0.07-0.01-0.12c-0.11-1.19-0.97-1.76-2.47-1.63
				c-0.59,0.05-1.09,0.15-1.57,0.33c-0.29,0.11-0.43,0.16-0.71,0.27c-0.14,0.05-0.25,0-0.3-0.13c-0.22-0.57-0.34-0.85-0.56-1.41
				c-0.05-0.13,0-0.24,0.14-0.29C159.47,271.1,159.62,271.05,159.92,270.94z M162.24,276.13c-1.01,0.09-1.44,0.57-1.39,1.24
				c0.06,0.76,0.66,1.19,1.65,1.1c1.64-0.14,2.45-0.99,2.32-2.44c-0.01-0.05-0.01-0.08-0.01-0.14
				C163.78,275.99,163.27,276.04,162.24,276.13z"/>
			<path fill="#FFFFFF" d="M174.87,270.8c0.02,0.14-0.05,0.23-0.19,0.24c-2.19,0.39-2.98,1.98-2.55,5.57
				c0.11,0.93,0.17,1.39,0.28,2.32c0.02,0.14-0.06,0.22-0.2,0.24c-0.74,0.09-1.11,0.13-1.85,0.22c-0.15,0.02-0.24-0.05-0.25-0.19
				c-0.41-3.61-0.61-5.42-1.02-9.03c-0.02-0.14,0.06-0.22,0.2-0.24c0.4-0.05,0.6-0.07,1.01-0.12c0.14-0.02,0.23,0.03,0.28,0.14
				c0.18,0.43,0.27,0.64,0.46,1.07c0.15,0.2,0.25,0.23,0.41,0.01c0.68-1.11,1.54-1.73,2.98-1.94c0.14-0.02,0.23,0.05,0.25,0.18
				C174.75,269.89,174.79,270.19,174.87,270.8z"/>
			<path fill="#FFFFFF" d="M177.75,268.93c0.65-0.29,1.32-0.49,2.14-0.62c2.7-0.42,4.59,0.65,4.99,2.99
				c0.39,2.27,0.58,3.4,0.97,5.67c0.02,0.14-0.05,0.23-0.19,0.25c-0.41,0.07-0.62,0.1-1.03,0.17c-0.14,0.02-0.24-0.02-0.3-0.13
				c-0.11-0.23-0.16-0.34-0.26-0.57c-0.17-0.25-0.29-0.23-0.52,0.05c-0.53,0.76-1.41,1.28-2.67,1.47c-2.3,0.35-3.75-0.59-4-2.41
				c-0.25-1.83,0.89-3.17,3.28-3.54c1.02-0.15,1.52-0.23,2.54-0.4c-0.01-0.05-0.01-0.07-0.02-0.12c-0.19-1.18-1.08-1.69-2.57-1.46
				c-0.58,0.09-1.08,0.22-1.54,0.43c-0.28,0.13-0.42,0.19-0.7,0.32c-0.14,0.06-0.25,0.02-0.31-0.11c-0.26-0.55-0.39-0.83-0.65-1.38
				c-0.06-0.13-0.01-0.24,0.12-0.3C177.31,269.13,177.45,269.06,177.75,268.93z M180.4,273.96c-1,0.15-1.41,0.67-1.31,1.33
				c0.11,0.76,0.74,1.14,1.73,0.99c1.63-0.25,2.39-1.15,2.16-2.59c-0.01-0.05-0.01-0.08-0.02-0.14
				C181.93,273.72,181.42,273.8,180.4,273.96z"/>
			<path fill="#FFFFFF" d="M194.81,275.48c-0.59,0.28-1.23,0.51-1.87,0.63c-3.16,0.62-5.23-0.98-5.77-3.99
				c-0.53-3,0.79-5.15,3.92-5.77c0.52-0.1,1.11-0.16,1.76-0.11c0.36,0.02,0.54,0.03,0.9,0.06c0.15,0.01,0.23,0.09,0.22,0.24
				c-0.06,0.61-0.1,0.92-0.16,1.54c-0.02,0.12-0.1,0.2-0.23,0.19c-0.29-0.01-0.43-0.02-0.72-0.03c-0.53-0.05-1.03-0.02-1.39,0.06
				c-1.78,0.35-2.4,1.6-2.06,3.41c0.35,1.87,1.44,2.81,3.18,2.47c0.43-0.08,0.99-0.28,1.47-0.51c0.25-0.13,0.38-0.2,0.64-0.33
				c0.14-0.07,0.25-0.03,0.31,0.08c0.31,0.54,0.46,0.81,0.77,1.35c0.07,0.13,0.03,0.23-0.11,0.3
				C195.32,275.22,195.15,275.31,194.81,275.48z"/>
			<path fill="#FFFFFF" d="M201.33,264.34c0.14-0.03,0.24,0.02,0.27,0.16c0.14,0.59,0.21,0.88,0.35,1.47
				c0.03,0.13-0.03,0.23-0.17,0.26c-0.89,0.21-1.34,0.31-2.24,0.52c0.42,1.86,0.63,2.79,1.06,4.65c0.15,0.65,0.54,0.95,1.03,0.83
				c0.18-0.04,0.37-0.1,0.51-0.2c0.13-0.09,0.24-0.09,0.33,0.02c0.38,0.46,0.57,0.69,0.96,1.15c0.09,0.1,0.07,0.21-0.03,0.31
				c-0.32,0.28-0.83,0.54-1.32,0.65c-1.95,0.45-3.32-0.4-3.73-2.26c-0.41-1.86-0.61-2.8-1.02-4.66c-0.39,0.09-0.59,0.13-0.98,0.21
				c-0.14,0.03-0.24-0.03-0.27-0.16c-0.13-0.59-0.19-0.89-0.32-1.48c-0.03-0.14,0.03-0.23,0.17-0.26c0.39-0.08,0.58-0.13,0.97-0.21
				c-0.19-0.88-0.29-1.32-0.48-2.21c-0.03-0.11,0.02-0.2,0.13-0.27c0.65-0.38,0.97-0.58,1.62-0.96c0.15-0.07,0.26-0.04,0.29,0.12
				c0.26,1.13,0.39,1.7,0.64,2.83C200,264.65,200.45,264.55,201.33,264.34z"/>
			<path fill="#FFFFFF" d="M212.19,271.38c-0.69,0.37-1.36,0.63-2.01,0.8c-3.08,0.81-5.28-0.65-6-3.61
				c-0.72-2.98,0.53-5.23,3.41-5.98c2.36-0.62,4.11,0.12,4.63,1.99c0.4,1.46-0.3,2.56-2.24,3.37c-1.21,0.52-1.82,0.77-3.04,1.27
				c0.48,0.95,1.45,1.38,2.73,1.04c0.57-0.15,1.16-0.37,1.55-0.61c0.33-0.18,0.5-0.27,0.83-0.45c0.13-0.08,0.25-0.05,0.32,0.07
				c0.32,0.52,0.48,0.79,0.79,1.31c0.08,0.12,0.04,0.23-0.09,0.31C212.72,271.09,212.54,271.18,212.19,271.38z M209.2,266.4
				c0.67-0.3,0.97-0.7,0.84-1.2c-0.2-0.76-0.92-0.99-1.99-0.71c-1.31,0.34-2.01,1.35-1.73,3.14
				C207.47,267.15,208.05,266.9,209.2,266.4z"/>
			<path fill="#FFFFFF" d="M219.51,261.01c0.04,0.13-0.02,0.23-0.15,0.27c-2.11,0.75-2.64,2.45-1.62,5.92
				c0.26,0.9,0.4,1.35,0.66,2.24c0.04,0.13-0.02,0.23-0.16,0.27c-0.72,0.21-1.08,0.32-1.81,0.52c-0.14,0.04-0.24-0.01-0.28-0.14
				c-1-3.5-1.5-5.25-2.49-8.74c-0.04-0.13,0.02-0.23,0.16-0.27c0.39-0.11,0.59-0.17,0.98-0.28c0.14-0.04,0.23-0.01,0.3,0.1
				c0.25,0.39,0.38,0.59,0.63,0.98c0.18,0.17,0.29,0.18,0.41-0.06c0.5-1.21,1.25-1.97,2.65-2.42c0.13-0.04,0.24,0.01,0.28,0.14
				C219.24,260.13,219.33,260.42,219.51,261.01z"/>
		</g>
	</g>
	<g>
		<rect x="280.99" y="143.36" width="384.79" height="2.5"/>
	</g>
	<g>
		<path fill="#0D0C0C" d="M287.78,115.94c-1.5,0-2.67-0.28-3.52-0.84c-0.85-0.56-1.27-1.67-1.27-3.33V75.3
			c0.03-1.08,0.42-1.91,1.17-2.47c0.75-0.56,1.59-0.85,2.52-0.89c0.93-0.03,1.8,0.22,2.62,0.74c0.81,0.53,1.31,1.33,1.47,2.42v33.36
			h19.12c0.83,0.03,1.51,0.24,2.05,0.62c0.53,0.38,0.92,0.86,1.17,1.44c0.25,0.57,0.35,1.19,0.3,1.84
			c-0.05,0.65-0.22,1.25-0.52,1.79c-0.3,0.54-0.72,0.98-1.27,1.32c-0.55,0.33-1.22,0.47-2.02,0.41l0.3,0.05H287.78z"/>
		<path fill="#0D0C0C" d="M330.21,115.9c-2.43,0-4.64-0.46-6.64-1.39c-2-0.93-3.7-2.18-5.12-3.76c-1.41-1.58-2.5-3.43-3.27-5.55
			c-0.77-2.12-1.15-4.36-1.15-6.73c0-2.14,0.33-4.23,1-6.27c0.67-2.04,1.66-3.86,2.97-5.46c1.31-1.6,2.95-2.88,4.92-3.85
			c1.96-0.97,4.26-1.46,6.89-1.46c2.8,0,5.22,0.54,7.29,1.63c2.06,1.09,3.77,2.5,5.12,4.24c1.35,1.74,2.33,3.72,2.95,5.94
			c0.62,2.22,0.87,4.44,0.77,6.68c-0.1,2.07-0.51,4.07-1.22,5.98s-1.72,3.61-3.02,5.1s-2.9,2.67-4.82,3.57
			C334.96,115.45,332.74,115.9,330.21,115.9z M330.26,108.86c1.33,0,2.49-0.25,3.47-0.77c0.98-0.51,1.8-1.2,2.47-2.06
			c0.67-0.86,1.17-1.84,1.52-2.94s0.54-2.24,0.57-3.42c0.03-1.34-0.12-2.67-0.45-4c-0.33-1.32-0.86-2.51-1.57-3.57
			c-0.72-1.05-1.62-1.91-2.72-2.56c-1.1-0.65-2.36-0.98-3.79-0.98c-1.33,0-2.5,0.33-3.52,0.98c-1.02,0.65-1.86,1.49-2.55,2.51
			c-0.68,1.02-1.19,2.18-1.52,3.47c-0.33,1.29-0.47,2.56-0.4,3.81c0.03,1.18,0.25,2.34,0.65,3.47c0.4,1.13,0.96,2.15,1.67,3.04
			c0.71,0.89,1.59,1.62,2.62,2.18C327.75,108.58,328.93,108.86,330.26,108.86z"/>
		<path fill="#0D0C0C" d="M364.65,97.9v14.7c0,1.15-0.38,2-1.15,2.56c-0.77,0.56-1.6,0.84-2.5,0.84s-1.74-0.29-2.52-0.86
			c-0.78-0.57-1.21-1.42-1.27-2.54c0-1.63,0.01-3.14,0.03-4.55c0.02-1.4,0.02-2.73,0.02-3.97c0-1.12-0.01-2.17-0.02-3.16
			c-0.02-0.99-0.03-1.99-0.03-3.02h-2.1c-1.23,0-2.13-0.36-2.7-1.08c-0.57-0.72-0.85-1.52-0.85-2.42c0-0.86,0.29-1.67,0.87-2.42
			c0.58-0.75,1.46-1.16,2.62-1.22h2.4c0.2-2.07,0.59-4.2,1.17-6.37c0.58-2.17,1.44-4.16,2.57-5.96c1.13-1.8,2.58-3.29,4.34-4.48
			c1.76-1.18,3.93-1.82,6.49-1.91c1.56,0,3.12,0.22,4.67,0.67c1.55,0.45,2.95,1.08,4.22,1.89c1.26,0.81,2.33,1.79,3.2,2.92
			c0.86,1.13,1.43,2.42,1.7,3.85c0,0.64-0.12,1.2-0.35,1.68c-0.23,0.48-0.53,0.88-0.9,1.2c-0.37,0.32-0.78,0.56-1.25,0.72
			c-0.47,0.16-0.92,0.24-1.35,0.24c-0.87,0-1.64-0.23-2.32-0.69c-0.68-0.46-1.11-1.11-1.27-1.94c-0.37-1.28-1.13-2.18-2.3-2.7
			c-1.17-0.53-2.43-0.77-3.79-0.74c-1.33,0.03-2.45,0.46-3.34,1.29c-0.9,0.83-1.63,1.84-2.2,3.02c-0.57,1.18-0.99,2.44-1.27,3.78
			c-0.28,1.34-0.49,2.52-0.62,3.54h14.38c1.2,0,2.06,0.37,2.6,1.1c0.53,0.73,0.8,1.55,0.8,2.44c0,0.48-0.08,0.95-0.25,1.41
			c-0.17,0.46-0.4,0.87-0.7,1.22c-0.3,0.35-0.68,0.61-1.15,0.79c-0.47,0.18-1,0.23-1.6,0.17h0.3H364.65z"/>
		<path fill="#0D0C0C" d="M408.98,88.23v24.36c0,1.15-0.38,1.98-1.15,2.49c-0.77,0.51-1.61,0.77-2.55,0.77
			c-0.5,0-0.99-0.07-1.47-0.22c-0.48-0.14-0.91-0.36-1.27-0.65c-0.37-0.29-0.64-0.63-0.82-1.03c-0.18-0.4-0.24-0.85-0.17-1.36V88.23
			h-6.69c-1.2,0-2.09-0.35-2.67-1.05c-0.58-0.7-0.87-1.52-0.87-2.44c0-0.89,0.29-1.69,0.87-2.39c0.58-0.7,1.46-1.08,2.62-1.15h6.74
			V75.3c0-1.15,0.38-2,1.15-2.56c0.77-0.56,1.61-0.84,2.55-0.84c0.9,0,1.73,0.28,2.5,0.84c0.77,0.56,1.18,1.4,1.25,2.51v5.94h7.29
			c1.16,0,2.01,0.35,2.55,1.05c0.53,0.7,0.8,1.5,0.8,2.39c0,0.48-0.08,0.94-0.25,1.39c-0.17,0.45-0.4,0.85-0.7,1.2
			c-0.3,0.35-0.67,0.62-1.12,0.81s-0.97,0.24-1.57,0.14l0.3,0.05H408.98z"/>
		<path fill="#0D0C0C" d="M441.93,126.19c-0.5,1.28-1.51,1.91-3.04,1.91c-0.57,0-1.15-0.13-1.75-0.38c-0.6-0.26-1.1-0.61-1.5-1.05
			c-0.4-0.45-0.67-0.97-0.82-1.56c-0.15-0.59-0.06-1.2,0.27-1.84c0.37-0.77,0.76-1.59,1.17-2.47c0.42-0.88,0.83-1.77,1.25-2.68
			c0.42-0.91,0.82-1.81,1.22-2.7c0.4-0.89,0.78-1.72,1.15-2.49L426,87.22c-0.4-0.64-0.56-1.28-0.47-1.94
			c0.08-0.65,0.3-1.24,0.65-1.75c0.35-0.51,0.82-0.93,1.4-1.24c0.58-0.32,1.17-0.48,1.77-0.48c0.5,0,1,0.1,1.5,0.31
			s0.93,0.58,1.3,1.12l11.38,21.78c1.63-3.57,3.28-7.13,4.94-10.67c1.66-3.54,3.31-7.1,4.94-10.67c0.37-0.73,0.84-1.24,1.42-1.51
			c0.58-0.27,1.19-0.41,1.82-0.41c0.57,0,1.12,0.13,1.67,0.38c0.55,0.26,1.01,0.61,1.37,1.05c0.37,0.45,0.61,0.97,0.72,1.56
			c0.12,0.59,0.04,1.22-0.22,1.89L441.93,126.19z"/>
		<path fill="#0D0C0C" d="M516.15,83.39c0.1,0.54,0.04,1.07-0.17,1.58c-0.22,0.51-0.53,0.97-0.95,1.36
			c-0.42,0.4-0.89,0.72-1.42,0.96s-1.07,0.36-1.6,0.36c-0.73,0-1.41-0.18-2.02-0.55c-0.62-0.37-1.07-0.98-1.37-1.84
			c-0.4-1.15-0.92-2.11-1.57-2.87c-0.65-0.77-1.34-1.37-2.07-1.82c-0.73-0.45-1.45-0.77-2.15-0.96c-0.7-0.19-1.3-0.29-1.8-0.29
			c-1.83,0.06-3.44,0.61-4.82,1.65c-1.38,1.04-2.53,2.35-3.44,3.92c-0.92,1.58-1.61,3.32-2.07,5.22c-0.47,1.9-0.7,3.76-0.7,5.58
			c0,1.28,0.16,2.67,0.47,4.16c0.32,1.5,0.84,2.9,1.57,4.21c0.73,1.31,1.69,2.41,2.87,3.3c1.18,0.89,2.65,1.36,4.42,1.39
			c0.96,0.03,1.93-0.1,2.9-0.38c0.96-0.29,1.86-0.73,2.7-1.34c0.83-0.61,1.59-1.36,2.27-2.27c0.68-0.91,1.22-1.97,1.62-3.18
			c0.23-1.05,0.72-1.85,1.45-2.39c0.73-0.54,1.53-0.81,2.4-0.81c0.5,0,1.01,0.1,1.52,0.31c0.52,0.21,0.97,0.5,1.37,0.89
			c0.4,0.38,0.7,0.84,0.9,1.36c0.2,0.53,0.23,1.11,0.1,1.75c-0.93,2.94-2.09,5.27-3.47,7.01c-1.38,1.74-2.86,3.08-4.44,4.02
			c-1.58,0.94-3.19,1.55-4.84,1.82c-1.65,0.27-3.2,0.41-4.67,0.41c-2.8-0.03-5.24-0.59-7.34-1.68c-2.1-1.08-3.84-2.53-5.24-4.33
			c-1.4-1.8-2.46-3.88-3.17-6.25c-0.72-2.36-1.07-4.87-1.07-7.52c0-1.88,0.19-3.78,0.57-5.7c0.38-1.91,0.94-3.77,1.67-5.55
			c0.73-1.79,1.63-3.46,2.7-5.03c1.07-1.56,2.29-2.93,3.67-4.09c1.38-1.16,2.9-2.07,4.57-2.73c1.66-0.65,3.48-0.98,5.44-0.98
			c1.53,0.1,3.08,0.38,4.64,0.86c1.56,0.48,3.03,1.17,4.39,2.08c1.36,0.91,2.58,2.03,3.64,3.37s1.9,2.9,2.5,4.69L516.15,83.39z"/>
		<path fill="#0D0C0C" d="M548.9,87.27c0.43,0.67,0.46,1.38,0.07,2.13c-0.38,0.75-0.95,1.38-1.7,1.89
			c-0.75,0.51-1.57,0.81-2.47,0.89s-1.65-0.22-2.25-0.89c-1.33-1.53-2.79-2.36-4.39-2.49c-0.67-0.06-1.38-0.03-2.15,0.1
			c-0.77,0.13-1.51,0.33-2.25,0.62c-0.73,0.29-1.41,0.66-2.02,1.12c-0.62,0.46-1.12,1-1.52,1.6v20.63c0,1.15-0.38,1.98-1.12,2.49
			c-0.75,0.51-1.59,0.77-2.52,0.77c-0.5,0-0.99-0.07-1.47-0.22s-0.91-0.36-1.27-0.65c-0.37-0.29-0.64-0.63-0.82-1.03
			c-0.18-0.4-0.24-0.85-0.17-1.36V84.83c0-1.18,0.37-2.04,1.12-2.58c0.75-0.54,1.59-0.81,2.52-0.81c0.7,0,1.36,0.17,1.97,0.5
			c0.62,0.34,1.09,0.84,1.42,1.51c1.63-0.83,3.11-1.35,4.44-1.56c1.33-0.21,2.73-0.28,4.19-0.22c1.1,0.03,2.17,0.22,3.22,0.57
			c1.05,0.35,2.03,0.79,2.95,1.32c0.91,0.53,1.73,1.11,2.45,1.75C547.84,85.95,548.43,86.6,548.9,87.27z"/>
		<path fill="#0D0C0C" d="M561.48,99.76c0.03,1.18,0.22,2.32,0.57,3.42s0.87,2.07,1.55,2.92c0.68,0.85,1.52,1.52,2.52,2.03
			c1,0.51,2.18,0.77,3.54,0.77c0.7,0,1.41-0.1,2.15-0.29c0.73-0.19,1.41-0.47,2.05-0.84c0.63-0.37,1.19-0.82,1.67-1.36
			c0.48-0.54,0.84-1.18,1.07-1.91c0.17-1.05,0.62-1.84,1.35-2.37c0.73-0.53,1.53-0.79,2.4-0.79c0.96,0,1.82,0.33,2.57,1.01
			c0.75,0.67,1.12,1.68,1.12,3.02c-0.47,1.69-1.18,3.19-2.15,4.5c-0.97,1.31-2.09,2.41-3.37,3.3c-1.28,0.89-2.68,1.58-4.19,2.06
			c-1.51,0.48-3.05,0.72-4.62,0.72c-2.56,0.06-4.83-0.35-6.79-1.24c-1.96-0.89-3.61-2.1-4.94-3.61c-1.33-1.52-2.35-3.26-3.04-5.24
			c-0.7-1.98-1.07-4.02-1.1-6.13c-0.96-0.19-1.67-0.62-2.12-1.29c-0.45-0.67-0.67-1.4-0.67-2.2c0-0.86,0.3-1.66,0.9-2.39
			c0.6-0.73,1.48-1.13,2.65-1.2h0.3c0.53-1.47,1.26-2.87,2.17-4.21s2-2.51,3.25-3.52c1.25-1,2.67-1.8,4.27-2.39
			c1.6-0.59,3.36-0.89,5.29-0.89c2.16,0,4.05,0.41,5.67,1.22c1.61,0.81,2.97,1.87,4.07,3.16c1.1,1.29,1.97,2.75,2.62,4.36
			c0.65,1.61,1.07,3.2,1.27,4.76c0.07,0.67,0.04,1.29-0.08,1.87c-0.12,0.57-0.38,1.07-0.8,1.48c-0.42,0.42-1.01,0.73-1.77,0.96
			c-0.77,0.22-1.76,0.33-3,0.33H561.48z M569.96,88.52c-0.8,0-1.57,0.12-2.3,0.36c-0.73,0.24-1.4,0.55-2,0.93
			c-0.6,0.38-1.12,0.82-1.55,1.32c-0.43,0.5-0.75,1-0.95,1.51h12.13c-0.1-0.48-0.32-0.96-0.65-1.44s-0.74-0.92-1.22-1.32
			c-0.48-0.4-1.02-0.73-1.62-0.98C571.21,88.64,570.6,88.52,569.96,88.52z"/>
		<path fill="#0D0C0C" d="M598.37,99.76c0.03,1.18,0.22,2.32,0.57,3.42s0.87,2.07,1.55,2.92c0.68,0.85,1.52,1.52,2.52,2.03
			c1,0.51,2.18,0.77,3.54,0.77c0.7,0,1.41-0.1,2.15-0.29c0.73-0.19,1.41-0.47,2.05-0.84c0.63-0.37,1.19-0.82,1.67-1.36
			c0.48-0.54,0.84-1.18,1.07-1.91c0.17-1.05,0.62-1.84,1.35-2.37c0.73-0.53,1.53-0.79,2.4-0.79c0.96,0,1.82,0.33,2.57,1.01
			c0.75,0.67,1.12,1.68,1.12,3.02c-0.47,1.69-1.18,3.19-2.15,4.5c-0.97,1.31-2.09,2.41-3.37,3.3c-1.28,0.89-2.68,1.58-4.19,2.06
			c-1.51,0.48-3.05,0.72-4.62,0.72c-2.56,0.06-4.83-0.35-6.79-1.24c-1.96-0.89-3.61-2.1-4.94-3.61c-1.33-1.52-2.35-3.26-3.04-5.24
			c-0.7-1.98-1.07-4.02-1.1-6.13c-0.96-0.19-1.67-0.62-2.12-1.29c-0.45-0.67-0.67-1.4-0.67-2.2c0-0.86,0.3-1.66,0.9-2.39
			c0.6-0.73,1.48-1.13,2.65-1.2h0.3c0.53-1.47,1.26-2.87,2.17-4.21s2-2.51,3.25-3.52c1.25-1,2.67-1.8,4.27-2.39
			c1.6-0.59,3.36-0.89,5.29-0.89c2.16,0,4.05,0.41,5.67,1.22c1.61,0.81,2.97,1.87,4.07,3.16c1.1,1.29,1.97,2.75,2.62,4.36
			c0.65,1.61,1.07,3.2,1.27,4.76c0.07,0.67,0.04,1.29-0.08,1.87c-0.12,0.57-0.38,1.07-0.8,1.48c-0.42,0.42-1.01,0.73-1.77,0.96
			c-0.77,0.22-1.76,0.33-3,0.33H598.37z M606.85,88.52c-0.8,0-1.57,0.12-2.3,0.36c-0.73,0.24-1.4,0.55-2,0.93
			c-0.6,0.38-1.12,0.82-1.55,1.32c-0.43,0.5-0.75,1-0.95,1.51h12.13c-0.1-0.48-0.32-0.96-0.65-1.44s-0.74-0.92-1.22-1.32
			c-0.48-0.4-1.02-0.73-1.62-0.98C608.1,88.64,607.48,88.52,606.85,88.52z"/>
		<path fill="#0D0C0C" d="M634.31,103.4v9.19c0,1.15-0.38,1.98-1.15,2.49c-0.77,0.51-1.6,0.77-2.5,0.77c-0.5,0-1-0.08-1.5-0.24
			c-0.5-0.16-0.92-0.38-1.27-0.67c-0.35-0.29-0.62-0.65-0.82-1.08c-0.2-0.43-0.25-0.93-0.15-1.51l-0.05,0.24V75.21
			c0-1.15,0.38-2,1.15-2.56c0.76-0.56,1.61-0.84,2.55-0.84c0.9,0,1.73,0.28,2.5,0.84c0.77,0.56,1.18,1.4,1.25,2.51v14.65
			c2.3-1.24,4.58-2.53,6.86-3.85c2.28-1.32,4.53-2.61,6.76-3.85c0.7-0.26,1.36-0.32,1.97-0.19c0.62,0.13,1.15,0.38,1.6,0.74
			c0.45,0.37,0.8,0.82,1.05,1.36c0.25,0.54,0.37,1.08,0.37,1.63c0,0.67-0.16,1.28-0.47,1.82c-0.32,0.54-0.86,0.97-1.62,1.29
			c-1.33,0.73-2.54,1.4-3.62,2.01c-1.08,0.61-2.14,1.2-3.17,1.77c-1.03,0.57-2.09,1.17-3.17,1.79c-1.08,0.62-2.29,1.3-3.62,2.03
			c2.66,2.2,5.22,4.33,7.66,6.39c2.45,2.06,5.02,4.19,7.71,6.39c1.1,0.64,1.65,1.6,1.65,2.87c0,0.57-0.15,1.13-0.45,1.68
			c-0.3,0.54-0.71,1-1.22,1.36c-0.52,0.37-1.11,0.59-1.77,0.67c-0.67,0.08-1.36-0.06-2.1-0.41L634.31,103.4z"/>
	</g>
</g>
</svg>
