<?xml version="1.0" encoding="UTF-8" standalone="no"?>
<!-- Generator: Adobe Illustrator 23.0.1, SVG Export Plug-In . SVG Version: 6.00 Build 0)  -->

<svg
   xmlns:dc="http://purl.org/dc/elements/1.1/"
   xmlns:cc="http://creativecommons.org/ns#"
   xmlns:rdf="http://www.w3.org/1999/02/22-rdf-syntax-ns#"
   xmlns:svg="http://www.w3.org/2000/svg"
   xmlns="http://www.w3.org/2000/svg"
   xmlns:xlink="http://www.w3.org/1999/xlink"
   xmlns:sodipodi="http://sodipodi.sourceforge.net/DTD/sodipodi-0.dtd"
   xmlns:inkscape="http://www.inkscape.org/namespaces/inkscape"
   version="1.1"
   id="Layer_1"
   x="0px"
   y="0px"
   viewBox="0 0 665.77 294.29"
   enable-background="new 0 0 665.77 294.29"
   xml:space="preserve"
   sodipodi:docname="logo white.svg"
   inkscape:version="0.92.4 (5da689c313, 2019-01-14)"><metadata
   id="metadata195"><rdf:RDF><cc:Work
       rdf:about=""><dc:format>image/svg+xml</dc:format><dc:type
         rdf:resource="http://purl.org/dc/dcmitype/StillImage" /><dc:title></dc:title></cc:Work></rdf:RDF></metadata><defs
   id="defs193"><linearGradient
   inkscape:collect="always"
   id="linearGradient4802"><stop
     style="stop-color:#000000;stop-opacity:1;"
     offset="0"
     id="stop4798" /><stop
     style="stop-color:#000000;stop-opacity:0;"
     offset="1"
     id="stop4800" /></linearGradient>
	
	
	
	
	
	
	
	
	
	
	
	
	
	
	
	
<linearGradient
   inkscape:collect="always"
   xlink:href="#linearGradient4802"
   id="linearGradient4804"
   x1="47.6"
   y1="132.78"
   x2="230.39"
   y2="132.78"
   gradientUnits="userSpaceOnUse" /></defs><sodipodi:namedview
   pagecolor="#000000"
   bordercolor="#666666"
   borderopacity="1"
   objecttolerance="10"
   gridtolerance="10"
   guidetolerance="10"
   inkscape:pageopacity="0"
   inkscape:pageshadow="2"
   inkscape:window-width="1920"
   inkscape:window-height="1026"
   id="namedview191"
   showgrid="false"
   inkscape:zoom="0.61282423"
   inkscape:cx="37.531153"
   inkscape:cy="147.145"
   inkscape:window-x="0"
   inkscape:window-y="28"
   inkscape:window-maximized="1"
   inkscape:current-layer="Layer_1" />
<g
   id="g6"
   style="fill:#ffffff;fill-opacity:1;stroke:#000000;stroke-opacity:1">
		<ellipse
   id="ellipse2"
   ry="124.62"
   rx="125.31"
   cy="125.87"
   cx="139.12"
   style="fill:#ffffff;fill-opacity:1;stroke:#000000;stroke-opacity:1" />
		<path
   style="fill:#ffffff;fill-opacity:1;stroke:#000000;stroke-opacity:1"
   inkscape:connector-curvature="0"
   id="path4"
   d="M 139.12,251.74 C 69.34,251.74 12.56,195.27 12.56,125.87 12.56,56.47 69.33,0 139.12,0 208.91,0 265.68,56.47 265.68,125.87 265.67,195.28 208.9,251.74 139.12,251.74 Z m 0,-249.24 c -68.4,0 -124.05,55.34 -124.05,123.37 0,68.02 55.65,123.37 124.05,123.37 68.4,0 124.05,-55.34 124.05,-123.37 C 263.17,57.85 207.52,2.5 139.12,2.5 Z" />
	</g><g
   id="g12"
   style="stroke:#000000;stroke-opacity:1">
		<path
   inkscape:connector-curvature="0"
   id="path8"
   d="M 189.85,28.06 H 88.89 C 86.93,49.94 70.31,67.61 48.86,71.29 l 0.4,75.62 90.57,90.07 89.32,-88.83 V 65.14 c -19.5,-3.25 -35.04,-18.05 -39.3,-37.08 z"
   style="stroke:#000000;stroke-opacity:1" />
		<path
   style="fill:#faf8fa;stroke:#000000;stroke-opacity:1"
   inkscape:connector-curvature="0"
   id="path10"
   d="M 139.82,238.75 48,147.44 47.6,70.24 48.65,70.06 C 69.71,66.44 85.75,49.13 87.64,27.95 l 0.1,-1.14 h 103.11 l 0.22,0.98 c 4.13,18.47 19.51,32.99 38.27,36.12 l 1.05,0.17 v 84.59 l -0.37,0.37 z m -89.32,-92.36 89.32,88.83 88.07,-87.59 V 66.19 C 208.65,62.57 193.49,48.24 188.86,29.31 H 90.02 C 87.6,50.74 71.41,68.21 50.12,72.33 Z" />
	</g><g
   id="g16">
		<path
   style="fill:#ffffff"
   inkscape:connector-curvature="0"
   id="path14"
   d="m 49.44,95.37 c 17.73,-7.95 51.13,-20.13 94.45,-19.28 38.7,0.76 68.67,11.58 85.83,19.28 0,17.35 0,34.69 0,52.04 l -90.34,89.84 -90.19,-89.7 z" />
	</g><g
   id="g26">
		<path
   style="fill:#ffffff"
   inkscape:connector-curvature="0"
   id="path18"
   d="m 103.03,64.08 h 9.37 v 5.41 H 96.83 V 42.42 h 6.2 z" />
		<path
   style="fill:#ffffff"
   inkscape:connector-curvature="0"
   id="path20"
   d="m 135.29,62.24 2.64,5.25 c 0,0 -3.04,2.49 -8.94,2.49 -7.69,0 -14.75,-6.23 -14.75,-13.98 0,-7.78 7.03,-14.07 14.75,-14.07 5.91,0 8.94,2.49 8.94,2.49 l -2.64,5.25 c 0,0 -2.18,-1.67 -5.34,-1.67 -6.24,0 -8.97,4.33 -8.97,7.94 0,3.64 2.74,7.97 8.97,7.97 3.17,0 5.34,-1.67 5.34,-1.67 z" />
		<path
   style="fill:#ffffff"
   inkscape:connector-curvature="0"
   id="path22"
   d="m 160.13,62.24 2.64,5.25 c 0,0 -3.04,2.49 -8.94,2.49 -7.69,0 -14.75,-6.23 -14.75,-13.98 0,-7.78 7.03,-14.07 14.75,-14.07 5.91,0 8.94,2.49 8.94,2.49 l -2.64,5.25 c 0,0 -2.18,-1.67 -5.34,-1.67 -6.24,0 -8.97,4.33 -8.97,7.94 0,3.64 2.74,7.97 8.97,7.97 3.16,0 5.34,-1.67 5.34,-1.67 z" />
		<path
   style="fill:#ffffff"
   inkscape:connector-curvature="0"
   id="path24"
   d="m 183.61,44.49 -2.51,4.92 c 0,0 -2.71,-1.87 -5.51,-1.87 -2.11,0 -3.23,0.95 -3.23,2.43 0,1.51 2.57,2.59 5.67,3.9 3.03,1.28 6.37,3.84 6.37,7.38 0,6.46 -4.95,8.73 -10.26,8.73 -6.37,0 -10.23,-3.58 -10.23,-3.58 l 3.1,-5.18 c 0,0 3.63,3.05 6.66,3.05 1.35,0 3.93,-0.13 3.93,-2.66 0,-1.97 -2.9,-2.85 -6.14,-4.46 -3.27,-1.61 -5.18,-4.13 -5.18,-6.96 0,-5.05 4.49,-8.27 8.87,-8.27 4.97,0.01 8.46,2.57 8.46,2.57 z" />
	</g><g
   id="g30">
		<path
   style="fill:#ffffff"
   inkscape:connector-curvature="0"
   id="path28"
   d="m 145.53,110.73 c -1.35,-0.55 -2.7,-1.1 -4.25,-1.73 0,0.88 0,1.6 0,2.92 -1.88,-1.59 -3.41,-2.89 -5.25,-4.46 0.25,1.74 0.44,3.02 0.71,4.89 -1.6,-1.79 -2.85,-3.19 -4.34,-4.85 -0.65,1.96 -1.21,3.67 -1.94,5.88 -0.65,-1.79 -1.14,-3.13 -1.76,-4.85 -1.46,1.97 -2.75,3.72 -4.04,5.47 -0.16,-0.06 -0.32,-0.12 -0.47,-0.18 0.45,-1.85 0.91,-3.71 1.47,-5.99 -1.75,1.1 -3.1,1.96 -4.63,2.92 0.82,-3.22 6.86,-9.75 9.77,-10.14 1.63,-0.22 3.75,0.11 5.03,1.04 3.56,2.59 6.8,5.61 10.17,8.47 -0.15,0.2 -0.31,0.4 -0.47,0.61 z" />
	</g><g
   id="g36">
		<g
   id="g34">
			<path
   inkscape:connector-curvature="0"
   id="path32"
   d="m 77.54,123.26 c 2.46,-1.2 4.92,-2.4 7.38,-3.61 5.03,-2.48 8.42,-6.78 12.05,-10.82 0.86,-0.95 1.75,-1.88 2.72,-2.72 3.14,-2.72 6.08,-2.85 9.17,-0.12 3.2,2.83 6.39,5.71 9.19,8.91 3.59,4.1 6.94,8.36 12.33,10.35 -0.07,0.14 -0.14,0.28 -0.21,0.42 -2.85,-0.4 -5.71,-0.81 -8.56,-1.2 -9.31,-1.29 -18.59,-1.48 -27.91,0.26 -5.38,1.01 -10.79,0.28 -16.16,-1.47 z m 37.11,-10.63 c 0.12,-0.16 0.25,-0.33 0.37,-0.49 -2.63,-2.24 -5.17,-4.63 -7.96,-6.66 -1,-0.73 -2.66,-0.99 -3.94,-0.82 -2.27,0.31 -7,5.45 -7.64,7.98 1.19,-0.76 2.25,-1.43 3.62,-2.3 -0.44,1.8 -0.79,3.25 -1.15,4.71 0.12,0.05 0.25,0.09 0.37,0.14 1.01,-1.38 2.02,-2.75 3.16,-4.3 0.49,1.36 0.87,2.41 1.38,3.82 0.57,-1.74 1.01,-3.08 1.51,-4.63 1.16,1.31 2.14,2.41 3.39,3.82 -0.21,-1.47 -0.36,-2.48 -0.56,-3.84 1.44,1.23 2.64,2.25 4.11,3.51 0,-1.04 0,-1.6 0,-2.3 1.23,0.49 2.28,0.92 3.34,1.36 z" />
		</g>
	</g><g
   id="g40">
		<path
   style="fill:#ffffff"
   inkscape:connector-curvature="0"
   id="path38"
   d="m 114.65,112.63 c -1.06,-0.43 -2.11,-0.87 -3.32,-1.36 0,0.7 0,1.26 0,2.3 -1.47,-1.25 -2.67,-2.28 -4.11,-3.51 0.2,1.37 0.34,2.37 0.56,3.84 -1.25,-1.41 -2.23,-2.51 -3.39,-3.82 -0.51,1.54 -0.95,2.89 -1.51,4.63 -0.51,-1.41 -0.89,-2.46 -1.38,-3.82 -1.14,1.55 -2.15,2.92 -3.16,4.3 -0.12,-0.05 -0.25,-0.09 -0.37,-0.14 0.35,-1.46 0.71,-2.91 1.15,-4.71 -1.37,0.87 -2.43,1.54 -3.62,2.3 0.64,-2.53 5.37,-7.66 7.64,-7.98 1.27,-0.18 2.93,0.09 3.94,0.82 2.79,2.03 5.32,4.42 7.96,6.66 -0.15,0.16 -0.27,0.32 -0.39,0.49 z" />
	</g><g
   id="g46">
		<g
   id="g44">
			<path
   inkscape:connector-curvature="0"
   id="path42"
   d="m 182.71,116.44 c -4.36,-4.95 -9.33,-9.41 -14.3,-13.79 -4.81,-4.23 -9.38,-4.02 -14.27,0.18 -1.5,1.29 -2.89,2.73 -4.23,4.21 -1.01,1.12 -2.02,2.25 -3.02,3.38 -2.79,-2.83 -5.77,-5.5 -8.76,-8.13 -3.95,-3.48 -7.71,-3.31 -11.73,0.15 -1.24,1.06 -2.38,2.25 -3.47,3.46 -4.65,5.13 -8.98,10.6 -15.41,13.75 -3.14,1.54 -6.29,3.06 -9.44,4.6 6.87,2.22 13.79,3.14 20.67,1.87 3.45,-0.64 6.89,-1.07 10.33,-1.32 -3.13,1.53 -6.27,3.05 -9.4,4.58 8.35,2.7 16.78,3.83 25.15,2.27 14.5,-2.69 28.93,-2.4 43.42,-0.4 4.44,0.61 8.88,1.24 13.32,1.86 0.11,-0.22 0.22,-0.43 0.33,-0.65 -8.39,-3.07 -13.6,-9.68 -19.19,-16.02 z m -58.05,-2.45 c -0.16,-0.06 -0.32,-0.12 -0.47,-0.18 0.45,-1.85 0.91,-3.71 1.47,-5.99 -1.75,1.1 -3.1,1.96 -4.63,2.92 0.82,-3.22 6.86,-9.75 9.77,-10.14 1.63,-0.22 3.75,0.11 5.03,1.04 3.56,2.59 6.8,5.61 10.17,8.47 -0.16,0.21 -0.31,0.42 -0.47,0.63 -1.35,-0.55 -2.7,-1.1 -4.25,-1.73 0,0.88 0,1.6 0,2.92 -1.88,-1.59 -3.41,-2.89 -5.25,-4.46 0.25,1.74 0.44,3.02 0.71,4.89 -1.6,-1.79 -2.85,-3.19 -4.34,-4.85 -0.65,1.96 -1.21,3.67 -1.94,5.88 -0.65,-1.79 -1.14,-3.13 -1.76,-4.85 -1.45,1.96 -2.74,3.7 -4.04,5.45 z m 52.76,-1.07 c -1.64,-0.67 -3.29,-1.34 -5.17,-2.11 0,1.08 0,1.95 0,3.56 -2.28,-1.94 -4.15,-3.52 -6.39,-5.43 0.31,2.11 0.54,3.67 0.87,5.95 -1.95,-2.18 -3.47,-3.88 -5.28,-5.9 -0.79,2.39 -1.47,4.47 -2.36,7.16 -0.79,-2.17 -1.38,-3.81 -2.15,-5.91 -1.65,2.23 -3.13,4.23 -4.59,6.21 -0.22,-0.25 -0.44,-0.5 -0.66,-0.76 0.47,-1.94 0.96,-3.93 1.55,-6.31 -1.72,1.08 -3.12,1.97 -4.58,2.89 -0.19,-0.21 -0.38,-0.41 -0.58,-0.61 1.94,-4.14 8.23,-10.63 11.41,-11.07 1.98,-0.27 4.57,0.14 6.12,1.27 4.34,3.15 8.28,6.83 12.38,10.3 -0.19,0.25 -0.38,0.51 -0.57,0.76 z" />
		</g>
	</g><g
   id="g50">
		<path
   style="fill:#fefefe"
   inkscape:connector-curvature="0"
   id="path48"
   d="m 128.83,124.99 c 1.09,-1.08 2.21,-2.12 3.32,-3.18 l 3.38,-3.11 c 1.14,-1.02 2.16,-2.19 3.44,-3.03 1.28,-0.85 2.6,-1.64 4.14,-2.16 l 0.13,0.16 c -0.84,1.39 -1.9,2.51 -3,3.58 -1.1,1.07 -2.45,1.82 -3.7,2.71 l -3.76,2.63 c -1.28,0.85 -2.53,1.72 -3.82,2.56 z" />
	</g><g
   id="g64">
		<g
   id="g54">
			<path
   inkscape:connector-curvature="0"
   id="path52"
   d="m 76.94,135.26 c 3.59,-3.64 8.22,-5.11 13.13,-5.98 -2.41,1.04 -4.89,1.93 -7.2,3.15 -4,2.12 -4.58,5.58 -1.56,9.09 3.3,3.84 7.81,5.77 12.58,6.75 10.21,2.1 20.5,3.82 30.76,5.7 1.38,0.25 2.76,0.51 4.06,1.29 -4.83,-0.66 -9.71,-1.12 -14.49,-2.03 -7.45,-1.42 -14.87,-2.99 -22.23,-4.81 -6.07,-1.5 -11.54,-4.2 -15.05,-9.75 0,-1.13 0,-2.27 0,-3.41 z" />
		</g>
		<g
   id="g58">
			<path
   inkscape:connector-curvature="0"
   id="path56"
   d="m 175.1,185.23 c -13.67,-0.93 -27.18,-2.43 -40.01,-7.29 -2.69,-1.02 -5.35,-2.59 -7.47,-4.51 -3.21,-2.92 -2.57,-6.47 1.19,-8.63 1.8,-1.04 3.76,-1.81 5.67,-2.66 0.87,-0.39 1.9,-0.51 2.63,-1.06 1.3,-0.97 2.43,-2.17 3.63,-3.28 -1.31,-0.95 -2.5,-2.45 -3.94,-2.74 -7.26,-1.47 -14.57,-2.67 -21.88,-3.88 -9,-1.5 -18.12,-2.62 -26.43,-6.69 -1.97,-0.97 -3.85,-2.48 -5.24,-4.18 -2.49,-3.06 -1.9,-5.95 1.8,-7.2 5.82,-1.96 11.79,-3.69 17.84,-4.75 9.06,-1.58 18.24,-2.5 27.37,-3.7 0.05,0.22 0.09,0.45 0.14,0.67 -2.34,0.81 -4.73,1.51 -7.02,2.47 -1.74,0.73 -3.49,1.58 -4.96,2.72 -3.25,2.51 -2.95,5.23 0.95,6.41 5.44,1.65 11.02,2.89 16.6,4.01 10.15,2.03 20.38,3.71 30.52,5.83 2.92,0.61 5.77,1.97 8.37,3.47 3.47,2 3.58,5.58 0.2,7.78 -2.42,1.58 -5.21,2.68 -7.94,3.7 -3.83,1.42 -7.76,2.56 -11.63,3.85 -0.81,0.27 -1.6,0.63 -2.32,1.07 -4.8,2.91 -5.24,6.19 -0.42,8.98 5.38,3.12 11.35,5.22 17.1,7.7 1.69,0.77 3.49,1.29 5.25,1.91 z m -24.46,-32.37 c 0.02,0.25 0.05,0.49 0.07,0.74 7.47,1.87 7.85,1.81 7.92,-1.26 2.73,-0.51 5.42,-1.02 8.1,-1.53 -0.03,-0.38 -0.07,-0.75 -0.1,-1.13 -3.17,-1.99 -6.74,-1.59 -10.24,-1.06 -2.73,0.41 -2.94,1.21 -1.32,3.22 -1.43,0.33 -2.93,0.67 -4.43,1.02 z" />
		</g>
		<g
   id="g62">
			<path
   inkscape:connector-curvature="0"
   id="path60"
   d="m 171.05,186.74 c -9.34,0.1 -18.54,-1.25 -27.58,-3.57 -4.87,-1.25 -9.72,-2.66 -14.43,-4.41 -5.61,-2.09 -8.59,-5.77 -8.13,-9.78 0.58,-5.08 4.81,-6.33 8.81,-7.69 1.21,-0.41 2.45,-0.73 3.76,-0.74 -2.19,1.1 -4.45,2.07 -6.55,3.31 -4.61,2.73 -5.1,7.11 -1.05,10.76 4.43,3.99 10.03,5.74 15.67,7.13 4.88,1.21 9.85,2.12 14.82,2.96 4.87,0.81 9.78,1.36 14.68,2.03 z" />
		</g>
	</g><g
   id="g68">
		<path
   style="fill:#ffffff"
   inkscape:connector-curvature="0"
   id="path66"
   d="m 177.42,112.92 c -1.64,-0.67 -3.29,-1.34 -5.17,-2.11 0,1.08 0,1.95 0,3.56 -2.28,-1.94 -4.15,-3.52 -6.39,-5.43 0.31,2.11 0.54,3.67 0.87,5.95 -1.95,-2.18 -3.47,-3.88 -5.28,-5.9 -0.79,2.39 -1.47,4.47 -2.36,7.16 -0.79,-2.17 -1.38,-3.81 -2.15,-5.91 -1.77,2.4 -3.35,4.52 -4.92,6.65 -0.19,-0.07 -0.38,-0.15 -0.58,-0.22 0.55,-2.25 1.1,-4.51 1.79,-7.29 -2.13,1.34 -3.78,2.38 -5.63,3.55 0.99,-3.91 8.35,-11.86 11.89,-12.34 1.98,-0.27 4.57,0.14 6.12,1.27 4.34,3.15 8.28,6.83 12.38,10.3 -0.19,0.25 -0.38,0.51 -0.57,0.76 z" />
	</g><g
   id="g100"
   style="fill:#ffffff">
		<path
   style="fill:#ffffff"
   inkscape:connector-curvature="0"
   id="path70"
   d="m 303.19,198.72 c -1.95,0.68 -3.32,0.93 -5.34,0.93 -6.89,0 -11.08,-4.99 -11.08,-12.96 0,-7.93 4.19,-12.88 11.08,-12.88 2.06,0 3.43,0.18 5.27,0.83 l 1.59,0.54 c 0.22,0.07 0.32,0.25 0.25,0.47 l -0.94,2.76 c -0.07,0.22 -0.25,0.32 -0.47,0.25 l -1.62,-0.54 c -1.26,-0.43 -2.35,-0.57 -4.08,-0.61 -4.37,0 -6.93,3.41 -6.93,9.19 0,5.85 2.56,9.22 6.93,9.22 1.55,0 2.63,-0.14 4.11,-0.65 l 1.59,-0.54 c 0.22,-0.07 0.4,0.04 0.5,0.25 l 0.97,2.69 c 0.11,0.25 0,0.43 -0.25,0.5 z" />
		<path
   style="fill:#ffffff"
   inkscape:connector-curvature="0"
   id="path72"
   d="m 329.75,198.87 c 0,0.25 -0.14,0.39 -0.4,0.39 h -3.32 c -0.25,0 -0.4,-0.14 -0.4,-0.39 v -10.7 h -11.58 v 10.7 c 0,0.25 -0.14,0.39 -0.4,0.39 h -3.28 c -0.25,0 -0.4,-0.14 -0.4,-0.39 v -24.3 c 0,-0.25 0.14,-0.39 0.4,-0.39 h 3.28 c 0.25,0 0.4,0.14 0.4,0.39 v 10.01 h 11.58 v -10.01 c 0,-0.25 0.14,-0.39 0.4,-0.39 h 3.32 c 0.25,0 0.4,0.14 0.4,0.39 z" />
		<path
   style="fill:#ffffff"
   inkscape:connector-curvature="0"
   id="path74"
   d="m 345.46,174.18 c 5.27,0 8.37,2.73 8.37,7.25 0,3.27 -2.02,5.46 -4.8,6.46 -0.47,0.22 -0.47,0.4 -0.04,0.65 1.7,0.9 2.71,2.51 3.46,4.16 l 2.56,6.1 c 0.11,0.29 -0.04,0.47 -0.33,0.47 h -3.5 c -0.22,0 -0.36,-0.11 -0.47,-0.29 l -1.95,-4.63 c -1.33,-3.23 -3,-4.88 -6.78,-4.88 h -2.6 v 9.4 c 0,0.25 -0.14,0.39 -0.4,0.39 h -3.28 c -0.25,0 -0.4,-0.14 -0.4,-0.39 v -24.3 c 0,-0.25 0.14,-0.39 0.4,-0.39 z m -1.48,11.7 c 3.72,0 5.7,-1.47 5.7,-4.2 0,-2.37 -1.62,-3.88 -4.22,-3.88 h -6.06 v 8.08 z" />
		<path
   style="fill:#ffffff"
   inkscape:connector-curvature="0"
   id="path76"
   d="m 363.58,198.87 c 0,0.25 -0.14,0.39 -0.4,0.39 h -3.28 c -0.25,0 -0.4,-0.14 -0.4,-0.39 v -24.3 c 0,-0.25 0.14,-0.39 0.4,-0.39 h 3.28 c 0.25,0 0.4,0.14 0.4,0.39 z" />
		<path
   style="fill:#ffffff"
   inkscape:connector-curvature="0"
   id="path78"
   d="m 374.69,187.6 c -4.44,-1.65 -6.03,-3.52 -6.03,-7 0,-4.31 3.32,-6.78 8.52,-6.78 1.98,0 3.86,0.32 5.63,0.9 l 2.09,0.68 c 0.25,0.11 0.36,0.29 0.25,0.5 l -0.97,2.73 c -0.11,0.21 -0.29,0.32 -0.5,0.25 l -1.91,-0.61 c -1.52,-0.47 -2.96,-0.75 -4.58,-0.75 -2.6,0 -4.37,1.22 -4.37,3.09 0,1.47 0.9,2.51 3.5,3.48 l 4.01,1.47 c 4.22,1.58 6.13,3.34 6.13,6.93 0,4.63 -3.46,7.18 -9.06,7.18 -2.45,0 -4.44,-0.36 -6.96,-1.22 l -1.88,-0.61 c -0.25,-0.11 -0.36,-0.29 -0.25,-0.5 l 0.94,-2.76 c 0.11,-0.22 0.29,-0.32 0.51,-0.22 l 1.98,0.65 c 1.91,0.61 3.61,0.93 5.67,0.93 2.67,0 4.91,-1 4.91,-3.45 0,-1.58 -1.55,-2.62 -3.57,-3.37 z" />
		<path
   style="fill:#ffffff"
   inkscape:connector-curvature="0"
   id="path80"
   d="m 409.23,177.41 c 0,0.25 -0.14,0.39 -0.4,0.39 h -7.69 v 21.07 c 0,0.25 -0.14,0.39 -0.4,0.39 h -3.32 c -0.25,0 -0.4,-0.14 -0.4,-0.39 V 177.8 h -7.65 c -0.25,0 -0.4,-0.14 -0.4,-0.39 v -2.83 c 0,-0.25 0.14,-0.39 0.4,-0.39 h 19.45 c 0.25,0 0.4,0.14 0.4,0.39 v 2.83 z" />
		<path
   style="fill:#ffffff"
   inkscape:connector-curvature="0"
   id="path82"
   d="m 417.5,198.87 c 0,0.25 -0.14,0.39 -0.4,0.39 h -3.28 c -0.25,0 -0.4,-0.14 -0.4,-0.39 v -24.3 c 0,-0.25 0.14,-0.39 0.4,-0.39 h 3.28 c 0.25,0 0.4,0.14 0.4,0.39 z" />
		<path
   style="fill:#ffffff"
   inkscape:connector-curvature="0"
   id="path84"
   d="m 427.64,194.45 -1.77,4.49 c -0.07,0.22 -0.22,0.32 -0.43,0.32 h -3.46 c -0.33,0 -0.43,-0.18 -0.33,-0.47 l 6.21,-15.75 c 1.08,-2.87 2.06,-5.71 2.78,-8.51 0.04,-0.25 0.18,-0.36 0.43,-0.36 h 4.44 c 0.25,0 0.4,0.11 0.43,0.32 0.76,2.83 1.73,5.67 2.81,8.54 l 6.21,15.75 c 0.11,0.29 0,0.47 -0.33,0.47 h -3.46 c -0.22,0 -0.36,-0.11 -0.43,-0.32 l -1.77,-4.49 h -11.33 z m 9.92,-3.62 -1.91,-4.7 c -0.83,-2.22 -1.7,-4.84 -2.06,-6.64 -0.11,-0.39 -0.51,-0.39 -0.58,0 -0.36,1.79 -1.23,4.38 -2.09,6.64 l -1.88,4.7 z" />
		<path
   style="fill:#ffffff"
   inkscape:connector-curvature="0"
   id="path86"
   d="m 469.47,198.87 c 0,0.25 -0.14,0.39 -0.4,0.39 h -4.33 c -0.22,0 -0.36,-0.11 -0.47,-0.29 -0.51,-1.22 -1.23,-2.58 -1.88,-3.7 l -7.72,-12.67 c -0.47,-0.83 -0.9,-1.65 -1.26,-2.4 -0.22,-0.4 -0.58,-0.25 -0.51,0.14 0.22,1.62 0.33,3.05 0.33,4.99 v 13.53 c 0,0.25 -0.14,0.39 -0.4,0.39 h -3.32 c -0.25,0 -0.4,-0.14 -0.4,-0.39 v -24.3 c 0,-0.25 0.14,-0.39 0.4,-0.39 h 4.33 c 0.22,0 0.36,0.11 0.47,0.29 0.54,1.22 1.26,2.58 1.91,3.7 l 7.72,12.67 c 0.47,0.86 0.9,1.69 1.26,2.4 0.18,0.47 0.54,0.29 0.47,-0.14 -0.25,-1.58 -0.29,-3.01 -0.29,-4.92 v -13.6 c 0,-0.25 0.14,-0.39 0.4,-0.39 h 3.28 c 0.25,0 0.4,0.14 0.4,0.39 v 24.3 z" />
		<path
   style="fill:#ffffff"
   inkscape:connector-curvature="0"
   id="path88"
   d="m 488.09,187.6 c -4.44,-1.65 -6.03,-3.52 -6.03,-7 0,-4.31 3.32,-6.78 8.52,-6.78 1.98,0 3.86,0.32 5.63,0.9 l 2.09,0.68 c 0.25,0.11 0.36,0.29 0.25,0.5 l -0.97,2.73 c -0.11,0.21 -0.29,0.32 -0.51,0.25 l -1.91,-0.61 c -1.52,-0.47 -2.96,-0.75 -4.58,-0.75 -2.6,0 -4.37,1.22 -4.37,3.09 0,1.47 0.9,2.51 3.5,3.48 l 4.01,1.47 c 4.22,1.58 6.13,3.34 6.13,6.93 0,4.63 -3.46,7.18 -9.06,7.18 -2.45,0 -4.44,-0.36 -6.96,-1.22 l -1.88,-0.61 c -0.25,-0.11 -0.36,-0.29 -0.25,-0.5 l 0.94,-2.76 c 0.11,-0.22 0.29,-0.32 0.51,-0.22 l 1.98,0.65 c 1.91,0.61 3.61,0.93 5.67,0.93 2.67,0 4.91,-1 4.91,-3.45 0,-1.58 -1.55,-2.62 -3.57,-3.37 z" />
		<path
   style="fill:#ffffff"
   inkscape:connector-curvature="0"
   id="path90"
   d="m 519.85,198.72 c -1.95,0.68 -3.32,0.93 -5.34,0.93 -6.89,0 -11.08,-4.99 -11.08,-12.96 0,-7.93 4.19,-12.88 11.08,-12.88 2.06,0 3.43,0.18 5.27,0.83 l 1.59,0.54 c 0.22,0.07 0.33,0.25 0.25,0.47 l -0.94,2.76 c -0.07,0.22 -0.25,0.32 -0.47,0.25 l -1.62,-0.54 c -1.26,-0.43 -2.35,-0.57 -4.08,-0.61 -4.37,0 -6.93,3.41 -6.93,9.19 0,5.85 2.56,9.22 6.93,9.22 1.55,0 2.63,-0.14 4.11,-0.65 l 1.59,-0.54 c 0.22,-0.07 0.4,0.04 0.5,0.25 l 0.97,2.69 c 0.11,0.25 0,0.43 -0.25,0.5 z" />
		<path
   style="fill:#ffffff"
   inkscape:connector-curvature="0"
   id="path92"
   d="m 546.42,198.87 c 0,0.25 -0.14,0.39 -0.4,0.39 h -3.32 c -0.25,0 -0.4,-0.14 -0.4,-0.39 v -10.7 h -11.58 v 10.7 c 0,0.25 -0.14,0.39 -0.4,0.39 h -3.28 c -0.25,0 -0.4,-0.14 -0.4,-0.39 v -24.3 c 0,-0.25 0.14,-0.39 0.4,-0.39 h 3.28 c 0.25,0 0.4,0.14 0.4,0.39 v 10.01 h 11.58 v -10.01 c 0,-0.25 0.14,-0.39 0.4,-0.39 h 3.32 c 0.25,0 0.4,0.14 0.4,0.39 z" />
		<path
   style="fill:#ffffff"
   inkscape:connector-curvature="0"
   id="path94"
   d="m 572.98,186.7 c 0,7.97 -4.19,12.96 -10.97,12.96 -6.82,0 -10.97,-4.99 -10.97,-12.96 0,-7.93 4.15,-12.88 10.97,-12.88 6.78,0 10.97,4.95 10.97,12.88 z m -17.79,0 c 0,5.74 2.53,9.22 6.82,9.22 4.26,0 6.79,-3.48 6.79,-9.22 0,-5.78 -2.53,-9.19 -6.79,-9.19 -4.29,0 -6.82,3.41 -6.82,9.19 z" />
		<path
   style="fill:#ffffff"
   inkscape:connector-curvature="0"
   id="path96"
   d="m 598.57,186.7 c 0,7.97 -4.19,12.96 -10.97,12.96 -6.82,0 -10.97,-4.99 -10.97,-12.96 0,-7.93 4.15,-12.88 10.97,-12.88 6.78,0 10.97,4.95 10.97,12.88 z m -17.79,0 c 0,5.74 2.53,9.22 6.82,9.22 4.26,0 6.79,-3.48 6.79,-9.22 0,-5.78 -2.53,-9.19 -6.79,-9.19 -4.3,0 -6.82,3.41 -6.82,9.19 z" />
		<path
   style="fill:#ffffff"
   inkscape:connector-curvature="0"
   id="path98"
   d="m 618.67,195.64 c 0.25,0 0.4,0.14 0.4,0.4 v 2.83 c 0,0.25 -0.14,0.39 -0.4,0.39 h -15.12 c -0.25,0 -0.4,-0.14 -0.4,-0.39 v -24.3 c 0,-0.25 0.14,-0.39 0.4,-0.39 h 3.28 c 0.25,0 0.4,0.14 0.4,0.39 v 21.07 z" />
	</g><g
   id="g122"
   style="fill:#ffffff">
		<g
   id="g104"
   style="fill:#ffffff">
			<path
   style="fill:#ffffff"
   inkscape:connector-curvature="0"
   id="path102"
   d="m 121.63,294.29 c -2.17,-0.33 -4.33,-0.87 -6.51,-0.96 -18.87,-0.8 -37.5,-3.51 -55.99,-7.13 -8.74,-1.71 -17.28,-4.39 -26.22,-6.71 0.4,-1.17 0.56,-2.06 0.98,-2.83 5.32,-9.8 10.72,-19.57 15.98,-29.4 1.13,-2.12 2.24,-2.51 4.68,-1.98 8.05,1.77 16.17,3.24 24.32,4.52 17.37,2.74 34.84,4.25 52.44,4.27 18.28,0.02 36.52,-0.61 54.61,-3.41 11.59,-1.79 23.13,-3.94 34.66,-6.1 7,-1.31 6.93,-1.43 10.47,4.92 4.7,8.42 9.48,16.79 14.21,25.2 0.39,0.69 0.66,1.45 1.21,2.69 -5.62,1.6 -11.01,3.19 -16.44,4.68 -21.94,6.01 -44.33,9.25 -66.98,10.94 -1.71,0.13 -3.4,0.63 -5.1,0.95 -12.11,0.12 -24.21,0.23 -36.32,0.35 z" />
		</g>
		<g
   id="g108"
   style="fill:#ffffff">
			<path
   style="fill:#ffffff"
   inkscape:connector-curvature="0"
   id="path106"
   d="m 25.93,216.96 c 3.53,1.81 6.93,4 10.63,5.34 10.35,3.73 20.84,7.11 31.74,10.79 -0.83,0.6 -1.57,1.37 -2.47,1.76 -4.37,1.9 -8.84,3.58 -13.14,5.62 -1.43,0.68 -2.79,2.02 -3.6,3.4 -3.56,6.13 -6.83,12.43 -10.41,18.54 -0.54,0.93 -2.34,1.92 -3.27,1.69 -11.92,-2.87 -23.47,-6.71 -33.33,-14.38 -0.36,-0.28 -0.79,-0.48 -2.07,-1.25 2.15,-0.9 3.38,-1.69 4.7,-1.92 6.18,-1.09 12.38,-2.15 18.6,-2.95 2.67,-0.34 3.72,-1.51 3.53,-4.06 -0.47,-6.25 -0.93,-12.5 -1.39,-18.76 -0.09,-1.27 -0.14,-2.54 -0.21,-3.81 0.22,-0.01 0.45,-0.01 0.69,-0.01 z" />
		</g>
		<g
   id="g112"
   style="fill:#ffffff">
			<path
   style="fill:#ffffff"
   inkscape:connector-curvature="0"
   id="path110"
   d="m 210.65,232.22 c 14.04,-5.26 27.74,-10.38 41.8,-15.65 -0.14,2.01 -0.31,4.14 -0.44,6.27 -0.27,4.51 -0.43,9.03 -0.81,13.53 -0.25,2.94 0.99,4.2 3.81,4.59 6.79,0.94 13.55,2.05 20.32,3.1 0.76,0.12 1.51,0.35 3.21,0.76 -2.68,2.21 -4.66,4.09 -6.88,5.63 -8.33,5.76 -17.75,9.02 -27.4,11.73 -2.01,0.56 -3.2,-0.19 -4.22,-2 -3.14,-5.56 -6.22,-11.18 -9.79,-16.47 -1.51,-2.23 -3.96,-4.1 -6.37,-5.39 -3.66,-1.97 -7.68,-3.28 -11.52,-4.92 -0.67,-0.28 -1.22,-0.83 -1.71,-1.18 z" />
		</g>
		<g
   id="g116"
   style="fill:#ffffff">
			<path
   style="fill:#ffffff"
   inkscape:connector-curvature="0"
   id="path114"
   d="m 222.62,241.4 c -3.45,0.82 -6.88,1.71 -10.35,2.36 -0.58,0.11 -1.67,-0.7 -2.01,-1.35 -1.32,-2.55 -2.44,-5.21 -3.05,-8.52 5.19,2.16 10.37,4.33 15.56,6.49 -0.05,0.35 -0.1,0.69 -0.15,1.02 z" />
		</g>
		<g
   id="g120"
   style="fill:#ffffff">
			<path
   style="fill:#ffffff"
   inkscape:connector-curvature="0"
   id="path118"
   d="m 55.74,242.13 c 4.78,-2.25 9.55,-4.51 14.33,-6.76 0.34,0.29 0.68,0.57 1.02,0.86 -1.1,2.81 -2.16,5.63 -3.36,8.4 -0.15,0.34 -1.03,0.6 -1.51,0.52 -3.46,-0.65 -6.91,-1.4 -10.36,-2.12 -0.04,-0.3 -0.08,-0.6 -0.12,-0.9 z" />
		</g>
	</g><g
   id="g160"
   style="fill:#000000">
		<g
   id="g158"
   style="fill:#000000">
			<path
   style="fill:#000000"
   inkscape:connector-curvature="0"
   id="path124"
   d="m 63.55,257.11 c 2.7,0.77 4.02,2.47 3.45,4.6 -0.42,1.57 -1.59,2.22 -2.6,2.33 -0.28,0 -0.35,0.17 -0.09,0.32 1.02,0.63 1.96,1.91 1.47,3.75 -0.6,2.26 -2.71,3.13 -5.67,2.29 -2.31,-0.66 -3.47,-1 -5.77,-1.7 -0.14,-0.04 -0.2,-0.14 -0.16,-0.27 1.56,-5.08 2.35,-7.62 3.91,-12.71 0.04,-0.13 0.14,-0.18 0.28,-0.14 2.07,0.63 3.11,0.94 5.18,1.53 z m -4.85,4.52 c 1.09,0.32 1.63,0.48 2.72,0.8 1.81,0.52 2.94,0.07 3.27,-1.12 0.29,-1.04 -0.35,-1.91 -1.68,-2.29 -1.3,-0.37 -1.95,-0.56 -3.25,-0.95 -0.42,1.42 -0.63,2.13 -1.06,3.56 z m -1.73,5.79 c 1.46,0.44 2.2,0.65 3.66,1.07 1.47,0.42 2.55,-0.02 2.87,-1.2 0.38,-1.38 -0.44,-2.36 -2.47,-2.94 -1.16,-0.33 -1.74,-0.5 -2.9,-0.85 -0.46,1.57 -0.69,2.36 -1.16,3.92 z" />
			<path
   style="fill:#000000"
   inkscape:connector-curvature="0"
   id="path126"
   d="m 74.31,273.03 c -0.07,-0.26 -0.2,-0.27 -0.47,-0.13 -0.99,0.66 -2.1,0.74 -3.1,0.5 -2.33,-0.57 -3.4,-2.28 -2.82,-4.53 0.58,-2.24 0.86,-3.37 1.44,-5.61 0.03,-0.13 0.13,-0.19 0.27,-0.15 0.7,0.18 1.05,0.27 1.76,0.44 0.14,0.03 0.2,0.13 0.17,0.26 -0.54,2.16 -0.8,3.24 -1.34,5.39 -0.3,1.2 0.19,2.09 1.29,2.36 1.5,0.36 2.62,-0.47 3.05,-2.33 0.41,-1.78 0.62,-2.67 1.03,-4.46 0.03,-0.13 0.13,-0.19 0.27,-0.16 0.71,0.16 1.06,0.24 1.76,0.4 0.14,0.03 0.2,0.13 0.17,0.26 -0.79,3.55 -1.19,5.32 -1.98,8.87 -0.03,0.13 -0.13,0.19 -0.27,0.16 -0.41,-0.09 -0.62,-0.14 -1.03,-0.23 -0.14,-0.03 -0.21,-0.11 -0.2,-0.25 0.01,-0.3 0.01,-0.46 0,-0.79 z" />
			<path
   style="fill:#000000"
   inkscape:connector-curvature="0"
   id="path128"
   d="m 81.58,275.38 c -0.03,0.14 -0.13,0.2 -0.27,0.17 -0.73,-0.15 -1.1,-0.22 -1.83,-0.38 -0.14,-0.03 -0.21,-0.12 -0.18,-0.26 0.61,-2.88 0.91,-4.32 1.52,-7.21 -0.39,-0.08 -0.59,-0.12 -0.98,-0.21 -0.14,-0.03 -0.2,-0.12 -0.17,-0.26 0.13,-0.59 0.19,-0.89 0.32,-1.48 0.03,-0.14 0.12,-0.19 0.26,-0.16 1.18,0.25 1.78,0.38 2.96,0.62 0.14,0.03 0.2,0.12 0.18,0.26 -0.73,3.57 -1.09,5.35 -1.81,8.91 z m 2.49,-12.45 c -0.17,0.83 -0.74,1.21 -1.57,1.04 -0.83,-0.17 -1.22,-0.76 -1.04,-1.58 0.17,-0.81 0.76,-1.18 1.58,-1.01 0.82,0.16 1.19,0.74 1.03,1.55 z" />
			<path
   style="fill:#000000"
   inkscape:connector-curvature="0"
   id="path130"
   d="m 87,274.31 c -0.06,0.33 0.05,0.55 0.31,0.6 0.06,0.01 0.1,0.02 0.14,0.03 0.15,0.01 0.23,0.02 0.27,0.17 0.15,0.59 0.22,0.89 0.37,1.48 0.04,0.15 -0.02,0.24 -0.16,0.27 -0.31,0.06 -0.67,0.06 -0.98,0 -1.69,-0.31 -2.53,-1.41 -2.23,-2.97 0.87,-4.54 1.31,-6.82 2.18,-11.36 0.03,-0.13 0.12,-0.2 0.26,-0.17 0.7,0.13 1.05,0.2 1.75,0.33 0.14,0.03 0.2,0.12 0.18,0.25 -0.84,4.54 -1.26,6.82 -2.09,11.37 z" />
			<path
   style="fill:#000000"
   inkscape:connector-curvature="0"
   id="path132"
   d="m 98.77,278.31 c -0.02,0.14 -0.11,0.2 -0.26,0.18 -0.42,-0.06 -0.62,-0.09 -1.04,-0.15 -0.15,-0.02 -0.22,-0.09 -0.22,-0.21 -0.04,-0.34 -0.07,-0.51 -0.11,-0.85 -0.04,-0.18 -0.18,-0.24 -0.41,-0.06 -0.86,0.67 -1.92,0.95 -3.06,0.77 -2.72,-0.43 -4.02,-2.61 -3.5,-5.63 0.52,-3.02 2.52,-4.58 5.32,-4.14 0.68,0.11 1.21,0.27 1.73,0.6 0.22,0.14 0.33,0.2 0.54,0.34 0.28,-1.87 0.41,-2.81 0.69,-4.68 0.02,-0.14 0.11,-0.2 0.25,-0.18 0.7,0.1 1.05,0.15 1.76,0.25 0.14,0.02 0.21,0.11 0.19,0.24 -0.76,5.41 -1.13,8.11 -1.88,13.52 z m -1.84,-7.54 c -0.45,-0.29 -0.98,-0.49 -1.6,-0.58 -1.53,-0.24 -2.63,0.72 -2.92,2.56 -0.29,1.83 0.42,3.12 1.94,3.35 1.54,0.24 2.55,-0.87 2.79,-2.5 0.15,-0.99 0.22,-1.48 0.36,-2.47 -0.23,-0.15 -0.34,-0.22 -0.57,-0.36 z" />
			<path
   style="fill:#000000"
   inkscape:connector-curvature="0"
   id="path134"
   d="m 104.58,279.06 c -0.02,0.14 -0.11,0.2 -0.25,0.19 -0.74,-0.09 -1.11,-0.13 -1.85,-0.23 -0.15,-0.02 -0.22,-0.11 -0.2,-0.24 0.37,-2.92 0.55,-4.38 0.92,-7.31 -0.4,-0.05 -0.59,-0.08 -0.99,-0.13 -0.14,-0.02 -0.21,-0.11 -0.19,-0.24 0.08,-0.6 0.12,-0.9 0.2,-1.5 0.02,-0.14 0.11,-0.2 0.25,-0.19 1.2,0.16 1.8,0.23 2.99,0.37 0.14,0.02 0.21,0.1 0.2,0.24 -0.44,3.62 -0.65,5.43 -1.08,9.04 z m 1.47,-12.62 c -0.1,0.84 -0.64,1.27 -1.47,1.17 -0.83,-0.1 -1.27,-0.65 -1.17,-1.49 0.1,-0.82 0.66,-1.24 1.49,-1.14 0.83,0.1 1.25,0.64 1.15,1.46 z" />
			<path
   style="fill:#000000"
   inkscape:connector-curvature="0"
   id="path136"
   d="m 109.92,271.27 c 0.1,0.25 0.22,0.24 0.46,0.07 0.87,-0.78 1.91,-1.02 2.9,-0.93 2.3,0.21 3.58,1.7 3.4,4.01 -0.18,2.31 -0.27,3.47 -0.44,5.78 -0.01,0.14 -0.1,0.21 -0.25,0.2 -0.74,-0.06 -1.11,-0.09 -1.86,-0.15 -0.15,-0.01 -0.22,-0.1 -0.21,-0.23 0.19,-2.22 0.28,-3.32 0.47,-5.54 0.1,-1.23 -0.5,-2.03 -1.6,-2.13 -1.5,-0.14 -2.48,0.83 -2.67,2.72 -0.18,1.82 -0.27,2.73 -0.45,4.55 -0.01,0.14 -0.1,0.21 -0.25,0.19 -0.74,-0.07 -1.11,-0.11 -1.85,-0.19 -0.15,-0.02 -0.22,-0.1 -0.21,-0.24 0.39,-3.62 0.59,-5.42 0.98,-9.04 0.01,-0.14 0.1,-0.21 0.24,-0.19 0.4,0.04 0.6,0.06 1.01,0.11 0.14,0.01 0.22,0.08 0.22,0.22 0.05,0.31 0.07,0.47 0.11,0.79 z" />
			<path
   style="fill:#000000"
   inkscape:connector-curvature="0"
   id="path138"
   d="m 120.84,282.97 c 0.43,0.14 1.19,0.29 1.8,0.32 1.45,0.08 2.81,-0.39 3.25,-1.95 0.1,-0.86 0.13,-0.81 0.16,-1.21 0.01,-0.13 -0.09,-0.24 -0.29,-0.07 -0.72,0.68 -1.74,1.06 -2.93,1 -2.76,-0.15 -4.3,-2.19 -4.09,-5.19 0.22,-3.15 2.1,-4.87 5.04,-4.71 0.83,0.04 1.69,0.22 2.46,0.57 0.71,0.32 1.06,0.48 1.77,0.8 0.12,0.04 0.18,0.12 0.17,0.24 -0.12,3.29 -0.17,4.93 -0.29,8.22 -0.1,2.9 -2.01,4.44 -5.25,4.27 -0.79,-0.04 -1.71,-0.19 -2.3,-0.39 -0.41,-0.14 -0.61,-0.2 -1.02,-0.34 -0.15,-0.05 -0.2,-0.15 -0.15,-0.29 0.23,-0.57 0.35,-0.85 0.58,-1.42 0.05,-0.12 0.16,-0.17 0.28,-0.12 0.33,0.11 0.49,0.16 0.81,0.27 z m 4.45,-9.44 c -0.44,-0.24 -1.04,-0.38 -1.63,-0.41 -1.56,-0.08 -2.55,0.96 -2.66,2.84 -0.11,1.78 0.67,3.05 2.2,3.13 1.58,0.08 2.5,-0.96 2.58,-2.85 0.04,-0.97 0.06,-1.45 0.11,-2.41 -0.25,-0.12 -0.37,-0.18 -0.6,-0.3 z" />
			<path
   style="fill:#000000"
   inkscape:connector-curvature="0"
   id="path140"
   d="m 144.09,280.88 c -1.12,0.4 -1.91,0.55 -3.09,0.56 -4,0.04 -6.39,-2.73 -6.34,-7.09 0.05,-4.34 2.39,-7 6.19,-7.05 1.13,-0.01 1.89,0.07 2.91,0.41 0.35,0.11 0.53,0.17 0.88,0.28 0.12,0.04 0.18,0.13 0.15,0.25 -0.19,0.61 -0.29,0.91 -0.48,1.52 -0.04,0.12 -0.14,0.18 -0.26,0.14 -0.36,-0.11 -0.55,-0.17 -0.91,-0.28 -0.71,-0.22 -1.32,-0.3 -2.27,-0.3 -2.4,0 -3.85,1.88 -3.86,5.04 -0.01,3.2 1.46,5.06 3.97,5.03 0.89,-0.01 1.52,-0.1 2.36,-0.39 0.36,-0.12 0.54,-0.19 0.91,-0.31 0.12,-0.04 0.23,0.01 0.29,0.13 0.24,0.58 0.36,0.88 0.6,1.46 0.07,0.14 0.01,0.24 -0.14,0.28 -0.37,0.13 -0.55,0.19 -0.91,0.32 z" />
			<path
   style="fill:#000000"
   inkscape:connector-curvature="0"
   id="path142"
   d="m 149.66,269.99 c 0.04,0.94 -0.03,1.57 -0.23,2.25 -0.07,0.22 0.06,0.35 0.29,0.16 0.66,-0.75 1.51,-1.21 2.66,-1.27 2.3,-0.12 3.78,1.17 3.93,3.49 0.15,2.31 0.23,3.47 0.38,5.78 0.01,0.14 -0.07,0.22 -0.22,0.23 -0.74,0.05 -1.11,0.07 -1.86,0.11 -0.15,0.01 -0.23,-0.06 -0.24,-0.2 -0.13,-2.22 -0.19,-3.33 -0.32,-5.55 -0.07,-1.25 -0.78,-1.94 -1.88,-1.88 -1.65,0.08 -2.3,1.37 -2.25,3.07 0.08,1.83 0.12,2.74 0.19,4.57 0.01,0.14 -0.07,0.22 -0.22,0.23 -0.74,0.03 -1.12,0.05 -1.86,0.07 -0.15,0.01 -0.23,-0.07 -0.24,-0.21 -0.19,-5.46 -0.28,-8.18 -0.47,-13.64 0,-0.14 0.07,-0.22 0.21,-0.22 0.71,-0.02 1.06,-0.04 1.77,-0.07 0.14,-0.01 0.22,0.07 0.23,0.21 0.06,1.15 0.08,1.73 0.13,2.87 z" />
			<path
   style="fill:#000000"
   inkscape:connector-curvature="0"
   id="path144"
   d="m 159.92,270.94 c 0.67,-0.25 1.35,-0.41 2.17,-0.48 2.72,-0.24 4.53,0.95 4.78,3.31 0.24,2.29 0.36,3.43 0.6,5.72 0.01,0.14 -0.06,0.22 -0.21,0.24 -0.42,0.04 -0.62,0.06 -1.04,0.11 -0.15,0.01 -0.23,-0.04 -0.29,-0.15 -0.09,-0.24 -0.14,-0.35 -0.23,-0.59 -0.15,-0.26 -0.28,-0.25 -0.52,0.01 -0.58,0.73 -1.48,1.19 -2.76,1.3 -2.32,0.2 -3.69,-0.83 -3.83,-2.67 -0.13,-1.84 1.09,-3.11 3.5,-3.31 1.02,-0.09 1.53,-0.13 2.55,-0.23 0,-0.05 -0.01,-0.07 -0.01,-0.12 -0.11,-1.19 -0.97,-1.76 -2.47,-1.63 -0.59,0.05 -1.09,0.15 -1.57,0.33 -0.29,0.11 -0.43,0.16 -0.71,0.27 -0.14,0.05 -0.25,0 -0.3,-0.13 -0.22,-0.57 -0.34,-0.85 -0.56,-1.41 -0.05,-0.13 0,-0.24 0.14,-0.29 0.31,-0.12 0.46,-0.17 0.76,-0.28 z m 2.32,5.19 c -1.01,0.09 -1.44,0.57 -1.39,1.24 0.06,0.76 0.66,1.19 1.65,1.1 1.64,-0.14 2.45,-0.99 2.32,-2.44 -0.01,-0.05 -0.01,-0.08 -0.01,-0.14 -1.03,0.1 -1.54,0.15 -2.57,0.24 z" />
			<path
   style="fill:#000000"
   inkscape:connector-curvature="0"
   id="path146"
   d="m 174.87,270.8 c 0.02,0.14 -0.05,0.23 -0.19,0.24 -2.19,0.39 -2.98,1.98 -2.55,5.57 0.11,0.93 0.17,1.39 0.28,2.32 0.02,0.14 -0.06,0.22 -0.2,0.24 -0.74,0.09 -1.11,0.13 -1.85,0.22 -0.15,0.02 -0.24,-0.05 -0.25,-0.19 -0.41,-3.61 -0.61,-5.42 -1.02,-9.03 -0.02,-0.14 0.06,-0.22 0.2,-0.24 0.4,-0.05 0.6,-0.07 1.01,-0.12 0.14,-0.02 0.23,0.03 0.28,0.14 0.18,0.43 0.27,0.64 0.46,1.07 0.15,0.2 0.25,0.23 0.41,0.01 0.68,-1.11 1.54,-1.73 2.98,-1.94 0.14,-0.02 0.23,0.05 0.25,0.18 0.07,0.62 0.11,0.92 0.19,1.53 z" />
			<path
   style="fill:#000000"
   inkscape:connector-curvature="0"
   id="path148"
   d="m 177.75,268.93 c 0.65,-0.29 1.32,-0.49 2.14,-0.62 2.7,-0.42 4.59,0.65 4.99,2.99 0.39,2.27 0.58,3.4 0.97,5.67 0.02,0.14 -0.05,0.23 -0.19,0.25 -0.41,0.07 -0.62,0.1 -1.03,0.17 -0.14,0.02 -0.24,-0.02 -0.3,-0.13 -0.11,-0.23 -0.16,-0.34 -0.26,-0.57 -0.17,-0.25 -0.29,-0.23 -0.52,0.05 -0.53,0.76 -1.41,1.28 -2.67,1.47 -2.3,0.35 -3.75,-0.59 -4,-2.41 -0.25,-1.83 0.89,-3.17 3.28,-3.54 1.02,-0.15 1.52,-0.23 2.54,-0.4 -0.01,-0.05 -0.01,-0.07 -0.02,-0.12 -0.19,-1.18 -1.08,-1.69 -2.57,-1.46 -0.58,0.09 -1.08,0.22 -1.54,0.43 -0.28,0.13 -0.42,0.19 -0.7,0.32 -0.14,0.06 -0.25,0.02 -0.31,-0.11 -0.26,-0.55 -0.39,-0.83 -0.65,-1.38 -0.06,-0.13 -0.01,-0.24 0.12,-0.3 0.28,-0.11 0.42,-0.18 0.72,-0.31 z m 2.65,5.03 c -1,0.15 -1.41,0.67 -1.31,1.33 0.11,0.76 0.74,1.14 1.73,0.99 1.63,-0.25 2.39,-1.15 2.16,-2.59 -0.01,-0.05 -0.01,-0.08 -0.02,-0.14 -1.03,0.17 -1.54,0.25 -2.56,0.41 z" />
			<path
   style="fill:#000000"
   inkscape:connector-curvature="0"
   id="path150"
   d="m 194.81,275.48 c -0.59,0.28 -1.23,0.51 -1.87,0.63 -3.16,0.62 -5.23,-0.98 -5.77,-3.99 -0.53,-3 0.79,-5.15 3.92,-5.77 0.52,-0.1 1.11,-0.16 1.76,-0.11 0.36,0.02 0.54,0.03 0.9,0.06 0.15,0.01 0.23,0.09 0.22,0.24 -0.06,0.61 -0.1,0.92 -0.16,1.54 -0.02,0.12 -0.1,0.2 -0.23,0.19 -0.29,-0.01 -0.43,-0.02 -0.72,-0.03 -0.53,-0.05 -1.03,-0.02 -1.39,0.06 -1.78,0.35 -2.4,1.6 -2.06,3.41 0.35,1.87 1.44,2.81 3.18,2.47 0.43,-0.08 0.99,-0.28 1.47,-0.51 0.25,-0.13 0.38,-0.2 0.64,-0.33 0.14,-0.07 0.25,-0.03 0.31,0.08 0.31,0.54 0.46,0.81 0.77,1.35 0.07,0.13 0.03,0.23 -0.11,0.3 -0.35,0.15 -0.52,0.24 -0.86,0.41 z" />
			<path
   style="fill:#000000"
   inkscape:connector-curvature="0"
   id="path152"
   d="m 201.33,264.34 c 0.14,-0.03 0.24,0.02 0.27,0.16 0.14,0.59 0.21,0.88 0.35,1.47 0.03,0.13 -0.03,0.23 -0.17,0.26 -0.89,0.21 -1.34,0.31 -2.24,0.52 0.42,1.86 0.63,2.79 1.06,4.65 0.15,0.65 0.54,0.95 1.03,0.83 0.18,-0.04 0.37,-0.1 0.51,-0.2 0.13,-0.09 0.24,-0.09 0.33,0.02 0.38,0.46 0.57,0.69 0.96,1.15 0.09,0.1 0.07,0.21 -0.03,0.31 -0.32,0.28 -0.83,0.54 -1.32,0.65 -1.95,0.45 -3.32,-0.4 -3.73,-2.26 -0.41,-1.86 -0.61,-2.8 -1.02,-4.66 -0.39,0.09 -0.59,0.13 -0.98,0.21 -0.14,0.03 -0.24,-0.03 -0.27,-0.16 -0.13,-0.59 -0.19,-0.89 -0.32,-1.48 -0.03,-0.14 0.03,-0.23 0.17,-0.26 0.39,-0.08 0.58,-0.13 0.97,-0.21 -0.19,-0.88 -0.29,-1.32 -0.48,-2.21 -0.03,-0.11 0.02,-0.2 0.13,-0.27 0.65,-0.38 0.97,-0.58 1.62,-0.96 0.15,-0.07 0.26,-0.04 0.29,0.12 0.26,1.13 0.39,1.7 0.64,2.83 0.9,-0.2 1.35,-0.3 2.23,-0.51 z" />
			<path
   style="fill:#000000"
   inkscape:connector-curvature="0"
   id="path154"
   d="m 212.19,271.38 c -0.69,0.37 -1.36,0.63 -2.01,0.8 -3.08,0.81 -5.28,-0.65 -6,-3.61 -0.72,-2.98 0.53,-5.23 3.41,-5.98 2.36,-0.62 4.11,0.12 4.63,1.99 0.4,1.46 -0.3,2.56 -2.24,3.37 -1.21,0.52 -1.82,0.77 -3.04,1.27 0.48,0.95 1.45,1.38 2.73,1.04 0.57,-0.15 1.16,-0.37 1.55,-0.61 0.33,-0.18 0.5,-0.27 0.83,-0.45 0.13,-0.08 0.25,-0.05 0.32,0.07 0.32,0.52 0.48,0.79 0.79,1.31 0.08,0.12 0.04,0.23 -0.09,0.31 -0.35,0.2 -0.53,0.29 -0.88,0.49 z m -2.99,-4.98 c 0.67,-0.3 0.97,-0.7 0.84,-1.2 -0.2,-0.76 -0.92,-0.99 -1.99,-0.71 -1.31,0.34 -2.01,1.35 -1.73,3.14 1.15,-0.48 1.73,-0.73 2.88,-1.23 z" />
			<path
   style="fill:#000000"
   inkscape:connector-curvature="0"
   id="path156"
   d="m 219.51,261.01 c 0.04,0.13 -0.02,0.23 -0.15,0.27 -2.11,0.75 -2.64,2.45 -1.62,5.92 0.26,0.9 0.4,1.35 0.66,2.24 0.04,0.13 -0.02,0.23 -0.16,0.27 -0.72,0.21 -1.08,0.32 -1.81,0.52 -0.14,0.04 -0.24,-0.01 -0.28,-0.14 -1,-3.5 -1.5,-5.25 -2.49,-8.74 -0.04,-0.13 0.02,-0.23 0.16,-0.27 0.39,-0.11 0.59,-0.17 0.98,-0.28 0.14,-0.04 0.23,-0.01 0.3,0.1 0.25,0.39 0.38,0.59 0.63,0.98 0.18,0.17 0.29,0.18 0.41,-0.06 0.5,-1.21 1.25,-1.97 2.65,-2.42 0.13,-0.04 0.24,0.01 0.28,0.14 0.17,0.59 0.26,0.88 0.44,1.47 z" />
		</g>
	</g><g
   id="g164"
   style="fill:#ffffff">
		<rect
   id="rect162"
   height="2.5"
   width="384.79001"
   y="143.36"
   x="280.98999"
   style="fill:#ffffff" />
	</g><g
   id="g186"
   style="fill:#ffffff">
		<path
   style="fill:#ffffff"
   inkscape:connector-curvature="0"
   id="path166"
   d="m 287.78,115.94 c -1.5,0 -2.67,-0.28 -3.52,-0.84 -0.85,-0.56 -1.27,-1.67 -1.27,-3.33 V 75.3 c 0.03,-1.08 0.42,-1.91 1.17,-2.47 0.75,-0.56 1.59,-0.85 2.52,-0.89 0.93,-0.03 1.8,0.22 2.62,0.74 0.81,0.53 1.31,1.33 1.47,2.42 v 33.36 h 19.12 c 0.83,0.03 1.51,0.24 2.05,0.62 0.53,0.38 0.92,0.86 1.17,1.44 0.25,0.57 0.35,1.19 0.3,1.84 -0.05,0.65 -0.22,1.25 -0.52,1.79 -0.3,0.54 -0.72,0.98 -1.27,1.32 -0.55,0.33 -1.22,0.47 -2.02,0.41 l 0.3,0.05 h -22.12 z" />
		<path
   style="fill:#ffffff"
   inkscape:connector-curvature="0"
   id="path168"
   d="m 330.21,115.9 c -2.43,0 -4.64,-0.46 -6.64,-1.39 -2,-0.93 -3.7,-2.18 -5.12,-3.76 -1.41,-1.58 -2.5,-3.43 -3.27,-5.55 -0.77,-2.12 -1.15,-4.36 -1.15,-6.73 0,-2.14 0.33,-4.23 1,-6.27 0.67,-2.04 1.66,-3.86 2.97,-5.46 1.31,-1.6 2.95,-2.88 4.92,-3.85 1.96,-0.97 4.26,-1.46 6.89,-1.46 2.8,0 5.22,0.54 7.29,1.63 2.06,1.09 3.77,2.5 5.12,4.24 1.35,1.74 2.33,3.72 2.95,5.94 0.62,2.22 0.87,4.44 0.77,6.68 -0.1,2.07 -0.51,4.07 -1.22,5.98 -0.71,1.91 -1.72,3.61 -3.02,5.1 -1.3,1.49 -2.9,2.67 -4.82,3.57 -1.92,0.88 -4.14,1.33 -6.67,1.33 z m 0.05,-7.04 c 1.33,0 2.49,-0.25 3.47,-0.77 0.98,-0.51 1.8,-1.2 2.47,-2.06 0.67,-0.86 1.17,-1.84 1.52,-2.94 0.35,-1.1 0.54,-2.24 0.57,-3.42 0.03,-1.34 -0.12,-2.67 -0.45,-4 -0.33,-1.32 -0.86,-2.51 -1.57,-3.57 -0.72,-1.05 -1.62,-1.91 -2.72,-2.56 -1.1,-0.65 -2.36,-0.98 -3.79,-0.98 -1.33,0 -2.5,0.33 -3.52,0.98 -1.02,0.65 -1.86,1.49 -2.55,2.51 -0.68,1.02 -1.19,2.18 -1.52,3.47 -0.33,1.29 -0.47,2.56 -0.4,3.81 0.03,1.18 0.25,2.34 0.65,3.47 0.4,1.13 0.96,2.15 1.67,3.04 0.71,0.89 1.59,1.62 2.62,2.18 1.04,0.56 2.22,0.84 3.55,0.84 z" />
		<path
   style="fill:#ffffff"
   inkscape:connector-curvature="0"
   id="path170"
   d="m 364.65,97.9 v 14.7 c 0,1.15 -0.38,2 -1.15,2.56 -0.77,0.56 -1.6,0.84 -2.5,0.84 -0.9,0 -1.74,-0.29 -2.52,-0.86 -0.78,-0.57 -1.21,-1.42 -1.27,-2.54 0,-1.63 0.01,-3.14 0.03,-4.55 0.02,-1.4 0.02,-2.73 0.02,-3.97 0,-1.12 -0.01,-2.17 -0.02,-3.16 -0.02,-0.99 -0.03,-1.99 -0.03,-3.02 h -2.1 c -1.23,0 -2.13,-0.36 -2.7,-1.08 -0.57,-0.72 -0.85,-1.52 -0.85,-2.42 0,-0.86 0.29,-1.67 0.87,-2.42 0.58,-0.75 1.46,-1.16 2.62,-1.22 h 2.4 c 0.2,-2.07 0.59,-4.2 1.17,-6.37 0.58,-2.17 1.44,-4.16 2.57,-5.96 1.13,-1.8 2.58,-3.29 4.34,-4.48 1.76,-1.18 3.93,-1.82 6.49,-1.91 1.56,0 3.12,0.22 4.67,0.67 1.55,0.45 2.95,1.08 4.22,1.89 1.26,0.81 2.33,1.79 3.2,2.92 0.86,1.13 1.43,2.42 1.7,3.85 0,0.64 -0.12,1.2 -0.35,1.68 -0.23,0.48 -0.53,0.88 -0.9,1.2 -0.37,0.32 -0.78,0.56 -1.25,0.72 -0.47,0.16 -0.92,0.24 -1.35,0.24 -0.87,0 -1.64,-0.23 -2.32,-0.69 -0.68,-0.46 -1.11,-1.11 -1.27,-1.94 -0.37,-1.28 -1.13,-2.18 -2.3,-2.7 -1.17,-0.53 -2.43,-0.77 -3.79,-0.74 -1.33,0.03 -2.45,0.46 -3.34,1.29 -0.9,0.83 -1.63,1.84 -2.2,3.02 -0.57,1.18 -0.99,2.44 -1.27,3.78 -0.28,1.34 -0.49,2.52 -0.62,3.54 h 14.38 c 1.2,0 2.06,0.37 2.6,1.1 0.53,0.73 0.8,1.55 0.8,2.44 0,0.48 -0.08,0.95 -0.25,1.41 -0.17,0.46 -0.4,0.87 -0.7,1.22 -0.3,0.35 -0.68,0.61 -1.15,0.79 -0.47,0.18 -1,0.23 -1.6,0.17 h 0.3 z" />
		<path
   style="fill:#ffffff"
   inkscape:connector-curvature="0"
   id="path172"
   d="m 408.98,88.23 v 24.36 c 0,1.15 -0.38,1.98 -1.15,2.49 -0.77,0.51 -1.61,0.77 -2.55,0.77 -0.5,0 -0.99,-0.07 -1.47,-0.22 -0.48,-0.14 -0.91,-0.36 -1.27,-0.65 -0.37,-0.29 -0.64,-0.63 -0.82,-1.03 -0.18,-0.4 -0.24,-0.85 -0.17,-1.36 V 88.23 h -6.69 c -1.2,0 -2.09,-0.35 -2.67,-1.05 -0.58,-0.7 -0.87,-1.52 -0.87,-2.44 0,-0.89 0.29,-1.69 0.87,-2.39 0.58,-0.7 1.46,-1.08 2.62,-1.15 h 6.74 v -5.9 c 0,-1.15 0.38,-2 1.15,-2.56 0.77,-0.56 1.61,-0.84 2.55,-0.84 0.9,0 1.73,0.28 2.5,0.84 0.77,0.56 1.18,1.4 1.25,2.51 v 5.94 h 7.29 c 1.16,0 2.01,0.35 2.55,1.05 0.53,0.7 0.8,1.5 0.8,2.39 0,0.48 -0.08,0.94 -0.25,1.39 -0.17,0.45 -0.4,0.85 -0.7,1.2 -0.3,0.35 -0.67,0.62 -1.12,0.81 -0.45,0.19 -0.97,0.24 -1.57,0.14 l 0.3,0.05 h -7.32 z" />
		<path
   style="fill:#ffffff"
   inkscape:connector-curvature="0"
   id="path174"
   d="m 441.93,126.19 c -0.5,1.28 -1.51,1.91 -3.04,1.91 -0.57,0 -1.15,-0.13 -1.75,-0.38 -0.6,-0.26 -1.1,-0.61 -1.5,-1.05 -0.4,-0.45 -0.67,-0.97 -0.82,-1.56 -0.15,-0.59 -0.06,-1.2 0.27,-1.84 0.37,-0.77 0.76,-1.59 1.17,-2.47 0.42,-0.88 0.83,-1.77 1.25,-2.68 0.42,-0.91 0.82,-1.81 1.22,-2.7 0.4,-0.89 0.78,-1.72 1.15,-2.49 L 426,87.22 c -0.4,-0.64 -0.56,-1.28 -0.47,-1.94 0.08,-0.65 0.3,-1.24 0.65,-1.75 0.35,-0.51 0.82,-0.93 1.4,-1.24 0.58,-0.32 1.17,-0.48 1.77,-0.48 0.5,0 1,0.1 1.5,0.31 0.5,0.21 0.93,0.58 1.3,1.12 l 11.38,21.78 c 1.63,-3.57 3.28,-7.13 4.94,-10.67 1.66,-3.54 3.31,-7.1 4.94,-10.67 0.37,-0.73 0.84,-1.24 1.42,-1.51 0.58,-0.27 1.19,-0.41 1.82,-0.41 0.57,0 1.12,0.13 1.67,0.38 0.55,0.26 1.01,0.61 1.37,1.05 0.37,0.45 0.61,0.97 0.72,1.56 0.12,0.59 0.04,1.22 -0.22,1.89 z" />
		<path
   style="fill:#ffffff"
   inkscape:connector-curvature="0"
   id="path176"
   d="m 516.15,83.39 c 0.1,0.54 0.04,1.07 -0.17,1.58 -0.22,0.51 -0.53,0.97 -0.95,1.36 -0.42,0.4 -0.89,0.72 -1.42,0.96 -0.53,0.24 -1.07,0.36 -1.6,0.36 -0.73,0 -1.41,-0.18 -2.02,-0.55 -0.62,-0.37 -1.07,-0.98 -1.37,-1.84 -0.4,-1.15 -0.92,-2.11 -1.57,-2.87 -0.65,-0.77 -1.34,-1.37 -2.07,-1.82 -0.73,-0.45 -1.45,-0.77 -2.15,-0.96 -0.7,-0.19 -1.3,-0.29 -1.8,-0.29 -1.83,0.06 -3.44,0.61 -4.82,1.65 -1.38,1.04 -2.53,2.35 -3.44,3.92 -0.92,1.58 -1.61,3.32 -2.07,5.22 -0.47,1.9 -0.7,3.76 -0.7,5.58 0,1.28 0.16,2.67 0.47,4.16 0.32,1.5 0.84,2.9 1.57,4.21 0.73,1.31 1.69,2.41 2.87,3.3 1.18,0.89 2.65,1.36 4.42,1.39 0.96,0.03 1.93,-0.1 2.9,-0.38 0.96,-0.29 1.86,-0.73 2.7,-1.34 0.83,-0.61 1.59,-1.36 2.27,-2.27 0.68,-0.91 1.22,-1.97 1.62,-3.18 0.23,-1.05 0.72,-1.85 1.45,-2.39 0.73,-0.54 1.53,-0.81 2.4,-0.81 0.5,0 1.01,0.1 1.52,0.31 0.52,0.21 0.97,0.5 1.37,0.89 0.4,0.38 0.7,0.84 0.9,1.36 0.2,0.53 0.23,1.11 0.1,1.75 -0.93,2.94 -2.09,5.27 -3.47,7.01 -1.38,1.74 -2.86,3.08 -4.44,4.02 -1.58,0.94 -3.19,1.55 -4.84,1.82 -1.65,0.27 -3.2,0.41 -4.67,0.41 -2.8,-0.03 -5.24,-0.59 -7.34,-1.68 -2.1,-1.08 -3.84,-2.53 -5.24,-4.33 -1.4,-1.8 -2.46,-3.88 -3.17,-6.25 -0.72,-2.36 -1.07,-4.87 -1.07,-7.52 0,-1.88 0.19,-3.78 0.57,-5.7 0.38,-1.91 0.94,-3.77 1.67,-5.55 0.73,-1.79 1.63,-3.46 2.7,-5.03 1.07,-1.56 2.29,-2.93 3.67,-4.09 1.38,-1.16 2.9,-2.07 4.57,-2.73 1.66,-0.65 3.48,-0.98 5.44,-0.98 1.53,0.1 3.08,0.38 4.64,0.86 1.56,0.48 3.03,1.17 4.39,2.08 1.36,0.91 2.58,2.03 3.64,3.37 1.06,1.34 1.9,2.9 2.5,4.69 z" />
		<path
   style="fill:#ffffff"
   inkscape:connector-curvature="0"
   id="path178"
   d="m 548.9,87.27 c 0.43,0.67 0.46,1.38 0.07,2.13 -0.38,0.75 -0.95,1.38 -1.7,1.89 -0.75,0.51 -1.57,0.81 -2.47,0.89 -0.9,0.08 -1.65,-0.22 -2.25,-0.89 -1.33,-1.53 -2.79,-2.36 -4.39,-2.49 -0.67,-0.06 -1.38,-0.03 -2.15,0.1 -0.77,0.13 -1.51,0.33 -2.25,0.62 -0.73,0.29 -1.41,0.66 -2.02,1.12 -0.62,0.46 -1.12,1 -1.52,1.6 v 20.63 c 0,1.15 -0.38,1.98 -1.12,2.49 -0.75,0.51 -1.59,0.77 -2.52,0.77 -0.5,0 -0.99,-0.07 -1.47,-0.22 -0.48,-0.15 -0.91,-0.36 -1.27,-0.65 -0.37,-0.29 -0.64,-0.63 -0.82,-1.03 -0.18,-0.4 -0.24,-0.85 -0.17,-1.36 V 84.83 c 0,-1.18 0.37,-2.04 1.12,-2.58 0.75,-0.54 1.59,-0.81 2.52,-0.81 0.7,0 1.36,0.17 1.97,0.5 0.62,0.34 1.09,0.84 1.42,1.51 1.63,-0.83 3.11,-1.35 4.44,-1.56 1.33,-0.21 2.73,-0.28 4.19,-0.22 1.1,0.03 2.17,0.22 3.22,0.57 1.05,0.35 2.03,0.79 2.95,1.32 0.91,0.53 1.73,1.11 2.45,1.75 0.71,0.64 1.3,1.29 1.77,1.96 z" />
		<path
   style="fill:#ffffff"
   inkscape:connector-curvature="0"
   id="path180"
   d="m 561.48,99.76 c 0.03,1.18 0.22,2.32 0.57,3.42 0.35,1.1 0.87,2.07 1.55,2.92 0.68,0.85 1.52,1.52 2.52,2.03 1,0.51 2.18,0.77 3.54,0.77 0.7,0 1.41,-0.1 2.15,-0.29 0.73,-0.19 1.41,-0.47 2.05,-0.84 0.63,-0.37 1.19,-0.82 1.67,-1.36 0.48,-0.54 0.84,-1.18 1.07,-1.91 0.17,-1.05 0.62,-1.84 1.35,-2.37 0.73,-0.53 1.53,-0.79 2.4,-0.79 0.96,0 1.82,0.33 2.57,1.01 0.75,0.67 1.12,1.68 1.12,3.02 -0.47,1.69 -1.18,3.19 -2.15,4.5 -0.97,1.31 -2.09,2.41 -3.37,3.3 -1.28,0.89 -2.68,1.58 -4.19,2.06 -1.51,0.48 -3.05,0.72 -4.62,0.72 -2.56,0.06 -4.83,-0.35 -6.79,-1.24 -1.96,-0.89 -3.61,-2.1 -4.94,-3.61 -1.33,-1.52 -2.35,-3.26 -3.04,-5.24 -0.7,-1.98 -1.07,-4.02 -1.1,-6.13 -0.96,-0.19 -1.67,-0.62 -2.12,-1.29 -0.45,-0.67 -0.67,-1.4 -0.67,-2.2 0,-0.86 0.3,-1.66 0.9,-2.39 0.6,-0.73 1.48,-1.13 2.65,-1.2 h 0.3 c 0.53,-1.47 1.26,-2.87 2.17,-4.21 0.91,-1.34 2,-2.51 3.25,-3.52 1.25,-1 2.67,-1.8 4.27,-2.39 1.6,-0.59 3.36,-0.89 5.29,-0.89 2.16,0 4.05,0.41 5.67,1.22 1.61,0.81 2.97,1.87 4.07,3.16 1.1,1.29 1.97,2.75 2.62,4.36 0.65,1.61 1.07,3.2 1.27,4.76 0.07,0.67 0.04,1.29 -0.08,1.87 -0.12,0.57 -0.38,1.07 -0.8,1.48 -0.42,0.42 -1.01,0.73 -1.77,0.96 -0.77,0.22 -1.76,0.33 -3,0.33 h -16.38 z m 8.48,-11.24 c -0.8,0 -1.57,0.12 -2.3,0.36 -0.73,0.24 -1.4,0.55 -2,0.93 -0.6,0.38 -1.12,0.82 -1.55,1.32 -0.43,0.5 -0.75,1 -0.95,1.51 h 12.13 c -0.1,-0.48 -0.32,-0.96 -0.65,-1.44 -0.33,-0.48 -0.74,-0.92 -1.22,-1.32 -0.48,-0.4 -1.02,-0.73 -1.62,-0.98 -0.59,-0.26 -1.2,-0.38 -1.84,-0.38 z" />
		<path
   style="fill:#ffffff"
   inkscape:connector-curvature="0"
   id="path182"
   d="m 598.37,99.76 c 0.03,1.18 0.22,2.32 0.57,3.42 0.35,1.1 0.87,2.07 1.55,2.92 0.68,0.85 1.52,1.52 2.52,2.03 1,0.51 2.18,0.77 3.54,0.77 0.7,0 1.41,-0.1 2.15,-0.29 0.73,-0.19 1.41,-0.47 2.05,-0.84 0.63,-0.37 1.19,-0.82 1.67,-1.36 0.48,-0.54 0.84,-1.18 1.07,-1.91 0.17,-1.05 0.62,-1.84 1.35,-2.37 0.73,-0.53 1.53,-0.79 2.4,-0.79 0.96,0 1.82,0.33 2.57,1.01 0.75,0.67 1.12,1.68 1.12,3.02 -0.47,1.69 -1.18,3.19 -2.15,4.5 -0.97,1.31 -2.09,2.41 -3.37,3.3 -1.28,0.89 -2.68,1.58 -4.19,2.06 -1.51,0.48 -3.05,0.72 -4.62,0.72 -2.56,0.06 -4.83,-0.35 -6.79,-1.24 -1.96,-0.89 -3.61,-2.1 -4.94,-3.61 -1.33,-1.52 -2.35,-3.26 -3.04,-5.24 -0.7,-1.98 -1.07,-4.02 -1.1,-6.13 -0.96,-0.19 -1.67,-0.62 -2.12,-1.29 -0.45,-0.67 -0.67,-1.4 -0.67,-2.2 0,-0.86 0.3,-1.66 0.9,-2.39 0.6,-0.73 1.48,-1.13 2.65,-1.2 h 0.3 c 0.53,-1.47 1.26,-2.87 2.17,-4.21 0.91,-1.34 2,-2.51 3.25,-3.52 1.25,-1 2.67,-1.8 4.27,-2.39 1.6,-0.59 3.36,-0.89 5.29,-0.89 2.16,0 4.05,0.41 5.67,1.22 1.61,0.81 2.97,1.87 4.07,3.16 1.1,1.29 1.97,2.75 2.62,4.36 0.65,1.61 1.07,3.2 1.27,4.76 0.07,0.67 0.04,1.29 -0.08,1.87 -0.12,0.57 -0.38,1.07 -0.8,1.48 -0.42,0.42 -1.01,0.73 -1.77,0.96 -0.77,0.22 -1.76,0.33 -3,0.33 h -16.38 z m 8.48,-11.24 c -0.8,0 -1.57,0.12 -2.3,0.36 -0.73,0.24 -1.4,0.55 -2,0.93 -0.6,0.38 -1.12,0.82 -1.55,1.32 -0.43,0.5 -0.75,1 -0.95,1.51 h 12.13 c -0.1,-0.48 -0.32,-0.96 -0.65,-1.44 -0.33,-0.48 -0.74,-0.92 -1.22,-1.32 -0.48,-0.4 -1.02,-0.73 -1.62,-0.98 -0.59,-0.26 -1.21,-0.38 -1.84,-0.38 z" />
		<path
   style="fill:#ffffff"
   inkscape:connector-curvature="0"
   id="path184"
   d="m 634.31,103.4 v 9.19 c 0,1.15 -0.38,1.98 -1.15,2.49 -0.77,0.51 -1.6,0.77 -2.5,0.77 -0.5,0 -1,-0.08 -1.5,-0.24 -0.5,-0.16 -0.92,-0.38 -1.27,-0.67 -0.35,-0.29 -0.62,-0.65 -0.82,-1.08 -0.2,-0.43 -0.25,-0.93 -0.15,-1.51 l -0.05,0.24 V 75.21 c 0,-1.15 0.38,-2 1.15,-2.56 0.76,-0.56 1.61,-0.84 2.55,-0.84 0.9,0 1.73,0.28 2.5,0.84 0.77,0.56 1.18,1.4 1.25,2.51 v 14.65 c 2.3,-1.24 4.58,-2.53 6.86,-3.85 2.28,-1.32 4.53,-2.61 6.76,-3.85 0.7,-0.26 1.36,-0.32 1.97,-0.19 0.62,0.13 1.15,0.38 1.6,0.74 0.45,0.37 0.8,0.82 1.05,1.36 0.25,0.54 0.37,1.08 0.37,1.63 0,0.67 -0.16,1.28 -0.47,1.82 -0.32,0.54 -0.86,0.97 -1.62,1.29 -1.33,0.73 -2.54,1.4 -3.62,2.01 -1.08,0.61 -2.14,1.2 -3.17,1.77 -1.03,0.57 -2.09,1.17 -3.17,1.79 -1.08,0.62 -2.29,1.3 -3.62,2.03 2.66,2.2 5.22,4.33 7.66,6.39 2.45,2.06 5.02,4.19 7.71,6.39 1.1,0.64 1.65,1.6 1.65,2.87 0,0.57 -0.15,1.13 -0.45,1.68 -0.3,0.54 -0.71,1 -1.22,1.36 -0.52,0.37 -1.11,0.59 -1.77,0.67 -0.67,0.08 -1.36,-0.06 -2.1,-0.41 z" />
	</g>
</svg>