<?xml version="1.0" encoding="utf-8"?>
<!-- Generator: Adobe Illustrator 26.2.1, SVG Export Plug-In . SVG Version: 6.00 Build 0)  -->
<svg version="1.1" id="Layer_1" xmlns="http://www.w3.org/2000/svg" xmlns:xlink="http://www.w3.org/1999/xlink" x="0px" y="0px"
	 viewBox="0 0 698.9 308.5" style="enable-background:new 0 0 698.9 308.5;" xml:space="preserve">
<style type="text/css">
	.st0{fill:#09172B;stroke:#FBF9FB;stroke-width:2.97;stroke-miterlimit:10;}
	.st1{fill:#09172B;stroke:#FBF9FB;stroke-width:2.77;stroke-miterlimit:10;}
	.st2{fill:#64071E;stroke:#FBF9FB;stroke-width:2.77;stroke-miterlimit:10;}
	.st3{enable-background:new    ;}
	.st4{fill:#FFFFFF;}
	.st5{fill:#AA7F3C;}
	.st6{fill:#B58A40;}
	.st7{fill:#FEFEFE;}
	.st8{fill:#64071E;}
	.st9{fill:none;stroke:#FFFFFF;stroke-width:2.96;stroke-linecap:round;stroke-miterlimit:10;}
	.st10{fill:#29AAE1;}
	.st11{fill:#E08B33;}
	.st12{fill:#02994B;}
	.st13{fill:#E5148A;}
	.st14{fill:#00A44F;}
	.st15{fill:#F1AF3F;}
	.st16{fill:#23AAE2;}
</style>
<ellipse class="st0" cx="145.7" cy="132" rx="131.3" ry="130.6"/>
<path class="st1" d="M198.9,29.6H93.1C91,52.4,73.8,71,51.2,74.8l0.4,79.2l94.9,94.3l93.5-93.1v-87C219.7,65,203.5,49.6,198.9,29.6z
	"/>
<path class="st2" d="M51.8,100.1c60.1-27,128.8-27,188.9,0v54.5L146,248.7l-94.5-94L51.8,100.1z"/>
<g class="st3">
	<path class="st4" d="M108,67.3h9.9V73h-16.4V44.6h6.5V67.3z"/>
	<path class="st4" d="M141.9,65.4l2.8,5.5c0,0-3.2,2.6-9.4,2.6c-8.1,0-15.5-6.5-15.5-14.6c0-8.1,7.4-14.7,15.5-14.7
		c6.2,0,9.4,2.6,9.4,2.6l-2.8,5.5c0,0-2.3-1.8-5.6-1.8c-6.6,0-9.4,4.5-9.4,8.3c0,3.8,2.9,8.4,9.4,8.4
		C139.6,67.1,141.9,65.4,141.9,65.4z"/>
	<path class="st4" d="M168,65.4l2.8,5.5c0,0-3.2,2.6-9.4,2.6c-8.1,0-15.5-6.5-15.5-14.6c0-8.1,7.4-14.7,15.5-14.7
		c6.2,0,9.4,2.6,9.4,2.6l-2.8,5.5c0,0-2.3-1.8-5.6-1.8c-6.6,0-9.4,4.5-9.4,8.3c0,3.8,2.9,8.4,9.4,8.4C165.7,67.1,168,65.4,168,65.4z
		"/>
	<path class="st4" d="M192.7,46.8l-2.6,5.2c0,0-2.8-2-5.8-2c-2.2,0-3.4,1-3.4,2.5c0,1.6,2.7,2.7,6,4.1c3.2,1.3,6.7,4,6.7,7.7
		c0,6.8-5.2,9.1-10.8,9.1c-6.7,0-10.8-3.7-10.8-3.7l3.3-5.4c0,0,3.8,3.2,7,3.2c1.4,0,4.1-0.1,4.1-2.8c0-2.1-3.1-3-6.5-4.7
		c-3.4-1.7-5.4-4.3-5.4-7.3c0-5.3,4.7-8.7,9.3-8.7C189.1,44.1,192.7,46.8,192.7,46.8z"/>
</g>
<path class="st4" d="M152.5,116.2l-4.5-1.8v3.1l-5.5-4.7c0.3,1.8,0.5,3.2,0.7,5.1l-4.5-5.1c-0.7,2.1-1.3,3.8-2,6.2l-1.9-5.1
	l-4.2,5.7l-0.5-0.2c0.5-1.9,1-3.9,1.5-6.3l-4.8,3.1c0.9-3.4,7.2-10.2,10.2-10.6c1.8-0.3,3.7,0.1,5.3,1.1c3.7,2.7,7.1,5.9,10.6,8.9
	L152.5,116.2z"/>
<path class="st5" d="M81.2,129.3l7.8-3.8c5.3-2.6,8.8-7.1,12.6-11.3c0.9-1,1.8-2,2.8-2.8c3.3-2.8,6.4-3,9.6-0.1
	c3.4,2.9,6.6,6,9.6,9.3c3.8,4.3,7.3,8.8,12.9,10.8l-0.2,0.4l-9-1.3c-9.7-1.5-19.6-1.4-29.2,0.3C92.5,131.8,86.7,131.2,81.2,129.3z
	 M120.1,118.2l0.4-0.5c-2.8-2.3-5.4-4.8-8.3-7c-1.2-0.8-2.7-1.1-4.1-0.9c-2.4,0.3-7.3,5.7-8,8.4l3.8-2.4l-1.2,4.9l0.4,0.2l3.3-4.5
	l1.4,4c0.6-1.8,1.1-3.2,1.6-4.8l3.6,4c-0.2-1.5-0.4-2.6-0.6-4c1.5,1.3,2.8,2.4,4.3,3.7v-2.4L120.1,118.2z"/>
<path class="st4" d="M120.1,118.2l-3.5-1.4v2.4c-1.5-1.3-2.8-2.4-4.3-3.7c0.2,1.4,0.4,2.5,0.6,4l-3.6-4c-0.5,1.6-1,3-1.6,4.8l-1.4-4
	l-3.3,4.5l-0.4-0.2l1.2-4.9l-3.8,2.4c0.7-2.7,5.6-8,8-8.4c1.4-0.2,2.9,0.1,4.1,0.9c2.9,2.1,5.6,4.6,8.3,7L120.1,118.2z"/>
<path class="st6" d="M191.4,122.2c-4.7-5.1-9.7-9.9-15-14.4c-5-4.4-9.8-4.2-15,0.2c-1.6,1.4-3,2.8-4.4,4.4l-3.2,3.5
	c-2.9-3-6-5.8-9.2-8.5c-4.1-3.7-8.1-3.5-12.3,0.2c-1.3,1.1-2.5,2.3-3.6,3.6c-4.9,5.4-9.4,11.1-16.1,14.4l-9.9,4.8
	c7.2,2.3,14.4,3.3,21.7,2c3.6-0.7,7.2-1.1,10.8-1.4l-9.8,4.8c8.8,2.8,17.6,4,26.3,2.4c15.2-2.8,30.3-2.5,45.5-0.4l14,1.9
	c0.1-0.2,0.2-0.4,0.4-0.7C202.7,135.7,197.3,128.8,191.4,122.2z M130.6,119.6l-0.5-0.2c0.5-1.9,1-3.9,1.5-6.3l-4.8,3.1
	c0.9-3.4,7.2-10.2,10.2-10.6c1.8-0.3,3.7,0.1,5.3,1.1c3.7,2.7,7.1,5.9,10.6,8.9l-0.5,0.7l-4.5-1.8v3.1l-5.5-4.7
	c0.3,1.8,0.5,3.2,0.7,5.1l-4.5-5.1c-0.7,2.1-1.3,3.8-2,6.2l-1.9-5.1L130.6,119.6z M185.9,118.5l-5.4-2.2v3.8l-6.7-5.7
	c0.3,2.2,0.6,3.8,0.9,6.2l-5.5-6.2c-0.8,2.5-1.5,4.7-2.5,7.5l-2.2-6.2l-4.8,6.5l-0.7-0.8c0.5-2,1-4.1,1.6-6.6l-4.8,3l-0.6-0.6
	c2-4.3,8.6-11.1,12-11.6c2.2-0.3,4.5,0.1,6.4,1.3c4.6,3.3,8.7,7.2,13,10.8L185.9,118.5z"/>
<path class="st7" d="M135,131.1c2.3-2.3,4.6-4.5,7-6.7c2.1-2.5,4.9-4.3,8-5.4l0.1,0.2c-1.7,2.8-4.1,5.1-6.9,6.7
	c-2.6,1.8-5.3,3.6-8,5.4L135,131.1L135,131.1z"/>
<path class="st6" d="M80.6,141.9c3.8-3.8,8.6-5.4,13.8-6.3c-2.5,1.1-5.1,2-7.5,3.3c-4.2,2.2-4.8,5.8-1.6,9.5c3.5,4,8.2,6,13.2,7.1
	c10.7,2.2,21.5,4,32.2,6c1.5,0.2,2.9,0.6,4.3,1.3c-5.1-0.7-10.2-1.2-15.2-2.1c-7.8-1.5-15.6-3.1-23.3-5c-6.4-1.6-12.1-4.4-15.8-10.2
	L80.6,141.9z"/>
<path class="st6" d="M183.4,194.2c-14.3-1-28.5-2.5-41.9-7.6c-2.9-1.1-5.5-2.7-7.8-4.7c-3.4-3.1-2.7-6.8,1.2-9.1
	c1.9-1.1,3.9-1.9,5.9-2.8c1-0.3,1.9-0.6,2.8-1.1c1.4-1,2.6-2.3,3.8-3.4c-1.4-1-2.6-2.6-4.1-2.9c-7.6-1.5-15.3-2.8-22.9-4.1
	c-9.4-1.6-19-2.8-27.7-7c-2.1-1.1-4-2.6-5.5-4.4c-2.6-3.2-2-6.2,1.9-7.5c6.1-2.1,12.3-3.8,18.7-5c9.5-1.7,19.1-2.6,28.7-3.9l0.1,0.7
	c-2.5,0.9-5,1.6-7.4,2.6c-1.8,0.7-3.6,1.7-5.2,2.9c-3.4,2.6-3.1,5.5,1,6.7c5.7,1.7,11.5,3,17.4,4.2c10.6,2.1,21.4,3.9,32,6.1
	c3.1,0.7,6.1,2,8.8,3.6c3.6,2.1,3.8,5.9,0.2,8.2c-2.6,1.6-5.4,2.9-8.3,3.9c-4,1.5-8.1,2.7-12.2,4c-0.8,0.3-1.7,0.7-2.4,1.1
	c-5,3-5.5,6.5-0.4,9.4c5.6,3.3,11.9,5.5,17.9,8.1C179.7,193,181.6,193.6,183.4,194.2z M157.8,160.3l0.1,0.8c7.8,2,8.2,1.9,8.3-1.3
	l8.5-1.6l-0.1-1.2c-3.3-2.1-7.1-1.7-10.7-1.1c-2.9,0.4-3.1,1.3-1.4,3.4L157.8,160.3z"/>
<path class="st6" d="M179.2,195.8c-9.8,0-19.5-1.2-28.9-3.7c-5.1-1.3-10.2-2.8-15.1-4.6c-5.9-2.2-9-6.1-8.5-10.2
	c0.6-5.3,5-6.6,9.2-8.1c1.3-0.5,2.6-0.7,3.9-0.8c-2.3,1.1-4.7,2.2-6.9,3.5c-4.8,2.9-5.3,7.4-1.1,11.3c4.6,4.2,10.5,6,16.4,7.5
	c5.1,1.3,10.3,2.2,15.5,3.1S174.1,195.1,179.2,195.8z"/>
<path class="st4" d="M185.9,118.5l-5.4-2.2v3.8l-6.7-5.7c0.3,2.2,0.6,3.8,0.9,6.2l-5.5-6.2c-0.8,2.5-1.5,4.7-2.5,7.5l-2.2-6.2
	l-5.1,7l-0.6-0.2c0.6-2.4,1.2-4.7,1.9-7.6l-5.9,3.7c1-4.1,8.8-12.4,12.4-12.9c2.2-0.3,4.5,0.1,6.4,1.3c4.6,3.3,8.7,7.2,13,10.8
	L185.9,118.5z"/>
<g class="st3">
	<path class="st4" d="M317.7,208.3c-2.1,0.7-3.5,1-5.6,1c-7.3,0-11.7-5.2-11.7-13.6c0-8.3,4.4-13.5,11.7-13.5c2.2,0,3.6,0.2,5.5,0.9
		l1.7,0.6c0.2,0.1,0.3,0.3,0.3,0.5l-1,2.9c-0.1,0.2-0.3,0.3-0.5,0.3l-1.7-0.6c-1.3-0.5-2.5-0.6-4.3-0.6c-4.6,0-7.3,3.6-7.3,9.6
		c0,6.1,2.7,9.7,7.3,9.7c1.6,0,2.8-0.2,4.3-0.7l1.7-0.6c0.2-0.1,0.4,0,0.5,0.3l1,2.8c0.1,0.3,0,0.5-0.3,0.5L317.7,208.3z"/>
	<path class="st4" d="M345.7,208.5c0,0.3-0.2,0.4-0.4,0.4h-3.5c-0.3,0-0.4-0.2-0.4-0.4v-11.2h-12.2v11.2c0,0.3-0.2,0.4-0.4,0.4h-3.5
		c-0.3,0-0.4-0.2-0.4-0.4V183c0-0.3,0.2-0.4,0.4-0.4h3.5c0.3,0,0.4,0.2,0.4,0.4v10.5h12.2V183c0-0.3,0.2-0.4,0.4-0.4h3.5
		c0.3,0,0.4,0.2,0.4,0.4V208.5z"/>
	<path class="st4" d="M362.2,182.6c5.5,0,8.8,2.9,8.8,7.6c0,3.4-2.1,5.7-5.1,6.8c-0.5,0.2-0.5,0.4,0,0.7c1.8,0.9,2.8,2.6,3.6,4.4
		l2.7,6.4c0.1,0.3,0,0.5-0.3,0.5h-3.7c-0.2,0-0.4-0.1-0.5-0.3l-2.1-4.8c-1.4-3.4-3.2-5.1-7.1-5.1h-2.7v9.8c0,0.3-0.2,0.4-0.4,0.4
		h-3.5c-0.3,0-0.4-0.2-0.4-0.4V183c0-0.3,0.2-0.4,0.4-0.4H362.2z M360.6,194.9c3.9,0,6-1.5,6-4.4c0-2.5-1.7-4.1-4.4-4.1h-6.4v8.5
		H360.6z"/>
	<path class="st4" d="M381.2,208.5c0,0.3-0.2,0.4-0.4,0.4h-3.5c-0.3,0-0.4-0.2-0.4-0.4V183c0-0.3,0.2-0.4,0.4-0.4h3.5
		c0.3,0,0.4,0.2,0.4,0.4V208.5z"/>
</g>
<g class="st3">
	<path class="st4" d="M392.9,196.7c-4.7-1.7-6.3-3.7-6.3-7.3c0-4.5,3.5-7.1,9-7.1c2.1,0,4.1,0.3,5.9,0.9l2.2,0.7
		c0.3,0.1,0.4,0.3,0.3,0.5l-1,2.9c-0.1,0.2-0.3,0.3-0.5,0.3l-2-0.6c-1.6-0.5-3.1-0.8-4.8-0.8c-2.7,0-4.6,1.3-4.6,3.2
		c0,1.5,0.9,2.6,3.7,3.6l4.2,1.5c4.4,1.7,6.5,3.5,6.5,7.3c0,4.8-3.6,7.5-9.5,7.5c-2.6,0-4.7-0.4-7.3-1.3l-2-0.6
		c-0.3-0.1-0.4-0.3-0.3-0.5l1-2.9c0.1-0.2,0.3-0.3,0.5-0.2l2.1,0.7c2,0.6,3.8,1,6,1c2.8,0,5.2-1.1,5.2-3.6c0-1.7-1.6-2.7-3.8-3.5
		L392.9,196.7z"/>
</g>
<g class="st3">
	<path class="st4" d="M429.3,186c0,0.3-0.2,0.4-0.4,0.4h-8.1v22.1c0,0.3-0.2,0.4-0.4,0.4h-3.5c-0.3,0-0.4-0.2-0.4-0.4v-22.1h-8.1
		c-0.3,0-0.4-0.2-0.4-0.4v-3c0-0.3,0.2-0.4,0.4-0.4h20.5c0.3,0,0.4,0.2,0.4,0.4V186z"/>
	<path class="st4" d="M438,208.5c0,0.3-0.2,0.4-0.4,0.4h-3.5c-0.3,0-0.4-0.2-0.4-0.4V183c0-0.3,0.2-0.4,0.4-0.4h3.5
		c0.3,0,0.4,0.2,0.4,0.4V208.5z"/>
	<path class="st4" d="M448.7,203.9l-1.9,4.7c-0.1,0.2-0.2,0.3-0.5,0.3h-3.6c-0.3,0-0.5-0.2-0.3-0.5l6.5-16.5c1.1-3,2.2-6,2.9-8.9
		c0-0.3,0.2-0.4,0.5-0.4h4.7c0.3,0,0.4,0.1,0.5,0.3c0.8,3,1.8,5.9,3,8.9l6.5,16.5c0.1,0.3,0,0.5-0.3,0.5h-3.6
		c-0.2,0-0.4-0.1-0.5-0.3l-1.9-4.7H448.7z M459.1,200.1l-2-4.9c-0.9-2.3-1.8-5.1-2.2-7c-0.1-0.4-0.5-0.4-0.6,0
		c-0.4,1.9-1.3,4.6-2.2,7l-2,4.9H459.1z"/>
	<path class="st4" d="M492.7,208.5c0,0.3-0.2,0.4-0.4,0.4h-4.6c-0.2,0-0.4-0.1-0.5-0.3c-0.5-1.3-1.3-2.7-2-3.9l-8.1-13.3
		c-0.5-0.9-0.9-1.7-1.3-2.5c-0.2-0.4-0.6-0.3-0.5,0.2c0.2,1.7,0.3,3.2,0.3,5.2v14.2c0,0.3-0.2,0.4-0.4,0.4h-3.5
		c-0.3,0-0.4-0.2-0.4-0.4V183c0-0.3,0.2-0.4,0.4-0.4h4.6c0.2,0,0.4,0.1,0.5,0.3c0.6,1.3,1.3,2.7,2,3.9l8.1,13.3
		c0.5,0.9,0.9,1.8,1.3,2.5c0.2,0.5,0.6,0.3,0.5-0.2c-0.3-1.7-0.3-3.2-0.3-5.2V183c0-0.3,0.2-0.4,0.4-0.4h3.5c0.3,0,0.4,0.2,0.4,0.4
		V208.5z"/>
</g>
<g class="st3">
	<path class="st4" d="M512.3,196.7c-4.7-1.7-6.3-3.7-6.3-7.3c0-4.5,3.5-7.1,9-7.1c2.1,0,4.1,0.3,5.9,0.9l2.2,0.7
		c0.3,0.1,0.4,0.3,0.3,0.5l-1,2.9c-0.1,0.2-0.3,0.3-0.5,0.3l-2-0.6c-1.6-0.5-3.1-0.8-4.8-0.8c-2.7,0-4.6,1.3-4.6,3.2
		c0,1.5,0.9,2.6,3.7,3.6l4.2,1.5c4.4,1.7,6.5,3.5,6.5,7.3c0,4.8-3.6,7.5-9.5,7.5c-2.6,0-4.7-0.4-7.3-1.3l-2-0.6
		c-0.3-0.1-0.4-0.3-0.3-0.5l1-2.9c0.1-0.2,0.3-0.3,0.5-0.2l2.1,0.7c2,0.6,3.8,1,6,1c2.8,0,5.2-1.1,5.2-3.6c0-1.7-1.6-2.7-3.8-3.5
		L512.3,196.7z"/>
</g>
<g class="st3">
	<path class="st4" d="M545.7,208.3c-2.1,0.7-3.5,1-5.6,1c-7.3,0-11.7-5.2-11.7-13.6c0-8.3,4.4-13.5,11.7-13.5c2.2,0,3.6,0.2,5.5,0.9
		l1.7,0.6c0.2,0.1,0.3,0.3,0.3,0.5l-1,2.9c-0.1,0.2-0.3,0.3-0.5,0.3l-1.7-0.6c-1.3-0.5-2.5-0.6-4.3-0.6c-4.6,0-7.3,3.6-7.3,9.6
		c0,6.1,2.7,9.7,7.3,9.7c1.6,0,2.8-0.2,4.3-0.7l1.7-0.6c0.2-0.1,0.4,0,0.5,0.3l1,2.8c0.1,0.3,0,0.5-0.3,0.5L545.7,208.3z"/>
	<path class="st4" d="M573.6,208.5c0,0.3-0.2,0.4-0.4,0.4h-3.5c-0.3,0-0.4-0.2-0.4-0.4v-11.2h-12.2v11.2c0,0.3-0.2,0.4-0.4,0.4h-3.5
		c-0.3,0-0.4-0.2-0.4-0.4V183c0-0.3,0.2-0.4,0.4-0.4h3.5c0.3,0,0.4,0.2,0.4,0.4v10.5h12.2V183c0-0.3,0.2-0.4,0.4-0.4h3.5
		c0.3,0,0.4,0.2,0.4,0.4V208.5z"/>
	<path class="st4" d="M601.6,195.8c0,8.3-4.4,13.6-11.5,13.6c-7.2,0-11.5-5.2-11.5-13.6c0-8.3,4.4-13.5,11.5-13.5
		C597.2,182.3,601.6,187.4,601.6,195.8z M582.9,195.8c0,6,2.7,9.7,7.2,9.7c4.5,0,7.1-3.6,7.1-9.7c0-6.1-2.7-9.6-7.1-9.6
		C585.5,186.1,582.9,189.7,582.9,195.8z"/>
	<path class="st4" d="M628.5,195.8c0,8.3-4.4,13.6-11.5,13.6c-7.2,0-11.5-5.2-11.5-13.6c0-8.3,4.4-13.5,11.5-13.5
		C624.1,182.3,628.5,187.4,628.5,195.8z M609.8,195.8c0,6,2.7,9.7,7.2,9.7c4.5,0,7.1-3.6,7.1-9.7c0-6.1-2.7-9.6-7.1-9.6
		C612.5,186.1,609.8,189.7,609.8,195.8z"/>
	<path class="st4" d="M649.7,205.1c0.3,0,0.4,0.2,0.4,0.4v3c0,0.3-0.2,0.4-0.4,0.4h-15.9c-0.3,0-0.4-0.2-0.4-0.4V183
		c0-0.3,0.2-0.4,0.4-0.4h3.5c0.3,0,0.4,0.2,0.4,0.4v22.1H649.7z"/>
</g>
<path class="st4" d="M127.4,308.5c-2.3-0.5-4.5-0.8-6.8-1c-19.8-0.8-39.3-3.7-58.7-7.5c-9.2-1.8-18.1-4.6-27.5-7c0.3-1,0.6-2,1-3
	c5.6-10.3,11.2-20.5,16.7-30.8c1.2-2.2,2.3-2.6,4.9-2.1c8.4,1.9,16.9,3.4,25.5,4.7c18.2,2.9,36.5,4.4,54.9,4.5
	c19.1,0,38.3-0.6,57.2-3.6c12.1-1.9,24.2-4.1,36.3-6.4c7.3-1.4,7.2-1.5,11,5.1c4.9,8.8,9.9,17.6,14.9,26.4c0.4,0.7,0.7,1.5,1.3,2.8
	c-5.9,1.7-11.5,3.4-17.2,4.9c-23,6.3-46.4,9.7-70.2,11.5c-1.8,0.2-3.6,0.6-5.4,1L127.4,308.5z"/>
<path class="st4" d="M27.2,227.4c3.7,1.9,7.3,4.2,11.1,5.6c10.8,3.9,21.8,7.4,33.2,11.3c-0.8,0.7-1.6,1.3-2.5,1.8
	c-4.6,2-9.3,3.8-13.8,5.9c-1.6,0.8-2.9,2-3.8,3.6c-3.7,6.4-7.2,13-10.9,19.4c-0.6,1-2.5,2-3.4,1.8c-12.5-3-24.6-7-34.9-15.1
	c-0.4-0.3-0.8-0.5-2.2-1.3c2.2-0.9,3.5-1.8,4.9-2c6.5-1.1,13-2.2,19.5-3.1c2.8-0.4,3.9-1.6,3.7-4.3c-0.5-6.5-1-13.1-1.5-19.6
	c-0.1-1.3-0.1-2.7-0.2-4L27.2,227.4z"/>
<path class="st4" d="M220.7,243.4l43.8-16.4c-0.1,2.1-0.3,4.3-0.5,6.6c-0.3,4.7-0.5,9.5-0.9,14.2c-0.3,3.1,1,4.4,4,4.8
	c7.1,1,14.2,2.1,21.3,3.2c0.8,0.1,1.6,0.4,3.4,0.8c-2.8,2.3-4.9,4.3-7.2,5.9c-8.7,6-18.6,9.5-28.7,12.3c-2.1,0.6-3.4-0.2-4.4-2.1
	c-3.3-5.8-6.5-11.7-10.3-17.2c-1.8-2.4-4-4.3-6.7-5.6c-3.8-2.1-8.1-3.4-12.1-5.1C221.8,244.3,221.2,243.9,220.7,243.4z"/>
<path class="st4" d="M233.2,253.1c-3.6,0.9-7.2,1.8-10.9,2.5c-0.6,0.1-1.8-0.7-2.1-1.4c-1.5-2.8-2.6-5.8-3.2-8.9l16.3,6.8
	L233.2,253.1z"/>
<path class="st4" d="M58.4,253.8l15-7.1l1.1,0.9c-1.2,3-2.3,5.9-3.5,8.8c-0.2,0.4-1.1,0.6-1.6,0.5c-3.6-0.7-7.2-1.5-10.9-2.2
	L58.4,253.8z"/>
<path class="st8" d="M66.6,269.5c2.8,0.8,4.2,2.6,3.6,4.8c-0.3,1.3-1.4,2.3-2.7,2.4c-0.3,0-0.4,0.2-0.1,0.3c1.4,0.8,2,2.4,1.5,3.9
	c-0.6,2.4-2.8,3.3-5.9,2.4c-2.4-0.7-3.6-1-6-1.8c-0.1,0-0.2-0.1-0.2-0.2c0,0,0,0,0,0l4.1-13.3c0-0.1,0.1-0.2,0.2-0.2c0,0,0,0,0,0
	C63.3,268.6,64.4,268.9,66.6,269.5z M61.5,274.2l2.8,0.8c1.9,0.5,3.1,0.1,3.4-1.2c0.3-1.1-0.4-2-1.8-2.4s-2-0.6-3.4-1
	C62.2,272,61.9,272.8,61.5,274.2z M59.7,280.3c1.5,0.5,2.3,0.7,3.8,1.1c1.5,0.4,2.7,0,3-1.3c0.4-1.5-0.5-2.5-2.6-3.1l-3-0.9
	L59.7,280.3z"/>
<path class="st8" d="M77.8,286.2c-0.1-0.3-0.2-0.3-0.5-0.1c-1,0.6-2.1,0.8-3.2,0.5c-2.4-0.6-3.6-2.4-3-4.7s0.9-3.5,1.5-5.9
	c0-0.1,0.1-0.2,0.2-0.2c0,0,0,0,0,0l1.8,0.5c0.1,0,0.2,0.1,0.2,0.3c0,0,0,0,0,0l-1.4,5.6c-0.4,0.9,0.1,2,1,2.4
	c0.1,0,0.2,0.1,0.3,0.1c1.6,0.4,2.8-0.5,3.2-2.4l1.1-4.7c0-0.1,0.1-0.2,0.2-0.2c0,0,0,0,0,0l1.8,0.4c0.1,0,0.2,0.1,0.2,0.2
	c0,0,0,0,0,0l-2.1,9.3c0,0.1-0.1,0.2-0.2,0.2c0,0,0,0,0,0l-1.1-0.2c-0.1,0-0.2-0.1-0.2-0.2c0,0,0,0,0,0
	C77.9,286.7,77.8,286.5,77.8,286.2z"/>
<path class="st8" d="M85.5,288.7c0,0.1-0.1,0.2-0.3,0.2l-1.9-0.4c-0.1,0-0.2-0.1-0.2-0.2c0,0,0,0,0,0c0.6-3,1-4.5,1.6-7.5l-1-0.2
	c-0.1,0-0.2-0.1-0.2-0.2c0,0,0,0,0,0l0.3-1.5c0-0.1,0.1-0.2,0.2-0.2c0,0,0,0,0,0l3.1,0.6c0.1,0,0.2,0.1,0.2,0.2c0,0,0,0,0,0
	C86.6,283.1,86.2,284.9,85.5,288.7z M88.1,275.6c-0.1,0.7-0.7,1.2-1.4,1.1c-0.1,0-0.2,0-0.3-0.1c-0.8-0.1-1.3-0.7-1.3-1.5
	c0.1-0.8,0.7-1.3,1.5-1.3c0.1,0,0.2,0,0.3,0.1c0.7,0.1,1.2,0.7,1.1,1.4C88.1,275.5,88.1,275.5,88.1,275.6L88.1,275.6z"/>
<path class="st8" d="M91.1,287.5c-0.1,0.4,0,0.6,0.3,0.6h0.2c0.2,0,0.2,0,0.3,0.2c0.2,0.6,0.2,0.9,0.4,1.5c0,0.1,0,0.2-0.1,0.3
	c0,0,0,0-0.1,0c-0.3,0.1-0.7,0.1-1,0c-1.8-0.3-2.7-1.5-2.3-3.1c0.9-4.8,1.4-7.1,2.3-11.9c0-0.1,0.1-0.2,0.2-0.2c0,0,0,0,0.1,0
	l1.8,0.3c0.1,0,0.2,0.1,0.2,0.2c0,0,0,0,0,0C92.4,280.4,92,282.8,91.1,287.5z"/>
<path class="st8" d="M103.5,291.7c0,0.1-0.1,0.2-0.2,0.2c0,0,0,0,0,0l-1.1-0.2c-0.2,0-0.2-0.1-0.2-0.2c0-0.4-0.1-0.5-0.1-0.9
	c0-0.2-0.2-0.2-0.4-0.1c-0.9,0.7-2.1,1-3.2,0.8c-2.8-0.5-4.2-2.7-3.7-5.9s2.6-4.8,5.6-4.3c0.6,0.1,1.3,0.3,1.8,0.6
	c0.2,0.1,0.3,0.2,0.6,0.4c0.3-2,0.4-2.9,0.7-4.9c0-0.1,0.1-0.2,0.2-0.2c0,0,0,0,0,0l1.8,0.3c0.1,0,0.2,0.1,0.2,0.2c0,0,0,0,0,0
	C104.7,283.2,104.2,286.1,103.5,291.7z M101.5,283.8c-0.5-0.3-1.1-0.5-1.7-0.6c-1.6-0.2-2.8,0.8-3.1,2.7s0.4,3.3,2,3.5
	s2.7-0.9,2.9-2.6l0.4-2.6L101.5,283.8z"/>
<path class="st8" d="M109.6,292.5c0,0.1-0.1,0.2-0.2,0.2c0,0,0,0,0,0l-1.9-0.2c-0.1,0-0.2-0.1-0.2-0.2c0,0,0,0,0-0.1
	c0.4-3.1,0.6-4.6,1-7.6l-1-0.1c-0.1,0-0.2-0.1-0.2-0.2c0,0,0,0,0,0l0.2-1.6c0-0.1,0.1-0.2,0.2-0.2c0,0,0,0,0,0l3.1,0.4
	c0.1,0,0.2,0.1,0.2,0.2c0,0,0,0,0,0.1C110.2,286.8,110,288.7,109.6,292.5z M111.1,279.3c-0.1,0.8-0.8,1.3-1.5,1.2
	c-0.8-0.1-1.3-0.8-1.2-1.5c0.1-0.8,0.8-1.3,1.5-1.2c0,0,0,0,0,0c0.7,0,1.3,0.6,1.2,1.3C111.1,279.1,111.1,279.2,111.1,279.3z"/>
<path class="st8" d="M115.2,284.4c0.1,0.2,0.2,0.2,0.5,0.1c0.8-0.7,1.9-1.1,3-1c2,0,3.6,1.6,3.6,3.6c0,0.2,0,0.4,0,0.6
	c-0.2,2.4-0.3,3.6-0.5,6c0,0.1-0.1,0.2-0.2,0.2c0,0,0,0,0,0l-1.9-0.1c-0.2,0-0.2-0.1-0.2-0.2l0.5-5.8c0.2-1-0.4-2-1.4-2.2
	c-0.1,0-0.2,0-0.3,0c-1.6-0.1-2.6,0.9-2.8,2.9s-0.3,2.9-0.5,4.8c0,0.1-0.1,0.2-0.2,0.2c0,0,0,0,0,0l-1.9-0.2c-0.1,0-0.2-0.1-0.2-0.2
	c0,0,0,0,0,0c0.4-3.8,0.6-5.7,1-9.5c0-0.1,0.1-0.2,0.2-0.2c0,0,0,0,0.1,0l1.1,0.1c0.1,0,0.2,0.1,0.2,0.2c0,0,0,0,0,0
	C115.1,283.8,115.1,284,115.2,284.4z"/>
<path class="st8" d="M126.6,296.6c0.6,0.2,1.2,0.3,1.9,0.3c1.5,0.1,2.9-0.4,3.4-2c0.1-0.9,0.1-0.9,0.2-1.3c0-0.1-0.1-0.2-0.3-0.1
	c-0.8,0.8-1.9,1.1-3.1,1c-2.9-0.2-4.5-2.3-4.3-5.4c0.2-3.3,2.2-5.1,5.3-4.9c0.9,0,1.8,0.2,2.6,0.6l1.9,0.8c0.1,0,0.2,0.1,0.2,0.3
	l-0.3,8.6c-0.1,3-2.1,4.6-5.5,4.5c-0.8,0-1.6-0.2-2.4-0.4l-1.1-0.4c-0.1,0-0.2-0.1-0.2-0.2c0,0,0-0.1,0-0.1l0.6-1.5
	c0-0.1,0.2-0.2,0.3-0.1c0,0,0,0,0,0L126.6,296.6z M131.2,286.7c-0.5-0.3-1.1-0.4-1.7-0.4c-1.6-0.1-2.7,1-2.8,3s0.7,3.2,2.3,3.3
	c1.6,0.1,2.6-1,2.7-3l0.1-2.5L131.2,286.7z"/>
<path class="st8" d="M150.9,294.4c-1,0.4-2.1,0.6-3.2,0.6c-4.2,0-6.7-2.9-6.6-7.4s2.5-7.3,6.5-7.4c1,0,2,0.1,3,0.4l0.9,0.3
	c0.1,0,0.2,0.1,0.2,0.2c0,0,0,0,0,0l-0.5,1.6c0,0.1-0.1,0.2-0.2,0.2c0,0,0,0,0,0l-1-0.3c-0.8-0.2-1.6-0.3-2.4-0.3
	c-2.5,0-4,2-4.1,5.3s1.5,5.3,4.2,5.3c0.8,0,1.7-0.1,2.5-0.4l1-0.3c0.1,0,0.3,0,0.3,0.1l0.6,1.5c0.1,0.1,0,0.2-0.1,0.3
	c0,0-0.1,0-0.1,0L150.9,294.4z"/>
<path class="st8" d="M156.8,283c0.1,0.8,0,1.6-0.2,2.4c-0.1,0.2,0.1,0.4,0.3,0.2c0.7-0.8,1.7-1.3,2.8-1.3c2-0.3,3.8,1.1,4.1,3.1
	c0,0.2,0,0.4,0,0.6l0.4,6c0,0.1-0.1,0.2-0.2,0.2c0,0,0,0,0,0l-2,0.1c-0.1,0-0.2-0.1-0.2-0.2c-0.1-2.3-0.2-3.5-0.3-5.8
	c-0.1-1.3-0.8-2-2-2c-1.7,0.1-2.4,1.4-2.4,3.2l0.2,4.8c0,0.1-0.1,0.2-0.2,0.2l-1.9,0.1c-0.1,0-0.2-0.1-0.2-0.2c0,0,0,0,0,0
	l-0.5-14.3c0-0.1,0.1-0.2,0.2-0.2c0,0,0,0,0,0l1.9-0.1c0.1,0,0.2,0.1,0.2,0.2c0,0,0,0,0,0C156.7,281.2,156.7,281.8,156.8,283z"/>
<path class="st8" d="M167.5,284c0.7-0.3,1.5-0.4,2.3-0.5c2.9-0.2,4.7,1,5,3.5s0.4,3.6,0.6,6c0,0.1,0,0.2-0.1,0.2c0,0,0,0-0.1,0
	l-1.1,0.1c-0.1,0-0.3,0-0.3-0.1l-0.2-0.6c-0.2-0.3-0.3-0.3-0.6,0c-0.7,0.8-1.8,1.3-2.9,1.4c-2.4,0.2-3.9-0.9-4-2.8s1.1-3.2,3.7-3.5
	l2.7-0.2v-0.1c-0.1-1.2-1-1.9-2.6-1.7c-0.6,0-1.1,0.2-1.6,0.4l-0.8,0.3c-0.1,0.1-0.2,0-0.3-0.1c0,0,0,0,0,0l-0.6-1.5
	c-0.1-0.1,0-0.2,0.1-0.3c0,0,0,0,0.1,0L167.5,284z M170,289.4c-1.1,0.1-1.5,0.6-1.5,1.3s0.7,1.2,1.7,1.2c1.7-0.1,2.6-1,2.4-2.6v-0.1
	L170,289.4z"/>
<path class="st8" d="M183.2,283.9c0,0.1,0,0.2-0.1,0.2c0,0,0,0-0.1,0c-2.3,0.4-3.1,2.1-2.7,5.8l0.3,2.4c0,0.1-0.1,0.2-0.2,0.2
	c0,0,0,0,0,0l-1.9,0.2c-0.1,0-0.2,0-0.3-0.2c0,0,0,0,0,0c-0.4-3.8-0.6-5.7-1.1-9.5c0-0.1,0-0.2,0.1-0.2c0,0,0,0,0.1,0l1.1-0.1
	c0.1,0,0.2,0,0.3,0.1l0.5,1.1c0.1,0.2,0.3,0.2,0.4,0c0.7-1.1,1.8-1.9,3.1-2c0.1,0,0.2,0,0.3,0.2c0,0,0,0,0,0
	C183.1,282.9,183.1,283.2,183.2,283.9z"/>
<path class="st8" d="M186.2,281.9c0.7-0.3,1.5-0.5,2.2-0.6c2.8-0.4,4.8,0.7,5.2,3.1s0.6,3.6,1,6c0,0.1,0,0.2-0.2,0.3l-1.1,0.2
	c-0.1,0-0.3,0-0.3-0.1c-0.1-0.2-0.2-0.4-0.3-0.6s-0.3-0.2-0.6,0c-0.7,0.9-1.7,1.4-2.8,1.5c-2.4,0.4-3.9-0.6-4.2-2.5s0.9-3.3,3.4-3.7
	c1.1-0.2,1.6-0.2,2.7-0.4v-0.1c-0.2-1.2-1.1-1.8-2.7-1.5c-0.6,0.1-1.1,0.2-1.6,0.5l-0.7,0.3c-0.1,0.1-0.3,0-0.3-0.1c0,0,0,0,0,0
	c-0.3-0.6-0.4-0.9-0.7-1.4c-0.1-0.1,0-0.2,0.1-0.3c0,0,0,0,0.1,0L186.2,281.9z M189,287.2c-1,0.2-1.5,0.7-1.4,1.4s0.8,1.2,1.8,1
	c1.7-0.3,2.5-1.2,2.3-2.7v-0.1C190.6,286.9,190.1,287,189,287.2L189,287.2z"/>
<path class="st8" d="M204.1,288.8c-0.6,0.3-1.3,0.5-1.9,0.7c-3.3,0.6-5.5-1-6.1-4.2s0.8-5.4,4.1-6c0.6-0.1,1.2-0.2,1.8-0.1l0.9,0.1
	c0.1,0,0.2,0.1,0.2,0.2c0,0,0,0,0,0.1c-0.1,0.6-0.1,1-0.2,1.6c0,0.1-0.1,0.2-0.2,0.2c0,0,0,0,0,0H202c-0.5-0.1-1,0-1.5,0.1
	c-1.9,0.4-2.5,1.7-2.2,3.6s1.5,3,3.3,2.6c0.5-0.1,1.1-0.3,1.5-0.5l0.7-0.3c0.1-0.1,0.3,0,0.3,0.1c0,0,0,0,0,0l0.8,1.4
	c0.1,0.1,0,0.2-0.1,0.3L204.1,288.8z"/>
<path class="st8" d="M210.9,277.1c0.1,0,0.2,0,0.3,0.1c0,0,0,0,0,0.1l0.4,1.5c0,0.1,0,0.2-0.1,0.3c0,0,0,0,0,0l-2.3,0.5
	c0.4,2,0.7,2.9,1.1,4.9c0.1,0.7,0.6,1,1.1,0.9c0.2,0,0.4-0.1,0.5-0.2c0.1-0.1,0.2-0.1,0.3,0l1,1.2c0.1,0.1,0.1,0.2,0,0.3
	c-0.4,0.3-0.9,0.6-1.4,0.7c-1.5,0.6-3.2-0.2-3.8-1.8c-0.1-0.2-0.1-0.4-0.1-0.6c-0.4-2-0.6-2.9-1.1-4.9l-1,0.2c-0.1,0-0.2,0-0.3-0.1
	c0,0,0,0,0,0l-0.3-1.5c0-0.1,0-0.2,0.1-0.3c0,0,0,0,0,0l1-0.2c-0.2-0.9-0.3-1.4-0.5-2.3c0-0.1,0-0.2,0.1-0.3l1.7-1
	c0.2-0.1,0.3,0,0.3,0.1c0.3,1.2,0.4,1.8,0.7,3L210.9,277.1z"/>
<path class="st8" d="M222.3,284.5c-0.7,0.4-1.4,0.6-2.1,0.8c-3.2,0.8-5.5-0.7-6.3-3.8s0.6-5.5,3.6-6.3c2.5-0.6,4.3,0.1,4.9,2.1
	c0.4,1.5-0.3,2.7-2.4,3.5c-1.3,0.5-1.9,0.8-3.2,1.3c0.5,1,1.8,1.5,2.9,1.1c0.6-0.1,1.1-0.3,1.6-0.6l0.9-0.5c0.1-0.1,0.2-0.1,0.3,0
	c0,0,0,0,0,0c0.3,0.5,0.5,0.8,0.8,1.4c0.1,0.1,0,0.2-0.1,0.3c0,0,0,0,0,0L222.3,284.5z M219.1,279.2c0.7-0.3,1-0.7,0.9-1.3
	c-0.2-0.8-1-1-2.1-0.7c-1.4,0.4-2.1,1.4-1.8,3.3L219.1,279.2z"/>
<path class="st8" d="M230,273.6c0,0.1,0,0.2-0.1,0.3c0,0,0,0,0,0c-2.2,0.8-2.8,2.6-1.7,6.2l0.7,2.4c0,0.1,0,0.2-0.1,0.3c0,0,0,0,0,0
	l-1.9,0.5c-0.1,0-0.2,0-0.3-0.1c0,0,0,0,0,0c-1.1-3.7-1.6-5.5-2.6-9.2c0-0.1,0-0.2,0.1-0.3c0,0,0,0,0,0l1-0.3c0.1,0,0.2,0,0.3,0.1
	l0.6,1c0.2,0.2,0.3,0.2,0.4-0.1c0.5-1.2,1.5-2.2,2.8-2.5c0.1,0,0.2,0,0.3,0.1c0,0,0,0,0,0L230,273.6z"/>
<line class="st9" x1="294.4" y1="151.7" x2="697.5" y2="151.7"/>
<g class="st3">
	<path class="st10" d="M301.4,121.6c-1.6,0-2.8-0.3-3.7-0.9c-0.9-0.6-1.3-1.7-1.3-3.5V79.1c0-1.1,0.4-2,1.2-2.6
		c0.8-0.6,1.7-0.9,2.6-0.9c1,0,1.9,0.2,2.7,0.8c0.9,0.6,1.4,1.4,1.5,2.5v35h20c0.9,0,1.6,0.3,2.1,0.7c0.6,0.4,1,0.9,1.2,1.5
		c0.3,0.6,0.4,1.2,0.3,1.9c-0.1,0.7-0.2,1.3-0.5,1.9c-0.3,0.6-0.8,1-1.3,1.4s-1.3,0.5-2.1,0.4l0.3,0.1H301.4z"/>
</g>
<g class="st3">
	<path class="st11" d="M345.8,121.6c-2.5,0-4.9-0.5-6.9-1.5c-2.1-1-3.9-2.3-5.3-3.9c-1.5-1.7-2.6-3.6-3.4-5.8
		c-0.8-2.2-1.2-4.6-1.2-7c0-2.2,0.3-4.4,1-6.6c0.7-2.1,1.7-4,3.1-5.7c1.4-1.7,3.1-3,5.1-4c2.1-1,4.5-1.5,7.2-1.5
		c2.9,0,5.5,0.6,7.6,1.7c2.2,1.1,3.9,2.6,5.3,4.4c1.4,1.8,2.4,3.9,3.1,6.2c0.6,2.3,0.9,4.7,0.8,7c-0.1,2.2-0.5,4.3-1.3,6.3
		c-0.7,2-1.8,3.8-3.2,5.3c-1.4,1.6-3,2.8-5,3.7C350.7,121.1,348.4,121.6,345.8,121.6z M345.8,114.2c1.4,0,2.6-0.3,3.6-0.8
		c1-0.5,1.9-1.3,2.6-2.2c0.7-0.9,1.2-1.9,1.6-3.1s0.6-2.3,0.6-3.6c0-1.4-0.1-2.8-0.5-4.2c-0.3-1.4-0.9-2.6-1.6-3.7
		c-0.7-1.1-1.7-2-2.8-2.7c-1.1-0.7-2.5-1-4-1c-1.4,0-2.6,0.3-3.7,1c-1.1,0.7-1.9,1.6-2.7,2.6c-0.7,1.1-1.2,2.3-1.6,3.6
		c-0.3,1.4-0.5,2.7-0.4,4c0,1.2,0.3,2.4,0.7,3.6c0.4,1.2,1,2.2,1.7,3.2c0.7,0.9,1.7,1.7,2.7,2.3
		C343.2,113.9,344.4,114.2,345.8,114.2z"/>
</g>
<g class="st3">
	<path class="st12" d="M381.8,102.7v15.4c0,1.2-0.4,2.1-1.2,2.7c-0.8,0.6-1.7,0.9-2.6,0.9c-0.9,0-1.8-0.3-2.6-0.9
		c-0.8-0.6-1.3-1.5-1.3-2.7c0-1.7,0-3.3,0-4.8c0-1.5,0-2.9,0-4.2c0-1.2,0-2.3,0-3.3c0-1,0-2.1,0-3.2h-2.2c-1.3,0-2.2-0.4-2.8-1.1
		c-0.6-0.8-0.9-1.6-0.9-2.5c0-0.9,0.3-1.7,0.9-2.5c0.6-0.8,1.5-1.2,2.7-1.3h2.5c0.2-2.2,0.6-4.4,1.2-6.7c0.6-2.3,1.5-4.4,2.7-6.2
		c1.2-1.9,2.7-3.5,4.5-4.7c1.8-1.2,4.1-1.9,6.8-2c1.6,0,3.3,0.2,4.9,0.7c1.6,0.5,3.1,1.1,4.4,2s2.4,1.9,3.3,3.1
		c0.9,1.2,1.5,2.5,1.8,4c0,0.7-0.1,1.3-0.4,1.8c-0.2,0.5-0.6,0.9-0.9,1.3c-0.4,0.3-0.8,0.6-1.3,0.8c-0.5,0.2-1,0.3-1.4,0.3
		c-0.9,0-1.7-0.2-2.4-0.7c-0.7-0.5-1.2-1.2-1.3-2c-0.4-1.3-1.2-2.3-2.4-2.8c-1.2-0.6-2.5-0.8-4-0.8c-1.4,0-2.6,0.5-3.5,1.4
		c-0.9,0.9-1.7,1.9-2.3,3.2c-0.6,1.2-1,2.6-1.3,4c-0.3,1.4-0.5,2.6-0.7,3.7h15c1.3,0,2.2,0.4,2.7,1.2c0.6,0.8,0.8,1.6,0.8,2.6
		c0,0.5-0.1,1-0.3,1.5c-0.2,0.5-0.4,0.9-0.7,1.3c-0.3,0.4-0.7,0.6-1.2,0.8c-0.5,0.2-1,0.2-1.7,0.2h0.3H381.8z"/>
</g>
<g class="st3">
	<path class="st13" d="M428.1,92.6v25.5c0,1.2-0.4,2.1-1.2,2.6c-0.8,0.5-1.7,0.8-2.7,0.8c-0.5,0-1-0.1-1.5-0.2s-0.9-0.4-1.3-0.7
		c-0.4-0.3-0.7-0.7-0.9-1.1c-0.2-0.4-0.3-0.9-0.2-1.4V92.6h-7c-1.3,0-2.2-0.4-2.8-1.1c-0.6-0.7-0.9-1.6-0.9-2.6
		c0-0.9,0.3-1.8,0.9-2.5c0.6-0.7,1.5-1.1,2.7-1.2h7v-6.2c0-1.2,0.4-2.1,1.2-2.7c0.8-0.6,1.7-0.9,2.7-0.9c0.9,0,1.8,0.3,2.6,0.9
		c0.8,0.6,1.2,1.5,1.3,2.6v6.2h7.6c1.2,0,2.1,0.4,2.7,1.1c0.6,0.7,0.8,1.6,0.8,2.5c0,0.5-0.1,1-0.3,1.5c-0.2,0.5-0.4,0.9-0.7,1.3
		c-0.3,0.4-0.7,0.7-1.2,0.9c-0.5,0.2-1,0.3-1.6,0.2l0.3,0H428.1z"/>
</g>
<g class="st3">
	<path class="st10" d="M462.5,132.4c-0.5,1.3-1.6,2-3.2,2c-0.6,0-1.2-0.1-1.8-0.4c-0.6-0.3-1.1-0.6-1.6-1.1c-0.4-0.5-0.7-1-0.9-1.6
		c-0.2-0.6-0.1-1.3,0.3-1.9c0.4-0.8,0.8-1.7,1.2-2.6c0.4-0.9,0.9-1.9,1.3-2.8c0.4-1,0.9-1.9,1.3-2.8c0.4-0.9,0.8-1.8,1.2-2.6
		l-14.5-26.9c-0.4-0.7-0.6-1.3-0.5-2c0.1-0.7,0.3-1.3,0.7-1.8c0.4-0.5,0.9-1,1.5-1.3c0.6-0.3,1.2-0.5,1.9-0.5c0.5,0,1,0.1,1.6,0.3
		c0.5,0.2,1,0.6,1.4,1.2l11.9,22.8c1.7-3.7,3.4-7.5,5.2-11.2c1.7-3.7,3.5-7.4,5.2-11.2c0.4-0.8,0.9-1.3,1.5-1.6
		c0.6-0.3,1.2-0.4,1.9-0.4c0.6,0,1.2,0.1,1.7,0.4c0.6,0.3,1.1,0.6,1.4,1.1c0.4,0.5,0.6,1,0.8,1.6c0.1,0.6,0,1.3-0.2,2L462.5,132.4z"
		/>
</g>
<g class="st3">
	<path class="st14" d="M540,87.5c0.1,0.6,0,1.1-0.2,1.7c-0.2,0.5-0.6,1-1,1.4c-0.4,0.4-0.9,0.8-1.5,1c-0.6,0.3-1.1,0.4-1.7,0.4
		c-0.8,0-1.5-0.2-2.1-0.6c-0.6-0.4-1.1-1-1.4-1.9c-0.4-1.2-1-2.2-1.6-3c-0.7-0.8-1.4-1.4-2.2-1.9c-0.8-0.5-1.5-0.8-2.2-1
		c-0.7-0.2-1.4-0.3-1.9-0.3c-1.9,0.1-3.6,0.6-5,1.7c-1.4,1.1-2.6,2.5-3.6,4.1c-1,1.7-1.7,3.5-2.2,5.5c-0.5,2-0.7,3.9-0.7,5.8
		c0,1.3,0.2,2.8,0.5,4.4c0.3,1.6,0.9,3,1.6,4.4c0.8,1.4,1.8,2.5,3,3.5c1.2,0.9,2.8,1.4,4.6,1.5c1,0,2-0.1,3-0.4
		c1-0.3,1.9-0.8,2.8-1.4c0.9-0.6,1.7-1.4,2.4-2.4c0.7-1,1.3-2.1,1.7-3.3c0.2-1.1,0.7-1.9,1.5-2.5c0.8-0.6,1.6-0.9,2.5-0.9
		c0.5,0,1.1,0.1,1.6,0.3c0.5,0.2,1,0.5,1.4,0.9c0.4,0.4,0.7,0.9,0.9,1.4c0.2,0.6,0.2,1.2,0.1,1.8c-1,3.1-2.2,5.5-3.6,7.3
		c-1.4,1.8-3,3.2-4.6,4.2c-1.7,1-3.3,1.6-5.1,1.9c-1.7,0.3-3.3,0.4-4.9,0.4c-2.9,0-5.5-0.6-7.7-1.8c-2.2-1.1-4-2.6-5.5-4.5
		c-1.5-1.9-2.6-4.1-3.3-6.5c-0.7-2.5-1.1-5.1-1.1-7.9c0-2,0.2-4,0.6-6c0.4-2,1-3.9,1.7-5.8c0.8-1.9,1.7-3.6,2.8-5.3
		c1.1-1.6,2.4-3.1,3.8-4.3c1.4-1.2,3-2.2,4.8-2.9c1.7-0.7,3.6-1,5.7-1c1.6,0.1,3.2,0.4,4.9,0.9c1.6,0.5,3.2,1.2,4.6,2.2
		c1.4,1,2.7,2.1,3.8,3.5c1.1,1.4,2,3,2.6,4.9L540,87.5z"/>
</g>
<g class="st3">
	<path class="st15" d="M574.3,91.6c0.5,0.7,0.5,1.4,0.1,2.2c-0.4,0.8-1,1.4-1.8,2c-0.8,0.5-1.6,0.8-2.6,0.9
		c-0.9,0.1-1.7-0.2-2.3-0.9c-1.4-1.6-2.9-2.5-4.6-2.6c-0.7-0.1-1.4,0-2.2,0.1c-0.8,0.1-1.6,0.4-2.3,0.7c-0.8,0.3-1.5,0.7-2.1,1.2
		c-0.6,0.5-1.2,1-1.6,1.7v21.6c0,1.2-0.4,2.1-1.2,2.6c-0.8,0.5-1.7,0.8-2.6,0.8c-0.5,0-1-0.1-1.5-0.2s-0.9-0.4-1.3-0.7
		c-0.4-0.3-0.7-0.7-0.9-1.1c-0.2-0.4-0.3-0.9-0.2-1.4V89c0-1.2,0.4-2.1,1.2-2.7c0.8-0.6,1.7-0.9,2.6-0.9c0.7,0,1.4,0.2,2.1,0.5
		c0.6,0.4,1.1,0.9,1.5,1.6c1.7-0.9,3.3-1.4,4.6-1.6c1.4-0.2,2.8-0.3,4.4-0.2c1.1,0,2.3,0.2,3.4,0.6c1.1,0.4,2.1,0.8,3.1,1.4
		s1.8,1.2,2.6,1.8C573.1,90.2,573.8,90.9,574.3,91.6z"/>
</g>
<g class="st3">
	<path class="st16" d="M587.4,104.7c0,1.2,0.2,2.4,0.6,3.6s0.9,2.2,1.6,3.1c0.7,0.9,1.6,1.6,2.6,2.1c1,0.5,2.3,0.8,3.7,0.8
		c0.7,0,1.5-0.1,2.2-0.3c0.8-0.2,1.5-0.5,2.1-0.9c0.7-0.4,1.2-0.9,1.7-1.4c0.5-0.6,0.9-1.2,1.1-2c0.2-1.1,0.6-1.9,1.4-2.5
		c0.8-0.6,1.6-0.8,2.5-0.8c1,0,1.9,0.4,2.7,1.1s1.2,1.8,1.2,3.2c-0.5,1.8-1.2,3.3-2.2,4.7c-1,1.4-2.2,2.5-3.5,3.5
		c-1.3,0.9-2.8,1.7-4.4,2.2s-3.2,0.8-4.8,0.8c-2.7,0.1-5-0.4-7.1-1.3c-2.1-0.9-3.8-2.2-5.2-3.8c-1.4-1.6-2.5-3.4-3.2-5.5
		c-0.7-2.1-1.1-4.2-1.1-6.4c-1-0.2-1.7-0.7-2.2-1.4c-0.5-0.7-0.7-1.5-0.7-2.3c0-0.9,0.3-1.7,0.9-2.5c0.6-0.8,1.5-1.2,2.8-1.3h0.3
		c0.6-1.5,1.3-3,2.3-4.4c1-1.4,2.1-2.6,3.4-3.7c1.3-1.1,2.8-1.9,4.5-2.5c1.7-0.6,3.5-0.9,5.5-0.9c2.3,0,4.2,0.4,5.9,1.3
		c1.7,0.9,3.1,2,4.2,3.3c1.1,1.4,2.1,2.9,2.7,4.6c0.7,1.7,1.1,3.4,1.3,5c0.1,0.7,0,1.4-0.1,2c-0.1,0.6-0.4,1.1-0.8,1.6
		c-0.4,0.4-1.1,0.8-1.9,1c-0.8,0.2-1.8,0.4-3.1,0.4H587.4z M596.3,92.9c-0.8,0-1.6,0.1-2.4,0.4c-0.8,0.3-1.5,0.6-2.1,1
		c-0.6,0.4-1.2,0.9-1.6,1.4c-0.5,0.5-0.8,1-1,1.6h12.7c-0.1-0.5-0.3-1-0.7-1.5c-0.3-0.5-0.8-1-1.3-1.4c-0.5-0.4-1.1-0.8-1.7-1
		C597.6,93,596.9,92.9,596.3,92.9z"/>
</g>
<g class="st3">
	<path class="st13" d="M625.9,104.7c0,1.2,0.2,2.4,0.6,3.6s0.9,2.2,1.6,3.1c0.7,0.9,1.6,1.6,2.6,2.1c1,0.5,2.3,0.8,3.7,0.8
		c0.7,0,1.5-0.1,2.2-0.3c0.8-0.2,1.5-0.5,2.1-0.9c0.7-0.4,1.2-0.9,1.7-1.4c0.5-0.6,0.9-1.2,1.1-2c0.2-1.1,0.6-1.9,1.4-2.5
		c0.8-0.6,1.6-0.8,2.5-0.8c1,0,1.9,0.4,2.7,1.1c0.8,0.7,1.2,1.8,1.2,3.2c-0.5,1.8-1.2,3.3-2.2,4.7c-1,1.4-2.2,2.5-3.5,3.5
		c-1.3,0.9-2.8,1.7-4.4,2.2s-3.2,0.8-4.8,0.8c-2.7,0.1-5-0.4-7.1-1.3c-2.1-0.9-3.8-2.2-5.2-3.8c-1.4-1.6-2.5-3.4-3.2-5.5
		c-0.7-2.1-1.1-4.2-1.1-6.4c-1-0.2-1.7-0.7-2.2-1.4c-0.5-0.7-0.7-1.5-0.7-2.3c0-0.9,0.3-1.7,0.9-2.5c0.6-0.8,1.5-1.2,2.8-1.3h0.3
		c0.6-1.5,1.3-3,2.3-4.4c1-1.4,2.1-2.6,3.4-3.7c1.3-1.1,2.8-1.9,4.5-2.5c1.7-0.6,3.5-0.9,5.5-0.9c2.3,0,4.2,0.4,5.9,1.3
		c1.7,0.9,3.1,2,4.2,3.3s2.1,2.9,2.7,4.6c0.7,1.7,1.1,3.4,1.3,5c0.1,0.7,0,1.4-0.1,2c-0.1,0.6-0.4,1.1-0.8,1.6
		c-0.4,0.4-1.1,0.8-1.9,1c-0.8,0.2-1.8,0.4-3.1,0.4H625.9z M634.8,92.9c-0.8,0-1.6,0.1-2.4,0.4c-0.8,0.3-1.5,0.6-2.1,1
		c-0.6,0.4-1.2,0.9-1.6,1.4c-0.5,0.5-0.8,1-1,1.6h12.7c-0.1-0.5-0.3-1-0.7-1.5c-0.3-0.5-0.8-1-1.3-1.4s-1.1-0.8-1.7-1
		C636.1,93,635.5,92.9,634.8,92.9z"/>
</g>
<g class="st3">
	<path class="st10" d="M663.5,108.5v9.6c0,1.2-0.4,2.1-1.2,2.6c-0.8,0.5-1.7,0.8-2.6,0.8c-0.5,0-1-0.1-1.6-0.3
		c-0.5-0.2-1-0.4-1.3-0.7s-0.7-0.7-0.9-1.1c-0.2-0.5-0.3-1-0.2-1.6l-0.1,0.3V79c0-1.2,0.4-2.1,1.2-2.7c0.8-0.6,1.7-0.9,2.7-0.9
		c0.9,0,1.8,0.3,2.6,0.9s1.2,1.5,1.3,2.6v15.3c2.4-1.3,4.8-2.6,7.2-4c2.4-1.4,4.7-2.7,7.1-4c0.7-0.3,1.4-0.3,2.1-0.2
		c0.6,0.1,1.2,0.4,1.7,0.8c0.5,0.4,0.8,0.9,1.1,1.4c0.3,0.6,0.4,1.1,0.4,1.7c0,0.7-0.2,1.3-0.5,1.9c-0.3,0.6-0.9,1-1.7,1.4
		c-1.4,0.8-2.7,1.5-3.8,2.1c-1.1,0.6-2.2,1.3-3.3,1.9c-1.1,0.6-2.2,1.2-3.3,1.9s-2.4,1.4-3.8,2.1c2.8,2.3,5.5,4.5,8,6.7
		c2.6,2.2,5.2,4.4,8.1,6.7c1.1,0.7,1.7,1.7,1.7,3c0,0.6-0.2,1.2-0.5,1.8c-0.3,0.6-0.7,1-1.3,1.4c-0.5,0.4-1.2,0.6-1.9,0.7
		c-0.7,0.1-1.4-0.1-2.2-0.4L663.5,108.5z"/>
</g>
</svg>
